G04 #@! TF.GenerationSoftware,KiCad,Pcbnew,(5.1.2)-2*
G04 #@! TF.CreationDate,2020-04-17T11:06:59-04:00*
G04 #@! TF.ProjectId,DRV-Based Balun,4452562d-4261-4736-9564-2042616c756e,rev?*
G04 #@! TF.SameCoordinates,PX92ac188PY7692bc8*
G04 #@! TF.FileFunction,Other,ECO2*
%FSLAX46Y46*%
G04 Gerber Fmt 4.6, Leading zero omitted, Abs format (unit mm)*
G04 Created by KiCad (PCBNEW (5.1.2)-2) date 2020-04-17 11:06:59*
%MOMM*%
%LPD*%
G04 APERTURE LIST*
%ADD10C,1.250000*%
%ADD11C,0.750000*%
%ADD12C,0.500000*%
G04 APERTURE END LIST*
D10*
X5580333Y5183143D02*
X6580333Y4945048D01*
X6913666Y4706953D01*
X7247000Y4230762D01*
X7247000Y3516477D01*
X6913666Y3040286D01*
X6580333Y2802191D01*
X5913666Y2564096D01*
X3247000Y2564096D01*
X3247000Y7564096D01*
X5580333Y7564096D01*
X6247000Y7326000D01*
X6580333Y7087905D01*
X6913666Y6611715D01*
X6913666Y6135524D01*
X6580333Y5659334D01*
X6247000Y5421239D01*
X5580333Y5183143D01*
X3247000Y5183143D01*
X9247000Y7564096D02*
X13247000Y7564096D01*
X11247000Y2564096D02*
X11247000Y7564096D01*
D11*
X48426571Y9437858D02*
X47426571Y10866429D01*
X46712285Y9437858D02*
X46712285Y12437858D01*
X47855142Y12437858D01*
X48140857Y12295000D01*
X48283714Y12152143D01*
X48426571Y11866429D01*
X48426571Y11437858D01*
X48283714Y11152143D01*
X48140857Y11009286D01*
X47855142Y10866429D01*
X46712285Y10866429D01*
X48680571Y33948858D02*
X47252000Y33948858D01*
X47252000Y36948858D01*
D12*
X32258761Y59134239D02*
X32449238Y59134239D01*
X32639714Y59039000D01*
X32734952Y58943762D01*
X32830190Y58753286D01*
X32925428Y58372334D01*
X32925428Y57896143D01*
X32830190Y57515191D01*
X32734952Y57324715D01*
X32639714Y57229477D01*
X32449238Y57134239D01*
X32258761Y57134239D01*
X32068285Y57229477D01*
X31973047Y57324715D01*
X31877809Y57515191D01*
X31782571Y57896143D01*
X31782571Y58372334D01*
X31877809Y58753286D01*
X31973047Y58943762D01*
X32068285Y59039000D01*
X32258761Y59134239D01*
X34639714Y58467572D02*
X34639714Y57134239D01*
X34163523Y59229477D02*
X33687333Y57800905D01*
X34925428Y57800905D01*
X35687333Y57896143D02*
X37211142Y57896143D01*
X38068285Y58943762D02*
X38163523Y59039000D01*
X38354000Y59134239D01*
X38830190Y59134239D01*
X39020666Y59039000D01*
X39115904Y58943762D01*
X39211142Y58753286D01*
X39211142Y58562810D01*
X39115904Y58277096D01*
X37973047Y57134239D01*
X39211142Y57134239D01*
X40449238Y59134239D02*
X40639714Y59134239D01*
X40830190Y59039000D01*
X40925428Y58943762D01*
X41020666Y58753286D01*
X41115904Y58372334D01*
X41115904Y57896143D01*
X41020666Y57515191D01*
X40925428Y57324715D01*
X40830190Y57229477D01*
X40639714Y57134239D01*
X40449238Y57134239D01*
X40258761Y57229477D01*
X40163523Y57324715D01*
X40068285Y57515191D01*
X39973047Y57896143D01*
X39973047Y58372334D01*
X40068285Y58753286D01*
X40163523Y58943762D01*
X40258761Y59039000D01*
X40449238Y59134239D01*
X41877809Y58943762D02*
X41973047Y59039000D01*
X42163523Y59134239D01*
X42639714Y59134239D01*
X42830190Y59039000D01*
X42925428Y58943762D01*
X43020666Y58753286D01*
X43020666Y58562810D01*
X42925428Y58277096D01*
X41782571Y57134239D01*
X43020666Y57134239D01*
X44258761Y59134239D02*
X44449238Y59134239D01*
X44639714Y59039000D01*
X44734952Y58943762D01*
X44830190Y58753286D01*
X44925428Y58372334D01*
X44925428Y57896143D01*
X44830190Y57515191D01*
X44734952Y57324715D01*
X44639714Y57229477D01*
X44449238Y57134239D01*
X44258761Y57134239D01*
X44068285Y57229477D01*
X43973047Y57324715D01*
X43877809Y57515191D01*
X43782571Y57896143D01*
X43782571Y58372334D01*
X43877809Y58753286D01*
X43973047Y58943762D01*
X44068285Y59039000D01*
X44258761Y59134239D01*
M02*
