  0
SECTION
  2
HEADER
  9
$ANGBASE
  50
0.0
  9
$ANGDIR
  70
  1
  9
$MEASUREMENT
  70
0
  0
ENDSEC
  0
SECTION
  2
TABLES
  0
TABLE
  2
LTYPE
  70
4
  0
LTYPE
  5
40F
  2
CONTINUOUS
  70
0
  3
Solid line
  72
65
  73
0
  40
0.0
  0
LTYPE
  5
410
  2
DASHDOT
 70
0
  3
Dash Dot ____ _ ____ _
 72
65
 73
4
 40
2.0
 49
1.25
 49
-0.25
 49
0.25
 49
-0.25
  0
LTYPE
  5
411
  2
DASHED
 70
0
  3
Dashed __ __ __ __ __
 72
65
 73
2
 40
0.75
 49
0.5
 49
-0.25
  0
LTYPE
  5
43B
  2
DOTTED
 70
0
  3
Dotted .  .  .  .
 72
65
 73
2
 40
0.2
 49
0.0
 49
-0.2
  0
ENDTAB
  0
TABLE
  2
STYLE
  70
4
  0
STYLE
  2
KICAD
  70
0
  40
0
  41
1
  42
1
  50
0
  71
0
  3
isocp.shx
  0
STYLE
  2
KICADB
  70
0
  40
0
  41
1
  42
1
  50
0
  71
0
  3
isocp.shx
  0
STYLE
  2
KICADI
  70
0
  40
0
  41
1
  42
1
  50
15
  71
0
  3
isocp.shx
  0
STYLE
  2
KICADBI
  70
0
  40
0
  41
1
  42
1
  50
15
  71
0
  3
isocp.shx
  0
ENDTAB
  0
TABLE
  2
LAYER
  70
30
  0
LAYER
  2
BLACK
  70
0
  62
7
  6
CONTINUOUS
  0
LAYER
  2
GRAY1
  70
0
  62
251
  6
CONTINUOUS
  0
LAYER
  2
GRAY2
  70
0
  62
8
  6
CONTINUOUS
  0
LAYER
  2
GRAY3
  70
0
  62
9
  6
CONTINUOUS
  0
LAYER
  2
WHITE
  70
0
  62
7
  6
CONTINUOUS
  0
LAYER
  2
LYELLOW
  70
0
  62
51
  6
CONTINUOUS
  0
LAYER
  2
BLUE1
  70
0
  62
178
  6
CONTINUOUS
  0
LAYER
  2
GREEN1
  70
0
  62
98
  6
CONTINUOUS
  0
LAYER
  2
CYAN1
  70
0
  62
138
  6
CONTINUOUS
  0
LAYER
  2
RED1
  70
0
  62
18
  6
CONTINUOUS
  0
LAYER
  2
MAGENTA1
  70
0
  62
228
  6
CONTINUOUS
  0
LAYER
  2
BROWN1
  70
0
  62
58
  6
CONTINUOUS
  0
LAYER
  2
BLUE2
  70
0
  62
5
  6
CONTINUOUS
  0
LAYER
  2
GREEN2
  70
0
  62
3
  6
CONTINUOUS
  0
LAYER
  2
CYAN2
  70
0
  62
4
  6
CONTINUOUS
  0
LAYER
  2
RED2
  70
0
  62
1
  6
CONTINUOUS
  0
LAYER
  2
MAGENTA2
  70
0
  62
6
  6
CONTINUOUS
  0
LAYER
  2
BROWN2
  70
0
  62
54
  6
CONTINUOUS
  0
LAYER
  2
BLUE3
  70
0
  62
171
  6
CONTINUOUS
  0
LAYER
  2
GREEN3
  70
0
  62
91
  6
CONTINUOUS
  0
LAYER
  2
CYAN3
  70
0
  62
131
  6
CONTINUOUS
  0
LAYER
  2
RED3
  70
0
  62
11
  6
CONTINUOUS
  0
LAYER
  2
MAGENTA3
  70
0
  62
221
  6
CONTINUOUS
  0
LAYER
  2
YELLOW3
  70
0
  62
2
  6
CONTINUOUS
  0
LAYER
  2
BLUE4
  70
0
  62
5
  6
CONTINUOUS
  0
LAYER
  2
GREEN4
  70
0
  62
3
  6
CONTINUOUS
  0
LAYER
  2
CYAN4
  70
0
  62
4
  6
CONTINUOUS
  0
LAYER
  2
RED4
  70
0
  62
1
  6
CONTINUOUS
  0
LAYER
  2
MAGENTA4
  70
0
  62
6
  6
CONTINUOUS
  0
LAYER
  2
YELLOW4
  70
0
  62
2
  6
CONTINUOUS
  0
ENDTAB
  0
ENDSEC
  0
SECTION
  2
ENTITIES
0
LINE
8
BLACK
6
CONTINUOUS
10
155.448
20
-124.333
11
197.466
21
-124.33
0
LINE
8
BLACK
6
CONTINUOUS
10
162.795
20
-63.3701
11
207.01
21
-63.246
0
LINE
8
BLACK
6
CONTINUOUS
10
206.502
20
-116.586
11
207.01
21
-116.586
0
LINE
8
BLACK
6
CONTINUOUS
10
207.01
20
-116.586
11
207.01
21
-63.246
0
LINE
8
BLACK
6
CONTINUOUS
10
153.888
20
-70.9878
11
153.912
21
-120.38
0
ARC
8
BLACK
10
206.502
20
-125.73
40
9.144
50
90
51
171.193
0
ARC
8
BLACK
10
145.669
20
-125.857
40
9.89704
50
8.85796
51
33.6027
0
ARC
8
BLACK
10
153.888
20
-61.9708
40
9.017
50
-90
51
-8.92733
0
LINE
8
BLACK
6
CONTINUOUS
10
167.748
20
-111.614
11
168.548
21
-112.414
0
LINE
8
BLACK
6
CONTINUOUS
10
168.548
20
-111.614
11
167.748
21
-112.414
0
LINE
8
BLACK
6
CONTINUOUS
10
182.861
20
-79.991
11
183.661
21
-80.791
0
LINE
8
BLACK
6
CONTINUOUS
10
183.661
20
-79.991
11
182.861
21
-80.791
0
LINE
8
BLACK
6
CONTINUOUS
10
182.861
20
-84.991
11
183.661
21
-85.791
0
LINE
8
BLACK
6
CONTINUOUS
10
183.661
20
-84.991
11
182.861
21
-85.791
0
LINE
8
BLACK
6
CONTINUOUS
10
186.036
20
-112.249
11
186.836
21
-113.049
0
LINE
8
BLACK
6
CONTINUOUS
10
186.836
20
-112.249
11
186.036
21
-113.049
0
LINE
8
BLACK
6
CONTINUOUS
10
186.036
20
-117.249
11
186.836
21
-118.049
0
LINE
8
BLACK
6
CONTINUOUS
10
186.836
20
-117.249
11
186.036
21
-118.049
0
LINE
8
BLACK
6
CONTINUOUS
10
171.431
20
-106.741
11
172.231
21
-107.541
0
LINE
8
BLACK
6
CONTINUOUS
10
172.231
20
-106.741
11
171.431
21
-107.541
0
LINE
8
BLACK
6
CONTINUOUS
10
171.431
20
-111.741
11
172.231
21
-112.541
0
LINE
8
BLACK
6
CONTINUOUS
10
172.231
20
-111.741
11
171.431
21
-112.541
0
LINE
8
BLACK
6
CONTINUOUS
10
159.493
20
-83.801
11
160.293
21
-84.601
0
LINE
8
BLACK
6
CONTINUOUS
10
160.293
20
-83.801
11
159.493
21
-84.601
0
LINE
8
BLACK
6
CONTINUOUS
10
169.653
20
-83.801
11
170.453
21
-84.601
0
LINE
8
BLACK
6
CONTINUOUS
10
170.453
20
-83.801
11
169.653
21
-84.601
0
LINE
8
BLACK
6
CONTINUOUS
10
182.226
20
-105.137
11
183.026
21
-105.937
0
LINE
8
BLACK
6
CONTINUOUS
10
183.026
20
-105.137
11
182.226
21
-105.937
0
LINE
8
BLACK
6
CONTINUOUS
10
182.226
20
-110.137
11
183.026
21
-110.937
0
LINE
8
BLACK
6
CONTINUOUS
10
183.026
20
-110.137
11
182.226
21
-110.937
0
LINE
8
BLACK
6
CONTINUOUS
10
164.446
20
-75.673
11
165.246
21
-76.473
0
LINE
8
BLACK
6
CONTINUOUS
10
165.246
20
-75.673
11
164.446
21
-76.473
0
LINE
8
BLACK
6
CONTINUOUS
10
167.946
20
-75.673
11
168.746
21
-76.473
0
LINE
8
BLACK
6
CONTINUOUS
10
168.746
20
-75.673
11
167.946
21
-76.473
0
LINE
8
BLACK
6
CONTINUOUS
10
189.084
20
-86.087
11
189.884
21
-86.887
0
LINE
8
BLACK
6
CONTINUOUS
10
189.884
20
-86.087
11
189.084
21
-86.887
0
LINE
8
BLACK
6
CONTINUOUS
10
189.084
20
-91.087
11
189.884
21
-91.887
0
LINE
8
BLACK
6
CONTINUOUS
10
189.884
20
-91.087
11
189.084
21
-91.887
0
LINE
8
BLACK
6
CONTINUOUS
10
157.207
20
-88.373
11
158.007
21
-89.173
0
LINE
8
BLACK
6
CONTINUOUS
10
158.007
20
-88.373
11
157.207
21
-89.173
0
LINE
8
BLACK
6
CONTINUOUS
10
167.367
20
-88.373
11
168.167
21
-89.173
0
LINE
8
BLACK
6
CONTINUOUS
10
168.167
20
-88.373
11
167.367
21
-89.173
0
LINE
8
BLACK
6
CONTINUOUS
10
160.128
20
-103.994
11
160.928
21
-104.794
0
LINE
8
BLACK
6
CONTINUOUS
10
160.928
20
-103.994
11
160.128
21
-104.794
0
LINE
8
BLACK
6
CONTINUOUS
10
160.128
20
-111.614
11
160.928
21
-112.414
0
LINE
8
BLACK
6
CONTINUOUS
10
160.928
20
-111.614
11
160.128
21
-112.414
0
LINE
8
BLACK
6
CONTINUOUS
10
162.668
20
-103.994
11
163.468
21
-104.794
0
LINE
8
BLACK
6
CONTINUOUS
10
163.468
20
-103.994
11
162.668
21
-104.794
0
LINE
8
BLACK
6
CONTINUOUS
10
162.668
20
-111.614
11
163.468
21
-112.414
0
LINE
8
BLACK
6
CONTINUOUS
10
163.468
20
-111.614
11
162.668
21
-112.414
0
LINE
8
BLACK
6
CONTINUOUS
10
165.208
20
-103.994
11
166.008
21
-104.794
0
LINE
8
BLACK
6
CONTINUOUS
10
166.008
20
-103.994
11
165.208
21
-104.794
0
LINE
8
BLACK
6
CONTINUOUS
10
165.208
20
-111.614
11
166.008
21
-112.414
0
LINE
8
BLACK
6
CONTINUOUS
10
166.008
20
-111.614
11
165.208
21
-112.414
0
LINE
8
BLACK
6
CONTINUOUS
10
167.748
20
-103.994
11
168.548
21
-104.794
0
LINE
8
BLACK
6
CONTINUOUS
10
168.548
20
-103.994
11
167.748
21
-104.794
0
LINE
8
BLACK
6
CONTINUOUS
10
168.891
20
-100.057
11
169.691
21
-100.857
0
LINE
8
BLACK
6
CONTINUOUS
10
169.691
20
-100.057
11
168.891
21
-100.857
0
LINE
8
BLACK
6
CONTINUOUS
10
179.051
20
-100.057
11
179.851
21
-100.857
0
LINE
8
BLACK
6
CONTINUOUS
10
179.851
20
-100.057
11
179.051
21
-100.857
0
LINE
8
BLACK
6
CONTINUOUS
10
163.43
20
-93.961
11
164.23
21
-94.761
0
LINE
8
BLACK
6
CONTINUOUS
10
164.23
20
-93.961
11
163.43
21
-94.761
0
LINE
8
BLACK
6
CONTINUOUS
10
165.97
20
-93.961
11
166.77
21
-94.761
0
LINE
8
BLACK
6
CONTINUOUS
10
166.77
20
-93.961
11
165.97
21
-94.761
0
LINE
8
BLACK
6
CONTINUOUS
10
168.51
20
-93.961
11
169.31
21
-94.761
0
LINE
8
BLACK
6
CONTINUOUS
10
169.31
20
-93.961
11
168.51
21
-94.761
0
CIRCLE
8
BLACK
10
201.295
20
-102.108
40
0.5
0
CIRCLE
8
BLACK
10
201.295
20
-104.648
40
0.5
0
CIRCLE
8
BLACK
10
201.295
20
-107.188
40
0.5
0
CIRCLE
8
BLACK
10
159.893
20
-76.2
40
0.5
0
CIRCLE
8
BLACK
10
159.893
20
-78.74
40
0.5
0
CIRCLE
8
BLACK
10
201.549
20
-77.597
40
0.5
0
CIRCLE
8
BLACK
10
201.549
20
-80.137
40
0.5
0
CIRCLE
8
BLACK
10
201.549
20
-82.677
40
0.5
0
CIRCLE
8
BLACK
10
186.944
20
-72.136
40
0.5
0
CIRCLE
8
BLACK
10
189.484
20
-72.136
40
0.5
0
CIRCLE
8
BLACK
10
186.309
20
-97.028
40
0.5
0
CIRCLE
8
BLACK
10
188.849
20
-97.028
40
0.5
0
LINE
8
BLACK
6
CONTINUOUS
10
186.436
20
-100.66
11
186.436
21
-101.778
0
LINE
8
BLACK
6
CONTINUOUS
10
185.877
20
-101.219
11
186.995
21
-101.219
0
LINE
8
BLACK
6
CONTINUOUS
10
186.436
20
-108.28
11
186.436
21
-109.398
0
LINE
8
BLACK
6
CONTINUOUS
10
185.877
20
-108.839
11
186.995
21
-108.839
0
LINE
8
BLACK
6
CONTINUOUS
10
188.976
20
-100.66
11
188.976
21
-101.778
0
LINE
8
BLACK
6
CONTINUOUS
10
188.417
20
-101.219
11
189.535
21
-101.219
0
LINE
8
BLACK
6
CONTINUOUS
10
188.976
20
-108.28
11
188.976
21
-109.398
0
LINE
8
BLACK
6
CONTINUOUS
10
188.417
20
-108.839
11
189.535
21
-108.839
0
LINE
8
BLACK
6
CONTINUOUS
10
191.516
20
-100.66
11
191.516
21
-101.778
0
LINE
8
BLACK
6
CONTINUOUS
10
190.957
20
-101.219
11
192.075
21
-101.219
0
LINE
8
BLACK
6
CONTINUOUS
10
191.516
20
-108.28
11
191.516
21
-109.398
0
LINE
8
BLACK
6
CONTINUOUS
10
190.957
20
-108.839
11
192.075
21
-108.839
0
LINE
8
BLACK
6
CONTINUOUS
10
194.056
20
-100.66
11
194.056
21
-101.778
0
LINE
8
BLACK
6
CONTINUOUS
10
193.497
20
-101.219
11
194.615
21
-101.219
0
LINE
8
BLACK
6
CONTINUOUS
10
194.056
20
-108.28
11
194.056
21
-109.398
0
LINE
8
BLACK
6
CONTINUOUS
10
193.497
20
-108.839
11
194.615
21
-108.839
0
LINE
8
BLACK
6
CONTINUOUS
10
186.944
20
-75.6412
11
186.944
21
-76.7588
0
LINE
8
BLACK
6
CONTINUOUS
10
186.385
20
-76.2
11
187.503
21
-76.2
0
LINE
8
BLACK
6
CONTINUOUS
10
186.944
20
-83.2612
11
186.944
21
-84.3788
0
LINE
8
BLACK
6
CONTINUOUS
10
186.385
20
-83.82
11
187.503
21
-83.82
0
LINE
8
BLACK
6
CONTINUOUS
10
189.484
20
-75.6412
11
189.484
21
-76.7588
0
LINE
8
BLACK
6
CONTINUOUS
10
188.925
20
-76.2
11
190.043
21
-76.2
0
LINE
8
BLACK
6
CONTINUOUS
10
189.484
20
-83.2612
11
189.484
21
-84.3788
0
LINE
8
BLACK
6
CONTINUOUS
10
188.925
20
-83.82
11
190.043
21
-83.82
0
LINE
8
BLACK
6
CONTINUOUS
10
192.024
20
-75.6412
11
192.024
21
-76.7588
0
LINE
8
BLACK
6
CONTINUOUS
10
191.465
20
-76.2
11
192.583
21
-76.2
0
LINE
8
BLACK
6
CONTINUOUS
10
192.024
20
-83.2612
11
192.024
21
-84.3788
0
LINE
8
BLACK
6
CONTINUOUS
10
191.465
20
-83.82
11
192.583
21
-83.82
0
LINE
8
BLACK
6
CONTINUOUS
10
194.564
20
-75.6412
11
194.564
21
-76.7588
0
LINE
8
BLACK
6
CONTINUOUS
10
194.005
20
-76.2
11
195.123
21
-76.2
0
LINE
8
BLACK
6
CONTINUOUS
10
194.564
20
-83.2612
11
194.564
21
-84.3788
0
LINE
8
BLACK
6
CONTINUOUS
10
194.005
20
-83.82
11
195.123
21
-83.82
0
LINE
8
BLACK
6
CONTINUOUS
10
172.019
20
-116.901
11
172.019
21
-116.017
0
LINE
8
BLACK
6
CONTINUOUS
10
172.019
20
-116.017
11
171.135
21
-116.017
0
LINE
8
BLACK
6
CONTINUOUS
10
171.135
20
-116.017
11
171.135
21
-116.901
0
LINE
8
BLACK
6
CONTINUOUS
10
171.135
20
-116.901
11
172.019
21
-116.901
0
LINE
8
BLACK
6
CONTINUOUS
10
172.146
20
-72.1969
11
172.146
21
-71.3131
0
LINE
8
BLACK
6
CONTINUOUS
10
172.146
20
-71.3131
11
171.262
21
-71.3131
0
LINE
8
BLACK
6
CONTINUOUS
10
171.262
20
-71.3131
11
171.262
21
-72.1969
0
LINE
8
BLACK
6
CONTINUOUS
10
171.262
20
-72.1969
11
172.146
21
-72.1969
0
LINE
8
BLACK
6
CONTINUOUS
10
195.25
20
-123.6
11
197
21
-121.85
0
LINE
8
BLACK
6
CONTINUOUS
10
197
20
-121.85
11
195.25
21
-120.1
0
LINE
8
BLACK
6
CONTINUOUS
10
195.25
20
-120.1
11
193.5
21
-121.85
0
LINE
8
BLACK
6
CONTINUOUS
10
193.5
20
-121.85
11
195.25
21
-123.6
0
LINE
8
BLACK
6
CONTINUOUS
10
180.3
20
-123.6
11
182.05
21
-121.85
0
LINE
8
BLACK
6
CONTINUOUS
10
182.05
20
-121.85
11
180.3
21
-120.1
0
LINE
8
BLACK
6
CONTINUOUS
10
180.3
20
-120.1
11
178.55
21
-121.85
0
LINE
8
BLACK
6
CONTINUOUS
10
178.55
20
-121.85
11
180.3
21
-123.6
0
LINE
8
BLACK
6
CONTINUOUS
10
204.216
20
-67.663
11
205.966
21
-65.913
0
LINE
8
BLACK
6
CONTINUOUS
10
205.966
20
-65.913
11
204.216
21
-64.163
0
LINE
8
BLACK
6
CONTINUOUS
10
204.216
20
-64.163
11
202.466
21
-65.913
0
LINE
8
BLACK
6
CONTINUOUS
10
202.466
20
-65.913
11
204.216
21
-67.663
0
LINE
8
BLACK
6
CONTINUOUS
10
180.213
20
-67.663
11
181.963
21
-65.913
0
LINE
8
BLACK
6
CONTINUOUS
10
181.963
20
-65.913
11
180.213
21
-64.163
0
LINE
8
BLACK
6
CONTINUOUS
10
180.213
20
-64.163
11
178.463
21
-65.913
0
LINE
8
BLACK
6
CONTINUOUS
10
178.463
20
-65.913
11
180.213
21
-67.663
0
LINE
8
BLACK
6
CONTINUOUS
10
156.727
20
-129.015
11
156.727
21
-126.015
0
LINE
8
BLACK
6
CONTINUOUS
10
156.727
20
-126.015
11
157.441
21
-126.015
0
LINE
8
BLACK
6
CONTINUOUS
10
157.441
20
-126.015
11
157.87
21
-126.158
0
LINE
8
BLACK
6
CONTINUOUS
10
157.87
20
-126.158
11
158.155
21
-126.444
0
LINE
8
BLACK
6
CONTINUOUS
10
158.155
20
-126.444
11
158.298
21
-126.729
0
LINE
8
BLACK
6
CONTINUOUS
10
158.298
20
-126.729
11
158.441
21
-127.301
0
LINE
8
BLACK
6
CONTINUOUS
10
158.441
20
-127.301
11
158.441
21
-127.729
0
LINE
8
BLACK
6
CONTINUOUS
10
158.441
20
-127.729
11
158.298
21
-128.301
0
LINE
8
BLACK
6
CONTINUOUS
10
158.298
20
-128.301
11
158.155
21
-128.587
0
LINE
8
BLACK
6
CONTINUOUS
10
158.155
20
-128.587
11
157.87
21
-128.872
0
LINE
8
BLACK
6
CONTINUOUS
10
157.87
20
-128.872
11
157.441
21
-129.015
0
LINE
8
BLACK
6
CONTINUOUS
10
157.441
20
-129.015
11
156.727
21
-129.015
0
LINE
8
BLACK
6
CONTINUOUS
10
159.727
20
-129.015
11
159.727
21
-127.015
0
LINE
8
BLACK
6
CONTINUOUS
10
159.727
20
-127.587
11
159.87
21
-127.301
0
LINE
8
BLACK
6
CONTINUOUS
10
159.87
20
-127.301
11
160.013
21
-127.158
0
LINE
8
BLACK
6
CONTINUOUS
10
160.013
20
-127.158
11
160.298
21
-127.015
0
LINE
8
BLACK
6
CONTINUOUS
10
160.298
20
-127.015
11
160.584
21
-127.015
0
LINE
8
BLACK
6
CONTINUOUS
10
161.584
20
-129.015
11
161.584
21
-127.015
0
LINE
8
BLACK
6
CONTINUOUS
10
161.584
20
-126.015
11
161.441
21
-126.158
0
LINE
8
BLACK
6
CONTINUOUS
10
161.441
20
-126.158
11
161.584
21
-126.301
0
LINE
8
BLACK
6
CONTINUOUS
10
161.584
20
-126.301
11
161.727
21
-126.158
0
LINE
8
BLACK
6
CONTINUOUS
10
161.727
20
-126.158
11
161.584
21
-126.015
0
LINE
8
BLACK
6
CONTINUOUS
10
161.584
20
-126.015
11
161.584
21
-126.301
0
LINE
8
BLACK
6
CONTINUOUS
10
163.441
20
-129.015
11
163.155
21
-128.872
0
LINE
8
BLACK
6
CONTINUOUS
10
163.155
20
-128.872
11
163.013
21
-128.587
0
LINE
8
BLACK
6
CONTINUOUS
10
163.013
20
-128.587
11
163.013
21
-126.015
0
LINE
8
BLACK
6
CONTINUOUS
10
165.013
20
-129.015
11
164.727
21
-128.872
0
LINE
8
BLACK
6
CONTINUOUS
10
164.727
20
-128.872
11
164.584
21
-128.587
0
LINE
8
BLACK
6
CONTINUOUS
10
164.584
20
-128.587
11
164.584
21
-126.015
0
LINE
8
BLACK
6
CONTINUOUS
10
168.441
20
-129.015
11
168.441
21
-126.015
0
LINE
8
BLACK
6
CONTINUOUS
10
168.441
20
-126.015
11
169.441
21
-128.158
0
LINE
8
BLACK
6
CONTINUOUS
10
169.441
20
-128.158
11
170.441
21
-126.015
0
LINE
8
BLACK
6
CONTINUOUS
10
170.441
20
-126.015
11
170.441
21
-129.015
0
LINE
8
BLACK
6
CONTINUOUS
10
173.155
20
-129.015
11
173.155
21
-127.444
0
LINE
8
BLACK
6
CONTINUOUS
10
173.155
20
-127.444
11
173.013
21
-127.158
0
LINE
8
BLACK
6
CONTINUOUS
10
173.013
20
-127.158
11
172.727
21
-127.015
0
LINE
8
BLACK
6
CONTINUOUS
10
172.727
20
-127.015
11
172.155
21
-127.015
0
LINE
8
BLACK
6
CONTINUOUS
10
172.155
20
-127.015
11
171.87
21
-127.158
0
LINE
8
BLACK
6
CONTINUOUS
10
173.155
20
-128.872
11
172.87
21
-129.015
0
LINE
8
BLACK
6
CONTINUOUS
10
172.87
20
-129.015
11
172.155
21
-129.015
0
LINE
8
BLACK
6
CONTINUOUS
10
172.155
20
-129.015
11
171.87
21
-128.872
0
LINE
8
BLACK
6
CONTINUOUS
10
171.87
20
-128.872
11
171.727
21
-128.587
0
LINE
8
BLACK
6
CONTINUOUS
10
171.727
20
-128.587
11
171.727
21
-128.301
0
LINE
8
BLACK
6
CONTINUOUS
10
171.727
20
-128.301
11
171.87
21
-128.015
0
LINE
8
BLACK
6
CONTINUOUS
10
171.87
20
-128.015
11
172.155
21
-127.872
0
LINE
8
BLACK
6
CONTINUOUS
10
172.155
20
-127.872
11
172.87
21
-127.872
0
LINE
8
BLACK
6
CONTINUOUS
10
172.87
20
-127.872
11
173.155
21
-127.729
0
LINE
8
BLACK
6
CONTINUOUS
10
174.584
20
-127.015
11
174.584
21
-130.015
0
LINE
8
BLACK
6
CONTINUOUS
10
174.584
20
-127.158
11
174.87
21
-127.015
0
LINE
8
BLACK
6
CONTINUOUS
10
174.87
20
-127.015
11
175.441
21
-127.015
0
LINE
8
BLACK
6
CONTINUOUS
10
175.441
20
-127.015
11
175.727
21
-127.158
0
LINE
8
BLACK
6
CONTINUOUS
10
175.727
20
-127.158
11
175.87
21
-127.301
0
LINE
8
BLACK
6
CONTINUOUS
10
175.87
20
-127.301
11
176.013
21
-127.587
0
LINE
8
BLACK
6
CONTINUOUS
10
176.013
20
-127.587
11
176.013
21
-128.444
0
LINE
8
BLACK
6
CONTINUOUS
10
176.013
20
-128.444
11
175.87
21
-128.729
0
LINE
8
BLACK
6
CONTINUOUS
10
175.87
20
-128.729
11
175.727
21
-128.872
0
LINE
8
BLACK
6
CONTINUOUS
10
175.727
20
-128.872
11
175.441
21
-129.015
0
LINE
8
BLACK
6
CONTINUOUS
10
175.441
20
-129.015
11
174.87
21
-129.015
0
LINE
8
BLACK
6
CONTINUOUS
10
174.87
20
-129.015
11
174.584
21
-128.872
0
LINE
8
BLACK
6
CONTINUOUS
10
177.298
20
-128.729
11
177.441
21
-128.872
0
LINE
8
BLACK
6
CONTINUOUS
10
177.441
20
-128.872
11
177.298
21
-129.015
0
LINE
8
BLACK
6
CONTINUOUS
10
177.298
20
-129.015
11
177.155
21
-128.872
0
LINE
8
BLACK
6
CONTINUOUS
10
177.155
20
-128.872
11
177.298
21
-128.729
0
LINE
8
BLACK
6
CONTINUOUS
10
177.298
20
-128.729
11
177.298
21
-129.015
0
LINE
8
BLACK
6
CONTINUOUS
10
177.298
20
-127.158
11
177.441
21
-127.301
0
LINE
8
BLACK
6
CONTINUOUS
10
177.441
20
-127.301
11
177.298
21
-127.444
0
LINE
8
BLACK
6
CONTINUOUS
10
177.298
20
-127.444
11
177.155
21
-127.301
0
LINE
8
BLACK
6
CONTINUOUS
10
177.155
20
-127.301
11
177.298
21
-127.158
0
LINE
8
BLACK
6
CONTINUOUS
10
177.298
20
-127.158
11
177.298
21
-127.444
0
LINE
8
BLACK
6
CONTINUOUS
10
153.063
20
-133.558
11
153.863
21
-134.358
0
LINE
8
BLACK
6
CONTINUOUS
10
153.863
20
-133.558
11
153.063
21
-134.358
0
LINE
8
BLACK
6
CONTINUOUS
10
157.298
20
-132.315
11
157.584
21
-132.315
0
LINE
8
BLACK
6
CONTINUOUS
10
157.584
20
-132.315
11
157.87
21
-132.458
0
LINE
8
BLACK
6
CONTINUOUS
10
157.87
20
-132.458
11
158.013
21
-132.601
0
LINE
8
BLACK
6
CONTINUOUS
10
158.013
20
-132.601
11
158.155
21
-132.887
0
LINE
8
BLACK
6
CONTINUOUS
10
158.155
20
-132.887
11
158.298
21
-133.458
0
LINE
8
BLACK
6
CONTINUOUS
10
158.298
20
-133.458
11
158.298
21
-134.172
0
LINE
8
BLACK
6
CONTINUOUS
10
158.298
20
-134.172
11
158.155
21
-134.744
0
LINE
8
BLACK
6
CONTINUOUS
10
158.155
20
-134.744
11
158.013
21
-135.029
0
LINE
8
BLACK
6
CONTINUOUS
10
158.013
20
-135.029
11
157.87
21
-135.172
0
LINE
8
BLACK
6
CONTINUOUS
10
157.87
20
-135.172
11
157.584
21
-135.315
0
LINE
8
BLACK
6
CONTINUOUS
10
157.584
20
-135.315
11
157.298
21
-135.315
0
LINE
8
BLACK
6
CONTINUOUS
10
157.298
20
-135.315
11
157.013
21
-135.172
0
LINE
8
BLACK
6
CONTINUOUS
10
157.013
20
-135.172
11
156.87
21
-135.029
0
LINE
8
BLACK
6
CONTINUOUS
10
156.87
20
-135.029
11
156.727
21
-134.744
0
LINE
8
BLACK
6
CONTINUOUS
10
156.727
20
-134.744
11
156.584
21
-134.172
0
LINE
8
BLACK
6
CONTINUOUS
10
156.584
20
-134.172
11
156.584
21
-133.458
0
LINE
8
BLACK
6
CONTINUOUS
10
156.584
20
-133.458
11
156.727
21
-132.887
0
LINE
8
BLACK
6
CONTINUOUS
10
156.727
20
-132.887
11
156.87
21
-132.601
0
LINE
8
BLACK
6
CONTINUOUS
10
156.87
20
-132.601
11
157.013
21
-132.458
0
LINE
8
BLACK
6
CONTINUOUS
10
157.013
20
-132.458
11
157.298
21
-132.315
0
LINE
8
BLACK
6
CONTINUOUS
10
159.584
20
-135.029
11
159.727
21
-135.172
0
LINE
8
BLACK
6
CONTINUOUS
10
159.727
20
-135.172
11
159.584
21
-135.315
0
LINE
8
BLACK
6
CONTINUOUS
10
159.584
20
-135.315
11
159.441
21
-135.172
0
LINE
8
BLACK
6
CONTINUOUS
10
159.441
20
-135.172
11
159.584
21
-135.029
0
LINE
8
BLACK
6
CONTINUOUS
10
159.584
20
-135.029
11
159.584
21
-135.315
0
LINE
8
BLACK
6
CONTINUOUS
10
161.441
20
-133.601
11
161.155
21
-133.458
0
LINE
8
BLACK
6
CONTINUOUS
10
161.155
20
-133.458
11
161.013
21
-133.315
0
LINE
8
BLACK
6
CONTINUOUS
10
161.013
20
-133.315
11
160.87
21
-133.029
0
LINE
8
BLACK
6
CONTINUOUS
10
160.87
20
-133.029
11
160.87
21
-132.887
0
LINE
8
BLACK
6
CONTINUOUS
10
160.87
20
-132.887
11
161.013
21
-132.601
0
LINE
8
BLACK
6
CONTINUOUS
10
161.013
20
-132.601
11
161.155
21
-132.458
0
LINE
8
BLACK
6
CONTINUOUS
10
161.155
20
-132.458
11
161.441
21
-132.315
0
LINE
8
BLACK
6
CONTINUOUS
10
161.441
20
-132.315
11
162.013
21
-132.315
0
LINE
8
BLACK
6
CONTINUOUS
10
162.013
20
-132.315
11
162.298
21
-132.458
0
LINE
8
BLACK
6
CONTINUOUS
10
162.298
20
-132.458
11
162.441
21
-132.601
0
LINE
8
BLACK
6
CONTINUOUS
10
162.441
20
-132.601
11
162.584
21
-132.887
0
LINE
8
BLACK
6
CONTINUOUS
10
162.584
20
-132.887
11
162.584
21
-133.029
0
LINE
8
BLACK
6
CONTINUOUS
10
162.584
20
-133.029
11
162.441
21
-133.315
0
LINE
8
BLACK
6
CONTINUOUS
10
162.441
20
-133.315
11
162.298
21
-133.458
0
LINE
8
BLACK
6
CONTINUOUS
10
162.298
20
-133.458
11
162.013
21
-133.601
0
LINE
8
BLACK
6
CONTINUOUS
10
162.013
20
-133.601
11
161.441
21
-133.601
0
LINE
8
BLACK
6
CONTINUOUS
10
161.441
20
-133.601
11
161.155
21
-133.744
0
LINE
8
BLACK
6
CONTINUOUS
10
161.155
20
-133.744
11
161.013
21
-133.887
0
LINE
8
BLACK
6
CONTINUOUS
10
161.013
20
-133.887
11
160.87
21
-134.172
0
LINE
8
BLACK
6
CONTINUOUS
10
160.87
20
-134.172
11
160.87
21
-134.744
0
LINE
8
BLACK
6
CONTINUOUS
10
160.87
20
-134.744
11
161.013
21
-135.029
0
LINE
8
BLACK
6
CONTINUOUS
10
161.013
20
-135.029
11
161.155
21
-135.172
0
LINE
8
BLACK
6
CONTINUOUS
10
161.155
20
-135.172
11
161.441
21
-135.315
0
LINE
8
BLACK
6
CONTINUOUS
10
161.441
20
-135.315
11
162.013
21
-135.315
0
LINE
8
BLACK
6
CONTINUOUS
10
162.013
20
-135.315
11
162.298
21
-135.172
0
LINE
8
BLACK
6
CONTINUOUS
10
162.298
20
-135.172
11
162.441
21
-135.029
0
LINE
8
BLACK
6
CONTINUOUS
10
162.441
20
-135.029
11
162.584
21
-134.744
0
LINE
8
BLACK
6
CONTINUOUS
10
162.584
20
-134.744
11
162.584
21
-134.172
0
LINE
8
BLACK
6
CONTINUOUS
10
162.584
20
-134.172
11
162.441
21
-133.887
0
LINE
8
BLACK
6
CONTINUOUS
10
162.441
20
-133.887
11
162.298
21
-133.744
0
LINE
8
BLACK
6
CONTINUOUS
10
162.298
20
-133.744
11
162.013
21
-133.601
0
LINE
8
BLACK
6
CONTINUOUS
10
164.441
20
-132.315
11
164.727
21
-132.315
0
LINE
8
BLACK
6
CONTINUOUS
10
164.727
20
-132.315
11
165.013
21
-132.458
0
LINE
8
BLACK
6
CONTINUOUS
10
165.013
20
-132.458
11
165.155
21
-132.601
0
LINE
8
BLACK
6
CONTINUOUS
10
165.155
20
-132.601
11
165.298
21
-132.887
0
LINE
8
BLACK
6
CONTINUOUS
10
165.298
20
-132.887
11
165.441
21
-133.458
0
LINE
8
BLACK
6
CONTINUOUS
10
165.441
20
-133.458
11
165.441
21
-134.172
0
LINE
8
BLACK
6
CONTINUOUS
10
165.441
20
-134.172
11
165.298
21
-134.744
0
LINE
8
BLACK
6
CONTINUOUS
10
165.298
20
-134.744
11
165.155
21
-135.029
0
LINE
8
BLACK
6
CONTINUOUS
10
165.155
20
-135.029
11
165.013
21
-135.172
0
LINE
8
BLACK
6
CONTINUOUS
10
165.013
20
-135.172
11
164.727
21
-135.315
0
LINE
8
BLACK
6
CONTINUOUS
10
164.727
20
-135.315
11
164.441
21
-135.315
0
LINE
8
BLACK
6
CONTINUOUS
10
164.441
20
-135.315
11
164.155
21
-135.172
0
LINE
8
BLACK
6
CONTINUOUS
10
164.155
20
-135.172
11
164.013
21
-135.029
0
LINE
8
BLACK
6
CONTINUOUS
10
164.013
20
-135.029
11
163.87
21
-134.744
0
LINE
8
BLACK
6
CONTINUOUS
10
163.87
20
-134.744
11
163.727
21
-134.172
0
LINE
8
BLACK
6
CONTINUOUS
10
163.727
20
-134.172
11
163.727
21
-133.458
0
LINE
8
BLACK
6
CONTINUOUS
10
163.727
20
-133.458
11
163.87
21
-132.887
0
LINE
8
BLACK
6
CONTINUOUS
10
163.87
20
-132.887
11
164.013
21
-132.601
0
LINE
8
BLACK
6
CONTINUOUS
10
164.013
20
-132.601
11
164.155
21
-132.458
0
LINE
8
BLACK
6
CONTINUOUS
10
164.155
20
-132.458
11
164.441
21
-132.315
0
LINE
8
BLACK
6
CONTINUOUS
10
166.727
20
-135.315
11
166.727
21
-133.315
0
LINE
8
BLACK
6
CONTINUOUS
10
166.727
20
-133.601
11
166.87
21
-133.458
0
LINE
8
BLACK
6
CONTINUOUS
10
166.87
20
-133.458
11
167.155
21
-133.315
0
LINE
8
BLACK
6
CONTINUOUS
10
167.155
20
-133.315
11
167.584
21
-133.315
0
LINE
8
BLACK
6
CONTINUOUS
10
167.584
20
-133.315
11
167.87
21
-133.458
0
LINE
8
BLACK
6
CONTINUOUS
10
167.87
20
-133.458
11
168.013
21
-133.744
0
LINE
8
BLACK
6
CONTINUOUS
10
168.013
20
-133.744
11
168.013
21
-135.315
0
LINE
8
BLACK
6
CONTINUOUS
10
168.013
20
-133.744
11
168.155
21
-133.458
0
LINE
8
BLACK
6
CONTINUOUS
10
168.155
20
-133.458
11
168.441
21
-133.315
0
LINE
8
BLACK
6
CONTINUOUS
10
168.441
20
-133.315
11
168.87
21
-133.315
0
LINE
8
BLACK
6
CONTINUOUS
10
168.87
20
-133.315
11
169.155
21
-133.458
0
LINE
8
BLACK
6
CONTINUOUS
10
169.155
20
-133.458
11
169.298
21
-133.744
0
LINE
8
BLACK
6
CONTINUOUS
10
169.298
20
-133.744
11
169.298
21
-135.315
0
LINE
8
BLACK
6
CONTINUOUS
10
170.727
20
-135.315
11
170.727
21
-133.315
0
LINE
8
BLACK
6
CONTINUOUS
10
170.727
20
-133.601
11
170.87
21
-133.458
0
LINE
8
BLACK
6
CONTINUOUS
10
170.87
20
-133.458
11
171.155
21
-133.315
0
LINE
8
BLACK
6
CONTINUOUS
10
171.155
20
-133.315
11
171.584
21
-133.315
0
LINE
8
BLACK
6
CONTINUOUS
10
171.584
20
-133.315
11
171.87
21
-133.458
0
LINE
8
BLACK
6
CONTINUOUS
10
171.87
20
-133.458
11
172.013
21
-133.744
0
LINE
8
BLACK
6
CONTINUOUS
10
172.013
20
-133.744
11
172.013
21
-135.315
0
LINE
8
BLACK
6
CONTINUOUS
10
172.013
20
-133.744
11
172.155
21
-133.458
0
LINE
8
BLACK
6
CONTINUOUS
10
172.155
20
-133.458
11
172.441
21
-133.315
0
LINE
8
BLACK
6
CONTINUOUS
10
172.441
20
-133.315
11
172.87
21
-133.315
0
LINE
8
BLACK
6
CONTINUOUS
10
172.87
20
-133.315
11
173.155
21
-133.458
0
LINE
8
BLACK
6
CONTINUOUS
10
173.155
20
-133.458
11
173.298
21
-133.744
0
LINE
8
BLACK
6
CONTINUOUS
10
173.298
20
-133.744
11
173.298
21
-135.315
0
LINE
8
BLACK
6
CONTINUOUS
10
179.155
20
-132.172
11
176.584
21
-136.029
0
LINE
8
BLACK
6
CONTINUOUS
10
183.013
20
-132.315
11
183.298
21
-132.315
0
LINE
8
BLACK
6
CONTINUOUS
10
183.298
20
-132.315
11
183.584
21
-132.458
0
LINE
8
BLACK
6
CONTINUOUS
10
183.584
20
-132.458
11
183.727
21
-132.601
0
LINE
8
BLACK
6
CONTINUOUS
10
183.727
20
-132.601
11
183.87
21
-132.887
0
LINE
8
BLACK
6
CONTINUOUS
10
183.87
20
-132.887
11
184.013
21
-133.458
0
LINE
8
BLACK
6
CONTINUOUS
10
184.013
20
-133.458
11
184.013
21
-134.172
0
LINE
8
BLACK
6
CONTINUOUS
10
184.013
20
-134.172
11
183.87
21
-134.744
0
LINE
8
BLACK
6
CONTINUOUS
10
183.87
20
-134.744
11
183.727
21
-135.029
0
LINE
8
BLACK
6
CONTINUOUS
10
183.727
20
-135.029
11
183.584
21
-135.172
0
LINE
8
BLACK
6
CONTINUOUS
10
183.584
20
-135.172
11
183.298
21
-135.315
0
LINE
8
BLACK
6
CONTINUOUS
10
183.298
20
-135.315
11
183.013
21
-135.315
0
LINE
8
BLACK
6
CONTINUOUS
10
183.013
20
-135.315
11
182.727
21
-135.172
0
LINE
8
BLACK
6
CONTINUOUS
10
182.727
20
-135.172
11
182.584
21
-135.029
0
LINE
8
BLACK
6
CONTINUOUS
10
182.584
20
-135.029
11
182.441
21
-134.744
0
LINE
8
BLACK
6
CONTINUOUS
10
182.441
20
-134.744
11
182.298
21
-134.172
0
LINE
8
BLACK
6
CONTINUOUS
10
182.298
20
-134.172
11
182.298
21
-133.458
0
LINE
8
BLACK
6
CONTINUOUS
10
182.298
20
-133.458
11
182.441
21
-132.887
0
LINE
8
BLACK
6
CONTINUOUS
10
182.441
20
-132.887
11
182.584
21
-132.601
0
LINE
8
BLACK
6
CONTINUOUS
10
182.584
20
-132.601
11
182.727
21
-132.458
0
LINE
8
BLACK
6
CONTINUOUS
10
182.727
20
-132.458
11
183.013
21
-132.315
0
LINE
8
BLACK
6
CONTINUOUS
10
185.298
20
-135.029
11
185.441
21
-135.172
0
LINE
8
BLACK
6
CONTINUOUS
10
185.441
20
-135.172
11
185.298
21
-135.315
0
LINE
8
BLACK
6
CONTINUOUS
10
185.298
20
-135.315
11
185.155
21
-135.172
0
LINE
8
BLACK
6
CONTINUOUS
10
185.155
20
-135.172
11
185.298
21
-135.029
0
LINE
8
BLACK
6
CONTINUOUS
10
185.298
20
-135.029
11
185.298
21
-135.315
0
LINE
8
BLACK
6
CONTINUOUS
10
187.298
20
-132.315
11
187.584
21
-132.315
0
LINE
8
BLACK
6
CONTINUOUS
10
187.584
20
-132.315
11
187.87
21
-132.458
0
LINE
8
BLACK
6
CONTINUOUS
10
187.87
20
-132.458
11
188.013
21
-132.601
0
LINE
8
BLACK
6
CONTINUOUS
10
188.013
20
-132.601
11
188.155
21
-132.887
0
LINE
8
BLACK
6
CONTINUOUS
10
188.155
20
-132.887
11
188.298
21
-133.458
0
LINE
8
BLACK
6
CONTINUOUS
10
188.298
20
-133.458
11
188.298
21
-134.172
0
LINE
8
BLACK
6
CONTINUOUS
10
188.298
20
-134.172
11
188.155
21
-134.744
0
LINE
8
BLACK
6
CONTINUOUS
10
188.155
20
-134.744
11
188.013
21
-135.029
0
LINE
8
BLACK
6
CONTINUOUS
10
188.013
20
-135.029
11
187.87
21
-135.172
0
LINE
8
BLACK
6
CONTINUOUS
10
187.87
20
-135.172
11
187.584
21
-135.315
0
LINE
8
BLACK
6
CONTINUOUS
10
187.584
20
-135.315
11
187.298
21
-135.315
0
LINE
8
BLACK
6
CONTINUOUS
10
187.298
20
-135.315
11
187.013
21
-135.172
0
LINE
8
BLACK
6
CONTINUOUS
10
187.013
20
-135.172
11
186.87
21
-135.029
0
LINE
8
BLACK
6
CONTINUOUS
10
186.87
20
-135.029
11
186.727
21
-134.744
0
LINE
8
BLACK
6
CONTINUOUS
10
186.727
20
-134.744
11
186.584
21
-134.172
0
LINE
8
BLACK
6
CONTINUOUS
10
186.584
20
-134.172
11
186.584
21
-133.458
0
LINE
8
BLACK
6
CONTINUOUS
10
186.584
20
-133.458
11
186.727
21
-132.887
0
LINE
8
BLACK
6
CONTINUOUS
10
186.727
20
-132.887
11
186.87
21
-132.601
0
LINE
8
BLACK
6
CONTINUOUS
10
186.87
20
-132.601
11
187.013
21
-132.458
0
LINE
8
BLACK
6
CONTINUOUS
10
187.013
20
-132.458
11
187.298
21
-132.315
0
LINE
8
BLACK
6
CONTINUOUS
10
189.298
20
-132.315
11
191.155
21
-132.315
0
LINE
8
BLACK
6
CONTINUOUS
10
191.155
20
-132.315
11
190.155
21
-133.458
0
LINE
8
BLACK
6
CONTINUOUS
10
190.155
20
-133.458
11
190.584
21
-133.458
0
LINE
8
BLACK
6
CONTINUOUS
10
190.584
20
-133.458
11
190.87
21
-133.601
0
LINE
8
BLACK
6
CONTINUOUS
10
190.87
20
-133.601
11
191.013
21
-133.744
0
LINE
8
BLACK
6
CONTINUOUS
10
191.013
20
-133.744
11
191.155
21
-134.029
0
LINE
8
BLACK
6
CONTINUOUS
10
191.155
20
-134.029
11
191.155
21
-134.744
0
LINE
8
BLACK
6
CONTINUOUS
10
191.155
20
-134.744
11
191.013
21
-135.029
0
LINE
8
BLACK
6
CONTINUOUS
10
191.013
20
-135.029
11
190.87
21
-135.172
0
LINE
8
BLACK
6
CONTINUOUS
10
190.87
20
-135.172
11
190.584
21
-135.315
0
LINE
8
BLACK
6
CONTINUOUS
10
190.584
20
-135.315
11
189.727
21
-135.315
0
LINE
8
BLACK
6
CONTINUOUS
10
189.727
20
-135.315
11
189.441
21
-135.172
0
LINE
8
BLACK
6
CONTINUOUS
10
189.441
20
-135.172
11
189.298
21
-135.029
0
LINE
8
BLACK
6
CONTINUOUS
10
194.013
20
-135.315
11
192.298
21
-135.315
0
LINE
8
BLACK
6
CONTINUOUS
10
193.155
20
-135.315
11
193.155
21
-132.315
0
LINE
8
BLACK
6
CONTINUOUS
10
193.155
20
-132.315
11
192.87
21
-132.744
0
LINE
8
BLACK
6
CONTINUOUS
10
192.87
20
-132.744
11
192.584
21
-133.029
0
LINE
8
BLACK
6
CONTINUOUS
10
192.584
20
-133.029
11
192.298
21
-133.172
0
LINE
8
BLACK
6
CONTINUOUS
10
195.155
20
-132.315
11
195.155
21
-132.887
0
LINE
8
BLACK
6
CONTINUOUS
10
196.298
20
-132.315
11
196.298
21
-132.887
0
LINE
8
BLACK
6
CONTINUOUS
10
200.727
20
-136.458
11
200.584
21
-136.315
0
LINE
8
BLACK
6
CONTINUOUS
10
200.584
20
-136.315
11
200.298
21
-135.887
0
LINE
8
BLACK
6
CONTINUOUS
10
200.298
20
-135.887
11
200.155
21
-135.601
0
LINE
8
BLACK
6
CONTINUOUS
10
200.155
20
-135.601
11
200.013
21
-135.172
0
LINE
8
BLACK
6
CONTINUOUS
10
200.013
20
-135.172
11
199.87
21
-134.458
0
LINE
8
BLACK
6
CONTINUOUS
10
199.87
20
-134.458
11
199.87
21
-133.887
0
LINE
8
BLACK
6
CONTINUOUS
10
199.87
20
-133.887
11
200.013
21
-133.172
0
LINE
8
BLACK
6
CONTINUOUS
10
200.013
20
-133.172
11
200.155
21
-132.744
0
LINE
8
BLACK
6
CONTINUOUS
10
200.155
20
-132.744
11
200.298
21
-132.458
0
LINE
8
BLACK
6
CONTINUOUS
10
200.298
20
-132.458
11
200.584
21
-132.029
0
LINE
8
BLACK
6
CONTINUOUS
10
200.584
20
-132.029
11
200.727
21
-131.887
0
LINE
8
BLACK
6
CONTINUOUS
10
201.727
20
-132.601
11
201.87
21
-132.458
0
LINE
8
BLACK
6
CONTINUOUS
10
201.87
20
-132.458
11
202.155
21
-132.315
0
LINE
8
BLACK
6
CONTINUOUS
10
202.155
20
-132.315
11
202.87
21
-132.315
0
LINE
8
BLACK
6
CONTINUOUS
10
202.87
20
-132.315
11
203.155
21
-132.458
0
LINE
8
BLACK
6
CONTINUOUS
10
203.155
20
-132.458
11
203.298
21
-132.601
0
LINE
8
BLACK
6
CONTINUOUS
10
203.298
20
-132.601
11
203.441
21
-132.887
0
LINE
8
BLACK
6
CONTINUOUS
10
203.441
20
-132.887
11
203.441
21
-133.172
0
LINE
8
BLACK
6
CONTINUOUS
10
203.441
20
-133.172
11
203.298
21
-133.601
0
LINE
8
BLACK
6
CONTINUOUS
10
203.298
20
-133.601
11
201.584
21
-135.315
0
LINE
8
BLACK
6
CONTINUOUS
10
201.584
20
-135.315
11
203.441
21
-135.315
0
LINE
8
BLACK
6
CONTINUOUS
10
204.87
20
-135.315
11
205.441
21
-135.315
0
LINE
8
BLACK
6
CONTINUOUS
10
205.441
20
-135.315
11
205.727
21
-135.172
0
LINE
8
BLACK
6
CONTINUOUS
10
205.727
20
-135.172
11
205.87
21
-135.029
0
LINE
8
BLACK
6
CONTINUOUS
10
205.87
20
-135.029
11
206.155
21
-134.601
0
LINE
8
BLACK
6
CONTINUOUS
10
206.155
20
-134.601
11
206.298
21
-134.029
0
LINE
8
BLACK
6
CONTINUOUS
10
206.298
20
-134.029
11
206.298
21
-132.887
0
LINE
8
BLACK
6
CONTINUOUS
10
206.298
20
-132.887
11
206.155
21
-132.601
0
LINE
8
BLACK
6
CONTINUOUS
10
206.155
20
-132.601
11
206.013
21
-132.458
0
LINE
8
BLACK
6
CONTINUOUS
10
206.013
20
-132.458
11
205.727
21
-132.315
0
LINE
8
BLACK
6
CONTINUOUS
10
205.727
20
-132.315
11
205.155
21
-132.315
0
LINE
8
BLACK
6
CONTINUOUS
10
205.155
20
-132.315
11
204.87
21
-132.458
0
LINE
8
BLACK
6
CONTINUOUS
10
204.87
20
-132.458
11
204.727
21
-132.601
0
LINE
8
BLACK
6
CONTINUOUS
10
204.727
20
-132.601
11
204.584
21
-132.887
0
LINE
8
BLACK
6
CONTINUOUS
10
204.584
20
-132.887
11
204.584
21
-133.601
0
LINE
8
BLACK
6
CONTINUOUS
10
204.584
20
-133.601
11
204.727
21
-133.887
0
LINE
8
BLACK
6
CONTINUOUS
10
204.727
20
-133.887
11
204.87
21
-134.029
0
LINE
8
BLACK
6
CONTINUOUS
10
204.87
20
-134.029
11
205.155
21
-134.172
0
LINE
8
BLACK
6
CONTINUOUS
10
205.155
20
-134.172
11
205.727
21
-134.172
0
LINE
8
BLACK
6
CONTINUOUS
10
205.727
20
-134.172
11
206.013
21
-134.029
0
LINE
8
BLACK
6
CONTINUOUS
10
206.013
20
-134.029
11
206.155
21
-133.887
0
LINE
8
BLACK
6
CONTINUOUS
10
206.155
20
-133.887
11
206.298
21
-133.601
0
LINE
8
BLACK
6
CONTINUOUS
10
209.87
20
-135.315
11
209.87
21
-132.315
0
LINE
8
BLACK
6
CONTINUOUS
10
211.155
20
-135.315
11
211.155
21
-133.744
0
LINE
8
BLACK
6
CONTINUOUS
10
211.155
20
-133.744
11
211.013
21
-133.458
0
LINE
8
BLACK
6
CONTINUOUS
10
211.013
20
-133.458
11
210.727
21
-133.315
0
LINE
8
BLACK
6
CONTINUOUS
10
210.727
20
-133.315
11
210.298
21
-133.315
0
LINE
8
BLACK
6
CONTINUOUS
10
210.298
20
-133.315
11
210.013
21
-133.458
0
LINE
8
BLACK
6
CONTINUOUS
10
210.013
20
-133.458
11
209.87
21
-133.601
0
LINE
8
BLACK
6
CONTINUOUS
10
213.013
20
-135.315
11
212.727
21
-135.172
0
LINE
8
BLACK
6
CONTINUOUS
10
212.727
20
-135.172
11
212.584
21
-135.029
0
LINE
8
BLACK
6
CONTINUOUS
10
212.584
20
-135.029
11
212.441
21
-134.744
0
LINE
8
BLACK
6
CONTINUOUS
10
212.441
20
-134.744
11
212.441
21
-133.887
0
LINE
8
BLACK
6
CONTINUOUS
10
212.441
20
-133.887
11
212.584
21
-133.601
0
LINE
8
BLACK
6
CONTINUOUS
10
212.584
20
-133.601
11
212.727
21
-133.458
0
LINE
8
BLACK
6
CONTINUOUS
10
212.727
20
-133.458
11
213.013
21
-133.315
0
LINE
8
BLACK
6
CONTINUOUS
10
213.013
20
-133.315
11
213.441
21
-133.315
0
LINE
8
BLACK
6
CONTINUOUS
10
213.441
20
-133.315
11
213.727
21
-133.458
0
LINE
8
BLACK
6
CONTINUOUS
10
213.727
20
-133.458
11
213.87
21
-133.601
0
LINE
8
BLACK
6
CONTINUOUS
10
213.87
20
-133.601
11
214.013
21
-133.887
0
LINE
8
BLACK
6
CONTINUOUS
10
214.013
20
-133.887
11
214.013
21
-134.744
0
LINE
8
BLACK
6
CONTINUOUS
10
214.013
20
-134.744
11
213.87
21
-135.029
0
LINE
8
BLACK
6
CONTINUOUS
10
213.87
20
-135.029
11
213.727
21
-135.172
0
LINE
8
BLACK
6
CONTINUOUS
10
213.727
20
-135.172
11
213.441
21
-135.315
0
LINE
8
BLACK
6
CONTINUOUS
10
213.441
20
-135.315
11
213.013
21
-135.315
0
LINE
8
BLACK
6
CONTINUOUS
10
215.727
20
-135.315
11
215.441
21
-135.172
0
LINE
8
BLACK
6
CONTINUOUS
10
215.441
20
-135.172
11
215.298
21
-134.887
0
LINE
8
BLACK
6
CONTINUOUS
10
215.298
20
-134.887
11
215.298
21
-132.315
0
LINE
8
BLACK
6
CONTINUOUS
10
218.013
20
-135.172
11
217.727
21
-135.315
0
LINE
8
BLACK
6
CONTINUOUS
10
217.727
20
-135.315
11
217.155
21
-135.315
0
LINE
8
BLACK
6
CONTINUOUS
10
217.155
20
-135.315
11
216.87
21
-135.172
0
LINE
8
BLACK
6
CONTINUOUS
10
216.87
20
-135.172
11
216.727
21
-134.887
0
LINE
8
BLACK
6
CONTINUOUS
10
216.727
20
-134.887
11
216.727
21
-133.744
0
LINE
8
BLACK
6
CONTINUOUS
10
216.727
20
-133.744
11
216.87
21
-133.458
0
LINE
8
BLACK
6
CONTINUOUS
10
216.87
20
-133.458
11
217.155
21
-133.315
0
LINE
8
BLACK
6
CONTINUOUS
10
217.155
20
-133.315
11
217.727
21
-133.315
0
LINE
8
BLACK
6
CONTINUOUS
10
217.727
20
-133.315
11
218.013
21
-133.458
0
LINE
8
BLACK
6
CONTINUOUS
10
218.013
20
-133.458
11
218.155
21
-133.744
0
LINE
8
BLACK
6
CONTINUOUS
10
218.155
20
-133.744
11
218.155
21
-134.029
0
LINE
8
BLACK
6
CONTINUOUS
10
218.155
20
-134.029
11
216.727
21
-134.315
0
LINE
8
BLACK
6
CONTINUOUS
10
219.298
20
-135.172
11
219.584
21
-135.315
0
LINE
8
BLACK
6
CONTINUOUS
10
219.584
20
-135.315
11
220.155
21
-135.315
0
LINE
8
BLACK
6
CONTINUOUS
10
220.155
20
-135.315
11
220.441
21
-135.172
0
LINE
8
BLACK
6
CONTINUOUS
10
220.441
20
-135.172
11
220.584
21
-134.887
0
LINE
8
BLACK
6
CONTINUOUS
10
220.584
20
-134.887
11
220.584
21
-134.744
0
LINE
8
BLACK
6
CONTINUOUS
10
220.584
20
-134.744
11
220.441
21
-134.458
0
LINE
8
BLACK
6
CONTINUOUS
10
220.441
20
-134.458
11
220.155
21
-134.315
0
LINE
8
BLACK
6
CONTINUOUS
10
220.155
20
-134.315
11
219.727
21
-134.315
0
LINE
8
BLACK
6
CONTINUOUS
10
219.727
20
-134.315
11
219.441
21
-134.172
0
LINE
8
BLACK
6
CONTINUOUS
10
219.441
20
-134.172
11
219.298
21
-133.887
0
LINE
8
BLACK
6
CONTINUOUS
10
219.298
20
-133.887
11
219.298
21
-133.744
0
LINE
8
BLACK
6
CONTINUOUS
10
219.298
20
-133.744
11
219.441
21
-133.458
0
LINE
8
BLACK
6
CONTINUOUS
10
219.441
20
-133.458
11
219.727
21
-133.315
0
LINE
8
BLACK
6
CONTINUOUS
10
219.727
20
-133.315
11
220.155
21
-133.315
0
LINE
8
BLACK
6
CONTINUOUS
10
220.155
20
-133.315
11
220.441
21
-133.458
0
LINE
8
BLACK
6
CONTINUOUS
10
221.584
20
-136.458
11
221.727
21
-136.315
0
LINE
8
BLACK
6
CONTINUOUS
10
221.727
20
-136.315
11
222.013
21
-135.887
0
LINE
8
BLACK
6
CONTINUOUS
10
222.013
20
-135.887
11
222.155
21
-135.601
0
LINE
8
BLACK
6
CONTINUOUS
10
222.155
20
-135.601
11
222.298
21
-135.172
0
LINE
8
BLACK
6
CONTINUOUS
10
222.298
20
-135.172
11
222.441
21
-134.458
0
LINE
8
BLACK
6
CONTINUOUS
10
222.441
20
-134.458
11
222.441
21
-133.887
0
LINE
8
BLACK
6
CONTINUOUS
10
222.441
20
-133.887
11
222.298
21
-133.172
0
LINE
8
BLACK
6
CONTINUOUS
10
222.298
20
-133.172
11
222.155
21
-132.744
0
LINE
8
BLACK
6
CONTINUOUS
10
222.155
20
-132.744
11
222.013
21
-132.458
0
LINE
8
BLACK
6
CONTINUOUS
10
222.013
20
-132.458
11
221.727
21
-132.029
0
LINE
8
BLACK
6
CONTINUOUS
10
221.727
20
-132.029
11
221.584
21
-131.887
0
CIRCLE
8
BLACK
10
153.363
20
-137.918
40
0.5
0
LINE
8
BLACK
6
CONTINUOUS
10
158.298
20
-139.275
11
156.584
21
-139.275
0
LINE
8
BLACK
6
CONTINUOUS
10
157.441
20
-139.275
11
157.441
21
-136.275
0
LINE
8
BLACK
6
CONTINUOUS
10
157.441
20
-136.275
11
157.155
21
-136.704
0
LINE
8
BLACK
6
CONTINUOUS
10
157.155
20
-136.704
11
156.87
21
-136.989
0
LINE
8
BLACK
6
CONTINUOUS
10
156.87
20
-136.989
11
156.584
21
-137.132
0
LINE
8
BLACK
6
CONTINUOUS
10
159.584
20
-138.989
11
159.727
21
-139.132
0
LINE
8
BLACK
6
CONTINUOUS
10
159.727
20
-139.132
11
159.584
21
-139.275
0
LINE
8
BLACK
6
CONTINUOUS
10
159.584
20
-139.275
11
159.441
21
-139.132
0
LINE
8
BLACK
6
CONTINUOUS
10
159.441
20
-139.132
11
159.584
21
-138.989
0
LINE
8
BLACK
6
CONTINUOUS
10
159.584
20
-138.989
11
159.584
21
-139.275
0
LINE
8
BLACK
6
CONTINUOUS
10
161.584
20
-136.275
11
161.87
21
-136.275
0
LINE
8
BLACK
6
CONTINUOUS
10
161.87
20
-136.275
11
162.155
21
-136.418
0
LINE
8
BLACK
6
CONTINUOUS
10
162.155
20
-136.418
11
162.298
21
-136.561
0
LINE
8
BLACK
6
CONTINUOUS
10
162.298
20
-136.561
11
162.441
21
-136.847
0
LINE
8
BLACK
6
CONTINUOUS
10
162.441
20
-136.847
11
162.584
21
-137.418
0
LINE
8
BLACK
6
CONTINUOUS
10
162.584
20
-137.418
11
162.584
21
-138.132
0
LINE
8
BLACK
6
CONTINUOUS
10
162.584
20
-138.132
11
162.441
21
-138.704
0
LINE
8
BLACK
6
CONTINUOUS
10
162.441
20
-138.704
11
162.298
21
-138.989
0
LINE
8
BLACK
6
CONTINUOUS
10
162.298
20
-138.989
11
162.155
21
-139.132
0
LINE
8
BLACK
6
CONTINUOUS
10
162.155
20
-139.132
11
161.87
21
-139.275
0
LINE
8
BLACK
6
CONTINUOUS
10
161.87
20
-139.275
11
161.584
21
-139.275
0
LINE
8
BLACK
6
CONTINUOUS
10
161.584
20
-139.275
11
161.298
21
-139.132
0
LINE
8
BLACK
6
CONTINUOUS
10
161.298
20
-139.132
11
161.155
21
-138.989
0
LINE
8
BLACK
6
CONTINUOUS
10
161.155
20
-138.989
11
161.013
21
-138.704
0
LINE
8
BLACK
6
CONTINUOUS
10
161.013
20
-138.704
11
160.87
21
-138.132
0
LINE
8
BLACK
6
CONTINUOUS
10
160.87
20
-138.132
11
160.87
21
-137.418
0
LINE
8
BLACK
6
CONTINUOUS
10
160.87
20
-137.418
11
161.013
21
-136.847
0
LINE
8
BLACK
6
CONTINUOUS
10
161.013
20
-136.847
11
161.155
21
-136.561
0
LINE
8
BLACK
6
CONTINUOUS
10
161.155
20
-136.561
11
161.298
21
-136.418
0
LINE
8
BLACK
6
CONTINUOUS
10
161.298
20
-136.418
11
161.584
21
-136.275
0
LINE
8
BLACK
6
CONTINUOUS
10
164.441
20
-136.275
11
164.727
21
-136.275
0
LINE
8
BLACK
6
CONTINUOUS
10
164.727
20
-136.275
11
165.013
21
-136.418
0
LINE
8
BLACK
6
CONTINUOUS
10
165.013
20
-136.418
11
165.155
21
-136.561
0
LINE
8
BLACK
6
CONTINUOUS
10
165.155
20
-136.561
11
165.298
21
-136.847
0
LINE
8
BLACK
6
CONTINUOUS
10
165.298
20
-136.847
11
165.441
21
-137.418
0
LINE
8
BLACK
6
CONTINUOUS
10
165.441
20
-137.418
11
165.441
21
-138.132
0
LINE
8
BLACK
6
CONTINUOUS
10
165.441
20
-138.132
11
165.298
21
-138.704
0
LINE
8
BLACK
6
CONTINUOUS
10
165.298
20
-138.704
11
165.155
21
-138.989
0
LINE
8
BLACK
6
CONTINUOUS
10
165.155
20
-138.989
11
165.013
21
-139.132
0
LINE
8
BLACK
6
CONTINUOUS
10
165.013
20
-139.132
11
164.727
21
-139.275
0
LINE
8
BLACK
6
CONTINUOUS
10
164.727
20
-139.275
11
164.441
21
-139.275
0
LINE
8
BLACK
6
CONTINUOUS
10
164.441
20
-139.275
11
164.155
21
-139.132
0
LINE
8
BLACK
6
CONTINUOUS
10
164.155
20
-139.132
11
164.013
21
-138.989
0
LINE
8
BLACK
6
CONTINUOUS
10
164.013
20
-138.989
11
163.87
21
-138.704
0
LINE
8
BLACK
6
CONTINUOUS
10
163.87
20
-138.704
11
163.727
21
-138.132
0
LINE
8
BLACK
6
CONTINUOUS
10
163.727
20
-138.132
11
163.727
21
-137.418
0
LINE
8
BLACK
6
CONTINUOUS
10
163.727
20
-137.418
11
163.87
21
-136.847
0
LINE
8
BLACK
6
CONTINUOUS
10
163.87
20
-136.847
11
164.013
21
-136.561
0
LINE
8
BLACK
6
CONTINUOUS
10
164.013
20
-136.561
11
164.155
21
-136.418
0
LINE
8
BLACK
6
CONTINUOUS
10
164.155
20
-136.418
11
164.441
21
-136.275
0
LINE
8
BLACK
6
CONTINUOUS
10
166.727
20
-139.275
11
166.727
21
-137.275
0
LINE
8
BLACK
6
CONTINUOUS
10
166.727
20
-137.561
11
166.87
21
-137.418
0
LINE
8
BLACK
6
CONTINUOUS
10
166.87
20
-137.418
11
167.155
21
-137.275
0
LINE
8
BLACK
6
CONTINUOUS
10
167.155
20
-137.275
11
167.584
21
-137.275
0
LINE
8
BLACK
6
CONTINUOUS
10
167.584
20
-137.275
11
167.87
21
-137.418
0
LINE
8
BLACK
6
CONTINUOUS
10
167.87
20
-137.418
11
168.013
21
-137.704
0
LINE
8
BLACK
6
CONTINUOUS
10
168.013
20
-137.704
11
168.013
21
-139.275
0
LINE
8
BLACK
6
CONTINUOUS
10
168.013
20
-137.704
11
168.155
21
-137.418
0
LINE
8
BLACK
6
CONTINUOUS
10
168.155
20
-137.418
11
168.441
21
-137.275
0
LINE
8
BLACK
6
CONTINUOUS
10
168.441
20
-137.275
11
168.87
21
-137.275
0
LINE
8
BLACK
6
CONTINUOUS
10
168.87
20
-137.275
11
169.155
21
-137.418
0
LINE
8
BLACK
6
CONTINUOUS
10
169.155
20
-137.418
11
169.298
21
-137.704
0
LINE
8
BLACK
6
CONTINUOUS
10
169.298
20
-137.704
11
169.298
21
-139.275
0
LINE
8
BLACK
6
CONTINUOUS
10
170.727
20
-139.275
11
170.727
21
-137.275
0
LINE
8
BLACK
6
CONTINUOUS
10
170.727
20
-137.561
11
170.87
21
-137.418
0
LINE
8
BLACK
6
CONTINUOUS
10
170.87
20
-137.418
11
171.155
21
-137.275
0
LINE
8
BLACK
6
CONTINUOUS
10
171.155
20
-137.275
11
171.584
21
-137.275
0
LINE
8
BLACK
6
CONTINUOUS
10
171.584
20
-137.275
11
171.87
21
-137.418
0
LINE
8
BLACK
6
CONTINUOUS
10
171.87
20
-137.418
11
172.013
21
-137.704
0
LINE
8
BLACK
6
CONTINUOUS
10
172.013
20
-137.704
11
172.013
21
-139.275
0
LINE
8
BLACK
6
CONTINUOUS
10
172.013
20
-137.704
11
172.155
21
-137.418
0
LINE
8
BLACK
6
CONTINUOUS
10
172.155
20
-137.418
11
172.441
21
-137.275
0
LINE
8
BLACK
6
CONTINUOUS
10
172.441
20
-137.275
11
172.87
21
-137.275
0
LINE
8
BLACK
6
CONTINUOUS
10
172.87
20
-137.275
11
173.155
21
-137.418
0
LINE
8
BLACK
6
CONTINUOUS
10
173.155
20
-137.418
11
173.298
21
-137.704
0
LINE
8
BLACK
6
CONTINUOUS
10
173.298
20
-137.704
11
173.298
21
-139.275
0
LINE
8
BLACK
6
CONTINUOUS
10
179.155
20
-136.132
11
176.584
21
-139.989
0
LINE
8
BLACK
6
CONTINUOUS
10
183.013
20
-136.275
11
183.298
21
-136.275
0
LINE
8
BLACK
6
CONTINUOUS
10
183.298
20
-136.275
11
183.584
21
-136.418
0
LINE
8
BLACK
6
CONTINUOUS
10
183.584
20
-136.418
11
183.727
21
-136.561
0
LINE
8
BLACK
6
CONTINUOUS
10
183.727
20
-136.561
11
183.87
21
-136.847
0
LINE
8
BLACK
6
CONTINUOUS
10
183.87
20
-136.847
11
184.013
21
-137.418
0
LINE
8
BLACK
6
CONTINUOUS
10
184.013
20
-137.418
11
184.013
21
-138.132
0
LINE
8
BLACK
6
CONTINUOUS
10
184.013
20
-138.132
11
183.87
21
-138.704
0
LINE
8
BLACK
6
CONTINUOUS
10
183.87
20
-138.704
11
183.727
21
-138.989
0
LINE
8
BLACK
6
CONTINUOUS
10
183.727
20
-138.989
11
183.584
21
-139.132
0
LINE
8
BLACK
6
CONTINUOUS
10
183.584
20
-139.132
11
183.298
21
-139.275
0
LINE
8
BLACK
6
CONTINUOUS
10
183.298
20
-139.275
11
183.013
21
-139.275
0
LINE
8
BLACK
6
CONTINUOUS
10
183.013
20
-139.275
11
182.727
21
-139.132
0
LINE
8
BLACK
6
CONTINUOUS
10
182.727
20
-139.132
11
182.584
21
-138.989
0
LINE
8
BLACK
6
CONTINUOUS
10
182.584
20
-138.989
11
182.441
21
-138.704
0
LINE
8
BLACK
6
CONTINUOUS
10
182.441
20
-138.704
11
182.298
21
-138.132
0
LINE
8
BLACK
6
CONTINUOUS
10
182.298
20
-138.132
11
182.298
21
-137.418
0
LINE
8
BLACK
6
CONTINUOUS
10
182.298
20
-137.418
11
182.441
21
-136.847
0
LINE
8
BLACK
6
CONTINUOUS
10
182.441
20
-136.847
11
182.584
21
-136.561
0
LINE
8
BLACK
6
CONTINUOUS
10
182.584
20
-136.561
11
182.727
21
-136.418
0
LINE
8
BLACK
6
CONTINUOUS
10
182.727
20
-136.418
11
183.013
21
-136.275
0
LINE
8
BLACK
6
CONTINUOUS
10
185.298
20
-138.989
11
185.441
21
-139.132
0
LINE
8
BLACK
6
CONTINUOUS
10
185.441
20
-139.132
11
185.298
21
-139.275
0
LINE
8
BLACK
6
CONTINUOUS
10
185.298
20
-139.275
11
185.155
21
-139.132
0
LINE
8
BLACK
6
CONTINUOUS
10
185.155
20
-139.132
11
185.298
21
-138.989
0
LINE
8
BLACK
6
CONTINUOUS
10
185.298
20
-138.989
11
185.298
21
-139.275
0
LINE
8
BLACK
6
CONTINUOUS
10
187.298
20
-136.275
11
187.584
21
-136.275
0
LINE
8
BLACK
6
CONTINUOUS
10
187.584
20
-136.275
11
187.87
21
-136.418
0
LINE
8
BLACK
6
CONTINUOUS
10
187.87
20
-136.418
11
188.013
21
-136.561
0
LINE
8
BLACK
6
CONTINUOUS
10
188.013
20
-136.561
11
188.155
21
-136.847
0
LINE
8
BLACK
6
CONTINUOUS
10
188.155
20
-136.847
11
188.298
21
-137.418
0
LINE
8
BLACK
6
CONTINUOUS
10
188.298
20
-137.418
11
188.298
21
-138.132
0
LINE
8
BLACK
6
CONTINUOUS
10
188.298
20
-138.132
11
188.155
21
-138.704
0
LINE
8
BLACK
6
CONTINUOUS
10
188.155
20
-138.704
11
188.013
21
-138.989
0
LINE
8
BLACK
6
CONTINUOUS
10
188.013
20
-138.989
11
187.87
21
-139.132
0
LINE
8
BLACK
6
CONTINUOUS
10
187.87
20
-139.132
11
187.584
21
-139.275
0
LINE
8
BLACK
6
CONTINUOUS
10
187.584
20
-139.275
11
187.298
21
-139.275
0
LINE
8
BLACK
6
CONTINUOUS
10
187.298
20
-139.275
11
187.013
21
-139.132
0
LINE
8
BLACK
6
CONTINUOUS
10
187.013
20
-139.132
11
186.87
21
-138.989
0
LINE
8
BLACK
6
CONTINUOUS
10
186.87
20
-138.989
11
186.727
21
-138.704
0
LINE
8
BLACK
6
CONTINUOUS
10
186.727
20
-138.704
11
186.584
21
-138.132
0
LINE
8
BLACK
6
CONTINUOUS
10
186.584
20
-138.132
11
186.584
21
-137.418
0
LINE
8
BLACK
6
CONTINUOUS
10
186.584
20
-137.418
11
186.727
21
-136.847
0
LINE
8
BLACK
6
CONTINUOUS
10
186.727
20
-136.847
11
186.87
21
-136.561
0
LINE
8
BLACK
6
CONTINUOUS
10
186.87
20
-136.561
11
187.013
21
-136.418
0
LINE
8
BLACK
6
CONTINUOUS
10
187.013
20
-136.418
11
187.298
21
-136.275
0
LINE
8
BLACK
6
CONTINUOUS
10
189.298
20
-136.275
11
191.155
21
-136.275
0
LINE
8
BLACK
6
CONTINUOUS
10
191.155
20
-136.275
11
190.155
21
-137.418
0
LINE
8
BLACK
6
CONTINUOUS
10
190.155
20
-137.418
11
190.584
21
-137.418
0
LINE
8
BLACK
6
CONTINUOUS
10
190.584
20
-137.418
11
190.87
21
-137.561
0
LINE
8
BLACK
6
CONTINUOUS
10
190.87
20
-137.561
11
191.013
21
-137.704
0
LINE
8
BLACK
6
CONTINUOUS
10
191.013
20
-137.704
11
191.155
21
-137.989
0
LINE
8
BLACK
6
CONTINUOUS
10
191.155
20
-137.989
11
191.155
21
-138.704
0
LINE
8
BLACK
6
CONTINUOUS
10
191.155
20
-138.704
11
191.013
21
-138.989
0
LINE
8
BLACK
6
CONTINUOUS
10
191.013
20
-138.989
11
190.87
21
-139.132
0
LINE
8
BLACK
6
CONTINUOUS
10
190.87
20
-139.132
11
190.584
21
-139.275
0
LINE
8
BLACK
6
CONTINUOUS
10
190.584
20
-139.275
11
189.727
21
-139.275
0
LINE
8
BLACK
6
CONTINUOUS
10
189.727
20
-139.275
11
189.441
21
-139.132
0
LINE
8
BLACK
6
CONTINUOUS
10
189.441
20
-139.132
11
189.298
21
-138.989
0
LINE
8
BLACK
6
CONTINUOUS
10
192.584
20
-139.275
11
193.155
21
-139.275
0
LINE
8
BLACK
6
CONTINUOUS
10
193.155
20
-139.275
11
193.441
21
-139.132
0
LINE
8
BLACK
6
CONTINUOUS
10
193.441
20
-139.132
11
193.584
21
-138.989
0
LINE
8
BLACK
6
CONTINUOUS
10
193.584
20
-138.989
11
193.87
21
-138.561
0
LINE
8
BLACK
6
CONTINUOUS
10
193.87
20
-138.561
11
194.013
21
-137.989
0
LINE
8
BLACK
6
CONTINUOUS
10
194.013
20
-137.989
11
194.013
21
-136.847
0
LINE
8
BLACK
6
CONTINUOUS
10
194.013
20
-136.847
11
193.87
21
-136.561
0
LINE
8
BLACK
6
CONTINUOUS
10
193.87
20
-136.561
11
193.727
21
-136.418
0
LINE
8
BLACK
6
CONTINUOUS
10
193.727
20
-136.418
11
193.441
21
-136.275
0
LINE
8
BLACK
6
CONTINUOUS
10
193.441
20
-136.275
11
192.87
21
-136.275
0
LINE
8
BLACK
6
CONTINUOUS
10
192.87
20
-136.275
11
192.584
21
-136.418
0
LINE
8
BLACK
6
CONTINUOUS
10
192.584
20
-136.418
11
192.441
21
-136.561
0
LINE
8
BLACK
6
CONTINUOUS
10
192.441
20
-136.561
11
192.298
21
-136.847
0
LINE
8
BLACK
6
CONTINUOUS
10
192.298
20
-136.847
11
192.298
21
-137.561
0
LINE
8
BLACK
6
CONTINUOUS
10
192.298
20
-137.561
11
192.441
21
-137.847
0
LINE
8
BLACK
6
CONTINUOUS
10
192.441
20
-137.847
11
192.584
21
-137.989
0
LINE
8
BLACK
6
CONTINUOUS
10
192.584
20
-137.989
11
192.87
21
-138.132
0
LINE
8
BLACK
6
CONTINUOUS
10
192.87
20
-138.132
11
193.441
21
-138.132
0
LINE
8
BLACK
6
CONTINUOUS
10
193.441
20
-138.132
11
193.727
21
-137.989
0
LINE
8
BLACK
6
CONTINUOUS
10
193.727
20
-137.989
11
193.87
21
-137.847
0
LINE
8
BLACK
6
CONTINUOUS
10
193.87
20
-137.847
11
194.013
21
-137.561
0
LINE
8
BLACK
6
CONTINUOUS
10
195.155
20
-136.275
11
195.155
21
-136.847
0
LINE
8
BLACK
6
CONTINUOUS
10
196.298
20
-136.275
11
196.298
21
-136.847
0
LINE
8
BLACK
6
CONTINUOUS
10
200.727
20
-140.418
11
200.584
21
-140.275
0
LINE
8
BLACK
6
CONTINUOUS
10
200.584
20
-140.275
11
200.298
21
-139.847
0
LINE
8
BLACK
6
CONTINUOUS
10
200.298
20
-139.847
11
200.155
21
-139.561
0
LINE
8
BLACK
6
CONTINUOUS
10
200.155
20
-139.561
11
200.013
21
-139.132
0
LINE
8
BLACK
6
CONTINUOUS
10
200.013
20
-139.132
11
199.87
21
-138.418
0
LINE
8
BLACK
6
CONTINUOUS
10
199.87
20
-138.418
11
199.87
21
-137.847
0
LINE
8
BLACK
6
CONTINUOUS
10
199.87
20
-137.847
11
200.013
21
-137.132
0
LINE
8
BLACK
6
CONTINUOUS
10
200.013
20
-137.132
11
200.155
21
-136.704
0
LINE
8
BLACK
6
CONTINUOUS
10
200.155
20
-136.704
11
200.298
21
-136.418
0
LINE
8
BLACK
6
CONTINUOUS
10
200.298
20
-136.418
11
200.584
21
-135.989
0
LINE
8
BLACK
6
CONTINUOUS
10
200.584
20
-135.989
11
200.727
21
-135.847
0
LINE
8
BLACK
6
CONTINUOUS
10
203.441
20
-139.275
11
201.727
21
-139.275
0
LINE
8
BLACK
6
CONTINUOUS
10
202.584
20
-139.275
11
202.584
21
-136.275
0
LINE
8
BLACK
6
CONTINUOUS
10
202.584
20
-136.275
11
202.298
21
-136.704
0
LINE
8
BLACK
6
CONTINUOUS
10
202.298
20
-136.704
11
202.013
21
-136.989
0
LINE
8
BLACK
6
CONTINUOUS
10
202.013
20
-136.989
11
201.727
21
-137.132
0
LINE
8
BLACK
6
CONTINUOUS
10
204.584
20
-136.561
11
204.727
21
-136.418
0
LINE
8
BLACK
6
CONTINUOUS
10
204.727
20
-136.418
11
205.013
21
-136.275
0
LINE
8
BLACK
6
CONTINUOUS
10
205.013
20
-136.275
11
205.727
21
-136.275
0
LINE
8
BLACK
6
CONTINUOUS
10
205.727
20
-136.275
11
206.013
21
-136.418
0
LINE
8
BLACK
6
CONTINUOUS
10
206.013
20
-136.418
11
206.155
21
-136.561
0
LINE
8
BLACK
6
CONTINUOUS
10
206.155
20
-136.561
11
206.298
21
-136.847
0
LINE
8
BLACK
6
CONTINUOUS
10
206.298
20
-136.847
11
206.298
21
-137.132
0
LINE
8
BLACK
6
CONTINUOUS
10
206.298
20
-137.132
11
206.155
21
-137.561
0
LINE
8
BLACK
6
CONTINUOUS
10
206.155
20
-137.561
11
204.441
21
-139.275
0
LINE
8
BLACK
6
CONTINUOUS
10
204.441
20
-139.275
11
206.298
21
-139.275
0
LINE
8
BLACK
6
CONTINUOUS
10
209.87
20
-139.275
11
209.87
21
-136.275
0
LINE
8
BLACK
6
CONTINUOUS
10
211.155
20
-139.275
11
211.155
21
-137.704
0
LINE
8
BLACK
6
CONTINUOUS
10
211.155
20
-137.704
11
211.013
21
-137.418
0
LINE
8
BLACK
6
CONTINUOUS
10
211.013
20
-137.418
11
210.727
21
-137.275
0
LINE
8
BLACK
6
CONTINUOUS
10
210.727
20
-137.275
11
210.298
21
-137.275
0
LINE
8
BLACK
6
CONTINUOUS
10
210.298
20
-137.275
11
210.013
21
-137.418
0
LINE
8
BLACK
6
CONTINUOUS
10
210.013
20
-137.418
11
209.87
21
-137.561
0
LINE
8
BLACK
6
CONTINUOUS
10
213.013
20
-139.275
11
212.727
21
-139.132
0
LINE
8
BLACK
6
CONTINUOUS
10
212.727
20
-139.132
11
212.584
21
-138.989
0
LINE
8
BLACK
6
CONTINUOUS
10
212.584
20
-138.989
11
212.441
21
-138.704
0
LINE
8
BLACK
6
CONTINUOUS
10
212.441
20
-138.704
11
212.441
21
-137.847
0
LINE
8
BLACK
6
CONTINUOUS
10
212.441
20
-137.847
11
212.584
21
-137.561
0
LINE
8
BLACK
6
CONTINUOUS
10
212.584
20
-137.561
11
212.727
21
-137.418
0
LINE
8
BLACK
6
CONTINUOUS
10
212.727
20
-137.418
11
213.013
21
-137.275
0
LINE
8
BLACK
6
CONTINUOUS
10
213.013
20
-137.275
11
213.441
21
-137.275
0
LINE
8
BLACK
6
CONTINUOUS
10
213.441
20
-137.275
11
213.727
21
-137.418
0
LINE
8
BLACK
6
CONTINUOUS
10
213.727
20
-137.418
11
213.87
21
-137.561
0
LINE
8
BLACK
6
CONTINUOUS
10
213.87
20
-137.561
11
214.013
21
-137.847
0
LINE
8
BLACK
6
CONTINUOUS
10
214.013
20
-137.847
11
214.013
21
-138.704
0
LINE
8
BLACK
6
CONTINUOUS
10
214.013
20
-138.704
11
213.87
21
-138.989
0
LINE
8
BLACK
6
CONTINUOUS
10
213.87
20
-138.989
11
213.727
21
-139.132
0
LINE
8
BLACK
6
CONTINUOUS
10
213.727
20
-139.132
11
213.441
21
-139.275
0
LINE
8
BLACK
6
CONTINUOUS
10
213.441
20
-139.275
11
213.013
21
-139.275
0
LINE
8
BLACK
6
CONTINUOUS
10
215.727
20
-139.275
11
215.441
21
-139.132
0
LINE
8
BLACK
6
CONTINUOUS
10
215.441
20
-139.132
11
215.298
21
-138.847
0
LINE
8
BLACK
6
CONTINUOUS
10
215.298
20
-138.847
11
215.298
21
-136.275
0
LINE
8
BLACK
6
CONTINUOUS
10
218.013
20
-139.132
11
217.727
21
-139.275
0
LINE
8
BLACK
6
CONTINUOUS
10
217.727
20
-139.275
11
217.155
21
-139.275
0
LINE
8
BLACK
6
CONTINUOUS
10
217.155
20
-139.275
11
216.87
21
-139.132
0
LINE
8
BLACK
6
CONTINUOUS
10
216.87
20
-139.132
11
216.727
21
-138.847
0
LINE
8
BLACK
6
CONTINUOUS
10
216.727
20
-138.847
11
216.727
21
-137.704
0
LINE
8
BLACK
6
CONTINUOUS
10
216.727
20
-137.704
11
216.87
21
-137.418
0
LINE
8
BLACK
6
CONTINUOUS
10
216.87
20
-137.418
11
217.155
21
-137.275
0
LINE
8
BLACK
6
CONTINUOUS
10
217.155
20
-137.275
11
217.727
21
-137.275
0
LINE
8
BLACK
6
CONTINUOUS
10
217.727
20
-137.275
11
218.013
21
-137.418
0
LINE
8
BLACK
6
CONTINUOUS
10
218.013
20
-137.418
11
218.155
21
-137.704
0
LINE
8
BLACK
6
CONTINUOUS
10
218.155
20
-137.704
11
218.155
21
-137.989
0
LINE
8
BLACK
6
CONTINUOUS
10
218.155
20
-137.989
11
216.727
21
-138.275
0
LINE
8
BLACK
6
CONTINUOUS
10
219.298
20
-139.132
11
219.584
21
-139.275
0
LINE
8
BLACK
6
CONTINUOUS
10
219.584
20
-139.275
11
220.155
21
-139.275
0
LINE
8
BLACK
6
CONTINUOUS
10
220.155
20
-139.275
11
220.441
21
-139.132
0
LINE
8
BLACK
6
CONTINUOUS
10
220.441
20
-139.132
11
220.584
21
-138.847
0
LINE
8
BLACK
6
CONTINUOUS
10
220.584
20
-138.847
11
220.584
21
-138.704
0
LINE
8
BLACK
6
CONTINUOUS
10
220.584
20
-138.704
11
220.441
21
-138.418
0
LINE
8
BLACK
6
CONTINUOUS
10
220.441
20
-138.418
11
220.155
21
-138.275
0
LINE
8
BLACK
6
CONTINUOUS
10
220.155
20
-138.275
11
219.727
21
-138.275
0
LINE
8
BLACK
6
CONTINUOUS
10
219.727
20
-138.275
11
219.441
21
-138.132
0
LINE
8
BLACK
6
CONTINUOUS
10
219.441
20
-138.132
11
219.298
21
-137.847
0
LINE
8
BLACK
6
CONTINUOUS
10
219.298
20
-137.847
11
219.298
21
-137.704
0
LINE
8
BLACK
6
CONTINUOUS
10
219.298
20
-137.704
11
219.441
21
-137.418
0
LINE
8
BLACK
6
CONTINUOUS
10
219.441
20
-137.418
11
219.727
21
-137.275
0
LINE
8
BLACK
6
CONTINUOUS
10
219.727
20
-137.275
11
220.155
21
-137.275
0
LINE
8
BLACK
6
CONTINUOUS
10
220.155
20
-137.275
11
220.441
21
-137.418
0
LINE
8
BLACK
6
CONTINUOUS
10
221.584
20
-140.418
11
221.727
21
-140.275
0
LINE
8
BLACK
6
CONTINUOUS
10
221.727
20
-140.275
11
222.013
21
-139.847
0
LINE
8
BLACK
6
CONTINUOUS
10
222.013
20
-139.847
11
222.155
21
-139.561
0
LINE
8
BLACK
6
CONTINUOUS
10
222.155
20
-139.561
11
222.298
21
-139.132
0
LINE
8
BLACK
6
CONTINUOUS
10
222.298
20
-139.132
11
222.441
21
-138.418
0
LINE
8
BLACK
6
CONTINUOUS
10
222.441
20
-138.418
11
222.441
21
-137.847
0
LINE
8
BLACK
6
CONTINUOUS
10
222.441
20
-137.847
11
222.298
21
-137.132
0
LINE
8
BLACK
6
CONTINUOUS
10
222.298
20
-137.132
11
222.155
21
-136.704
0
LINE
8
BLACK
6
CONTINUOUS
10
222.155
20
-136.704
11
222.013
21
-136.418
0
LINE
8
BLACK
6
CONTINUOUS
10
222.013
20
-136.418
11
221.727
21
-135.989
0
LINE
8
BLACK
6
CONTINUOUS
10
221.727
20
-135.989
11
221.584
21
-135.847
0
LINE
8
BLACK
6
CONTINUOUS
10
153.304
20
-141.319
11
153.304
21
-142.437
0
LINE
8
BLACK
6
CONTINUOUS
10
152.745
20
-141.878
11
153.863
21
-141.878
0
LINE
8
BLACK
6
CONTINUOUS
10
158.298
20
-143.235
11
156.584
21
-143.235
0
LINE
8
BLACK
6
CONTINUOUS
10
157.441
20
-143.235
11
157.441
21
-140.235
0
LINE
8
BLACK
6
CONTINUOUS
10
157.441
20
-140.235
11
157.155
21
-140.664
0
LINE
8
BLACK
6
CONTINUOUS
10
157.155
20
-140.664
11
156.87
21
-140.949
0
LINE
8
BLACK
6
CONTINUOUS
10
156.87
20
-140.949
11
156.584
21
-141.092
0
LINE
8
BLACK
6
CONTINUOUS
10
159.584
20
-142.949
11
159.727
21
-143.092
0
LINE
8
BLACK
6
CONTINUOUS
10
159.727
20
-143.092
11
159.584
21
-143.235
0
LINE
8
BLACK
6
CONTINUOUS
10
159.584
20
-143.235
11
159.441
21
-143.092
0
LINE
8
BLACK
6
CONTINUOUS
10
159.441
20
-143.092
11
159.584
21
-142.949
0
LINE
8
BLACK
6
CONTINUOUS
10
159.584
20
-142.949
11
159.584
21
-143.235
0
LINE
8
BLACK
6
CONTINUOUS
10
162.584
20
-143.235
11
160.87
21
-143.235
0
LINE
8
BLACK
6
CONTINUOUS
10
161.727
20
-143.235
11
161.727
21
-140.235
0
LINE
8
BLACK
6
CONTINUOUS
10
161.727
20
-140.235
11
161.441
21
-140.664
0
LINE
8
BLACK
6
CONTINUOUS
10
161.441
20
-140.664
11
161.155
21
-140.949
0
LINE
8
BLACK
6
CONTINUOUS
10
161.155
20
-140.949
11
160.87
21
-141.092
0
LINE
8
BLACK
6
CONTINUOUS
10
163.727
20
-140.521
11
163.87
21
-140.378
0
LINE
8
BLACK
6
CONTINUOUS
10
163.87
20
-140.378
11
164.155
21
-140.235
0
LINE
8
BLACK
6
CONTINUOUS
10
164.155
20
-140.235
11
164.87
21
-140.235
0
LINE
8
BLACK
6
CONTINUOUS
10
164.87
20
-140.235
11
165.155
21
-140.378
0
LINE
8
BLACK
6
CONTINUOUS
10
165.155
20
-140.378
11
165.298
21
-140.521
0
LINE
8
BLACK
6
CONTINUOUS
10
165.298
20
-140.521
11
165.441
21
-140.807
0
LINE
8
BLACK
6
CONTINUOUS
10
165.441
20
-140.807
11
165.441
21
-141.092
0
LINE
8
BLACK
6
CONTINUOUS
10
165.441
20
-141.092
11
165.298
21
-141.521
0
LINE
8
BLACK
6
CONTINUOUS
10
165.298
20
-141.521
11
163.584
21
-143.235
0
LINE
8
BLACK
6
CONTINUOUS
10
163.584
20
-143.235
11
165.441
21
-143.235
0
LINE
8
BLACK
6
CONTINUOUS
10
166.727
20
-143.235
11
166.727
21
-141.235
0
LINE
8
BLACK
6
CONTINUOUS
10
166.727
20
-141.521
11
166.87
21
-141.378
0
LINE
8
BLACK
6
CONTINUOUS
10
166.87
20
-141.378
11
167.155
21
-141.235
0
LINE
8
BLACK
6
CONTINUOUS
10
167.155
20
-141.235
11
167.584
21
-141.235
0
LINE
8
BLACK
6
CONTINUOUS
10
167.584
20
-141.235
11
167.87
21
-141.378
0
LINE
8
BLACK
6
CONTINUOUS
10
167.87
20
-141.378
11
168.013
21
-141.664
0
LINE
8
BLACK
6
CONTINUOUS
10
168.013
20
-141.664
11
168.013
21
-143.235
0
LINE
8
BLACK
6
CONTINUOUS
10
168.013
20
-141.664
11
168.155
21
-141.378
0
LINE
8
BLACK
6
CONTINUOUS
10
168.155
20
-141.378
11
168.441
21
-141.235
0
LINE
8
BLACK
6
CONTINUOUS
10
168.441
20
-141.235
11
168.87
21
-141.235
0
LINE
8
BLACK
6
CONTINUOUS
10
168.87
20
-141.235
11
169.155
21
-141.378
0
LINE
8
BLACK
6
CONTINUOUS
10
169.155
20
-141.378
11
169.298
21
-141.664
0
LINE
8
BLACK
6
CONTINUOUS
10
169.298
20
-141.664
11
169.298
21
-143.235
0
LINE
8
BLACK
6
CONTINUOUS
10
170.727
20
-143.235
11
170.727
21
-141.235
0
LINE
8
BLACK
6
CONTINUOUS
10
170.727
20
-141.521
11
170.87
21
-141.378
0
LINE
8
BLACK
6
CONTINUOUS
10
170.87
20
-141.378
11
171.155
21
-141.235
0
LINE
8
BLACK
6
CONTINUOUS
10
171.155
20
-141.235
11
171.584
21
-141.235
0
LINE
8
BLACK
6
CONTINUOUS
10
171.584
20
-141.235
11
171.87
21
-141.378
0
LINE
8
BLACK
6
CONTINUOUS
10
171.87
20
-141.378
11
172.013
21
-141.664
0
LINE
8
BLACK
6
CONTINUOUS
10
172.013
20
-141.664
11
172.013
21
-143.235
0
LINE
8
BLACK
6
CONTINUOUS
10
172.013
20
-141.664
11
172.155
21
-141.378
0
LINE
8
BLACK
6
CONTINUOUS
10
172.155
20
-141.378
11
172.441
21
-141.235
0
LINE
8
BLACK
6
CONTINUOUS
10
172.441
20
-141.235
11
172.87
21
-141.235
0
LINE
8
BLACK
6
CONTINUOUS
10
172.87
20
-141.235
11
173.155
21
-141.378
0
LINE
8
BLACK
6
CONTINUOUS
10
173.155
20
-141.378
11
173.298
21
-141.664
0
LINE
8
BLACK
6
CONTINUOUS
10
173.298
20
-141.664
11
173.298
21
-143.235
0
LINE
8
BLACK
6
CONTINUOUS
10
179.155
20
-140.092
11
176.584
21
-143.949
0
LINE
8
BLACK
6
CONTINUOUS
10
183.013
20
-140.235
11
183.298
21
-140.235
0
LINE
8
BLACK
6
CONTINUOUS
10
183.298
20
-140.235
11
183.584
21
-140.378
0
LINE
8
BLACK
6
CONTINUOUS
10
183.584
20
-140.378
11
183.727
21
-140.521
0
LINE
8
BLACK
6
CONTINUOUS
10
183.727
20
-140.521
11
183.87
21
-140.807
0
LINE
8
BLACK
6
CONTINUOUS
10
183.87
20
-140.807
11
184.013
21
-141.378
0
LINE
8
BLACK
6
CONTINUOUS
10
184.013
20
-141.378
11
184.013
21
-142.092
0
LINE
8
BLACK
6
CONTINUOUS
10
184.013
20
-142.092
11
183.87
21
-142.664
0
LINE
8
BLACK
6
CONTINUOUS
10
183.87
20
-142.664
11
183.727
21
-142.949
0
LINE
8
BLACK
6
CONTINUOUS
10
183.727
20
-142.949
11
183.584
21
-143.092
0
LINE
8
BLACK
6
CONTINUOUS
10
183.584
20
-143.092
11
183.298
21
-143.235
0
LINE
8
BLACK
6
CONTINUOUS
10
183.298
20
-143.235
11
183.013
21
-143.235
0
LINE
8
BLACK
6
CONTINUOUS
10
183.013
20
-143.235
11
182.727
21
-143.092
0
LINE
8
BLACK
6
CONTINUOUS
10
182.727
20
-143.092
11
182.584
21
-142.949
0
LINE
8
BLACK
6
CONTINUOUS
10
182.584
20
-142.949
11
182.441
21
-142.664
0
LINE
8
BLACK
6
CONTINUOUS
10
182.441
20
-142.664
11
182.298
21
-142.092
0
LINE
8
BLACK
6
CONTINUOUS
10
182.298
20
-142.092
11
182.298
21
-141.378
0
LINE
8
BLACK
6
CONTINUOUS
10
182.298
20
-141.378
11
182.441
21
-140.807
0
LINE
8
BLACK
6
CONTINUOUS
10
182.441
20
-140.807
11
182.584
21
-140.521
0
LINE
8
BLACK
6
CONTINUOUS
10
182.584
20
-140.521
11
182.727
21
-140.378
0
LINE
8
BLACK
6
CONTINUOUS
10
182.727
20
-140.378
11
183.013
21
-140.235
0
LINE
8
BLACK
6
CONTINUOUS
10
185.298
20
-142.949
11
185.441
21
-143.092
0
LINE
8
BLACK
6
CONTINUOUS
10
185.441
20
-143.092
11
185.298
21
-143.235
0
LINE
8
BLACK
6
CONTINUOUS
10
185.298
20
-143.235
11
185.155
21
-143.092
0
LINE
8
BLACK
6
CONTINUOUS
10
185.155
20
-143.092
11
185.298
21
-142.949
0
LINE
8
BLACK
6
CONTINUOUS
10
185.298
20
-142.949
11
185.298
21
-143.235
0
LINE
8
BLACK
6
CONTINUOUS
10
187.298
20
-140.235
11
187.584
21
-140.235
0
LINE
8
BLACK
6
CONTINUOUS
10
187.584
20
-140.235
11
187.87
21
-140.378
0
LINE
8
BLACK
6
CONTINUOUS
10
187.87
20
-140.378
11
188.013
21
-140.521
0
LINE
8
BLACK
6
CONTINUOUS
10
188.013
20
-140.521
11
188.155
21
-140.807
0
LINE
8
BLACK
6
CONTINUOUS
10
188.155
20
-140.807
11
188.298
21
-141.378
0
LINE
8
BLACK
6
CONTINUOUS
10
188.298
20
-141.378
11
188.298
21
-142.092
0
LINE
8
BLACK
6
CONTINUOUS
10
188.298
20
-142.092
11
188.155
21
-142.664
0
LINE
8
BLACK
6
CONTINUOUS
10
188.155
20
-142.664
11
188.013
21
-142.949
0
LINE
8
BLACK
6
CONTINUOUS
10
188.013
20
-142.949
11
187.87
21
-143.092
0
LINE
8
BLACK
6
CONTINUOUS
10
187.87
20
-143.092
11
187.584
21
-143.235
0
LINE
8
BLACK
6
CONTINUOUS
10
187.584
20
-143.235
11
187.298
21
-143.235
0
LINE
8
BLACK
6
CONTINUOUS
10
187.298
20
-143.235
11
187.013
21
-143.092
0
LINE
8
BLACK
6
CONTINUOUS
10
187.013
20
-143.092
11
186.87
21
-142.949
0
LINE
8
BLACK
6
CONTINUOUS
10
186.87
20
-142.949
11
186.727
21
-142.664
0
LINE
8
BLACK
6
CONTINUOUS
10
186.727
20
-142.664
11
186.584
21
-142.092
0
LINE
8
BLACK
6
CONTINUOUS
10
186.584
20
-142.092
11
186.584
21
-141.378
0
LINE
8
BLACK
6
CONTINUOUS
10
186.584
20
-141.378
11
186.727
21
-140.807
0
LINE
8
BLACK
6
CONTINUOUS
10
186.727
20
-140.807
11
186.87
21
-140.521
0
LINE
8
BLACK
6
CONTINUOUS
10
186.87
20
-140.521
11
187.013
21
-140.378
0
LINE
8
BLACK
6
CONTINUOUS
10
187.013
20
-140.378
11
187.298
21
-140.235
0
LINE
8
BLACK
6
CONTINUOUS
10
190.87
20
-141.235
11
190.87
21
-143.235
0
LINE
8
BLACK
6
CONTINUOUS
10
190.155
20
-140.092
11
189.441
21
-142.235
0
LINE
8
BLACK
6
CONTINUOUS
10
189.441
20
-142.235
11
191.298
21
-142.235
0
LINE
8
BLACK
6
CONTINUOUS
10
193.727
20
-141.235
11
193.727
21
-143.235
0
LINE
8
BLACK
6
CONTINUOUS
10
193.013
20
-140.092
11
192.298
21
-142.235
0
LINE
8
BLACK
6
CONTINUOUS
10
192.298
20
-142.235
11
194.155
21
-142.235
0
LINE
8
BLACK
6
CONTINUOUS
10
195.155
20
-140.235
11
195.155
21
-140.807
0
LINE
8
BLACK
6
CONTINUOUS
10
196.298
20
-140.235
11
196.298
21
-140.807
0
LINE
8
BLACK
6
CONTINUOUS
10
200.727
20
-144.378
11
200.584
21
-144.235
0
LINE
8
BLACK
6
CONTINUOUS
10
200.584
20
-144.235
11
200.298
21
-143.807
0
LINE
8
BLACK
6
CONTINUOUS
10
200.298
20
-143.807
11
200.155
21
-143.521
0
LINE
8
BLACK
6
CONTINUOUS
10
200.155
20
-143.521
11
200.013
21
-143.092
0
LINE
8
BLACK
6
CONTINUOUS
10
200.013
20
-143.092
11
199.87
21
-142.378
0
LINE
8
BLACK
6
CONTINUOUS
10
199.87
20
-142.378
11
199.87
21
-141.807
0
LINE
8
BLACK
6
CONTINUOUS
10
199.87
20
-141.807
11
200.013
21
-141.092
0
LINE
8
BLACK
6
CONTINUOUS
10
200.013
20
-141.092
11
200.155
21
-140.664
0
LINE
8
BLACK
6
CONTINUOUS
10
200.155
20
-140.664
11
200.298
21
-140.378
0
LINE
8
BLACK
6
CONTINUOUS
10
200.298
20
-140.378
11
200.584
21
-139.949
0
LINE
8
BLACK
6
CONTINUOUS
10
200.584
20
-139.949
11
200.727
21
-139.807
0
LINE
8
BLACK
6
CONTINUOUS
10
203.441
20
-143.235
11
201.727
21
-143.235
0
LINE
8
BLACK
6
CONTINUOUS
10
202.584
20
-143.235
11
202.584
21
-140.235
0
LINE
8
BLACK
6
CONTINUOUS
10
202.584
20
-140.235
11
202.298
21
-140.664
0
LINE
8
BLACK
6
CONTINUOUS
10
202.298
20
-140.664
11
202.013
21
-140.949
0
LINE
8
BLACK
6
CONTINUOUS
10
202.013
20
-140.949
11
201.727
21
-141.092
0
LINE
8
BLACK
6
CONTINUOUS
10
206.013
20
-140.235
11
205.441
21
-140.235
0
LINE
8
BLACK
6
CONTINUOUS
10
205.441
20
-140.235
11
205.155
21
-140.378
0
LINE
8
BLACK
6
CONTINUOUS
10
205.155
20
-140.378
11
205.013
21
-140.521
0
LINE
8
BLACK
6
CONTINUOUS
10
205.013
20
-140.521
11
204.727
21
-140.949
0
LINE
8
BLACK
6
CONTINUOUS
10
204.727
20
-140.949
11
204.584
21
-141.521
0
LINE
8
BLACK
6
CONTINUOUS
10
204.584
20
-141.521
11
204.584
21
-142.664
0
LINE
8
BLACK
6
CONTINUOUS
10
204.584
20
-142.664
11
204.727
21
-142.949
0
LINE
8
BLACK
6
CONTINUOUS
10
204.727
20
-142.949
11
204.87
21
-143.092
0
LINE
8
BLACK
6
CONTINUOUS
10
204.87
20
-143.092
11
205.155
21
-143.235
0
LINE
8
BLACK
6
CONTINUOUS
10
205.155
20
-143.235
11
205.727
21
-143.235
0
LINE
8
BLACK
6
CONTINUOUS
10
205.727
20
-143.235
11
206.013
21
-143.092
0
LINE
8
BLACK
6
CONTINUOUS
10
206.013
20
-143.092
11
206.155
21
-142.949
0
LINE
8
BLACK
6
CONTINUOUS
10
206.155
20
-142.949
11
206.298
21
-142.664
0
LINE
8
BLACK
6
CONTINUOUS
10
206.298
20
-142.664
11
206.298
21
-141.949
0
LINE
8
BLACK
6
CONTINUOUS
10
206.298
20
-141.949
11
206.155
21
-141.664
0
LINE
8
BLACK
6
CONTINUOUS
10
206.155
20
-141.664
11
206.013
21
-141.521
0
LINE
8
BLACK
6
CONTINUOUS
10
206.013
20
-141.521
11
205.727
21
-141.378
0
LINE
8
BLACK
6
CONTINUOUS
10
205.727
20
-141.378
11
205.155
21
-141.378
0
LINE
8
BLACK
6
CONTINUOUS
10
205.155
20
-141.378
11
204.87
21
-141.521
0
LINE
8
BLACK
6
CONTINUOUS
10
204.87
20
-141.521
11
204.727
21
-141.664
0
LINE
8
BLACK
6
CONTINUOUS
10
204.727
20
-141.664
11
204.584
21
-141.949
0
LINE
8
BLACK
6
CONTINUOUS
10
209.87
20
-143.235
11
209.87
21
-140.235
0
LINE
8
BLACK
6
CONTINUOUS
10
211.155
20
-143.235
11
211.155
21
-141.664
0
LINE
8
BLACK
6
CONTINUOUS
10
211.155
20
-141.664
11
211.013
21
-141.378
0
LINE
8
BLACK
6
CONTINUOUS
10
211.013
20
-141.378
11
210.727
21
-141.235
0
LINE
8
BLACK
6
CONTINUOUS
10
210.727
20
-141.235
11
210.298
21
-141.235
0
LINE
8
BLACK
6
CONTINUOUS
10
210.298
20
-141.235
11
210.013
21
-141.378
0
LINE
8
BLACK
6
CONTINUOUS
10
210.013
20
-141.378
11
209.87
21
-141.521
0
LINE
8
BLACK
6
CONTINUOUS
10
213.013
20
-143.235
11
212.727
21
-143.092
0
LINE
8
BLACK
6
CONTINUOUS
10
212.727
20
-143.092
11
212.584
21
-142.949
0
LINE
8
BLACK
6
CONTINUOUS
10
212.584
20
-142.949
11
212.441
21
-142.664
0
LINE
8
BLACK
6
CONTINUOUS
10
212.441
20
-142.664
11
212.441
21
-141.807
0
LINE
8
BLACK
6
CONTINUOUS
10
212.441
20
-141.807
11
212.584
21
-141.521
0
LINE
8
BLACK
6
CONTINUOUS
10
212.584
20
-141.521
11
212.727
21
-141.378
0
LINE
8
BLACK
6
CONTINUOUS
10
212.727
20
-141.378
11
213.013
21
-141.235
0
LINE
8
BLACK
6
CONTINUOUS
10
213.013
20
-141.235
11
213.441
21
-141.235
0
LINE
8
BLACK
6
CONTINUOUS
10
213.441
20
-141.235
11
213.727
21
-141.378
0
LINE
8
BLACK
6
CONTINUOUS
10
213.727
20
-141.378
11
213.87
21
-141.521
0
LINE
8
BLACK
6
CONTINUOUS
10
213.87
20
-141.521
11
214.013
21
-141.807
0
LINE
8
BLACK
6
CONTINUOUS
10
214.013
20
-141.807
11
214.013
21
-142.664
0
LINE
8
BLACK
6
CONTINUOUS
10
214.013
20
-142.664
11
213.87
21
-142.949
0
LINE
8
BLACK
6
CONTINUOUS
10
213.87
20
-142.949
11
213.727
21
-143.092
0
LINE
8
BLACK
6
CONTINUOUS
10
213.727
20
-143.092
11
213.441
21
-143.235
0
LINE
8
BLACK
6
CONTINUOUS
10
213.441
20
-143.235
11
213.013
21
-143.235
0
LINE
8
BLACK
6
CONTINUOUS
10
215.727
20
-143.235
11
215.441
21
-143.092
0
LINE
8
BLACK
6
CONTINUOUS
10
215.441
20
-143.092
11
215.298
21
-142.807
0
LINE
8
BLACK
6
CONTINUOUS
10
215.298
20
-142.807
11
215.298
21
-140.235
0
LINE
8
BLACK
6
CONTINUOUS
10
218.013
20
-143.092
11
217.727
21
-143.235
0
LINE
8
BLACK
6
CONTINUOUS
10
217.727
20
-143.235
11
217.155
21
-143.235
0
LINE
8
BLACK
6
CONTINUOUS
10
217.155
20
-143.235
11
216.87
21
-143.092
0
LINE
8
BLACK
6
CONTINUOUS
10
216.87
20
-143.092
11
216.727
21
-142.807
0
LINE
8
BLACK
6
CONTINUOUS
10
216.727
20
-142.807
11
216.727
21
-141.664
0
LINE
8
BLACK
6
CONTINUOUS
10
216.727
20
-141.664
11
216.87
21
-141.378
0
LINE
8
BLACK
6
CONTINUOUS
10
216.87
20
-141.378
11
217.155
21
-141.235
0
LINE
8
BLACK
6
CONTINUOUS
10
217.155
20
-141.235
11
217.727
21
-141.235
0
LINE
8
BLACK
6
CONTINUOUS
10
217.727
20
-141.235
11
218.013
21
-141.378
0
LINE
8
BLACK
6
CONTINUOUS
10
218.013
20
-141.378
11
218.155
21
-141.664
0
LINE
8
BLACK
6
CONTINUOUS
10
218.155
20
-141.664
11
218.155
21
-141.949
0
LINE
8
BLACK
6
CONTINUOUS
10
218.155
20
-141.949
11
216.727
21
-142.235
0
LINE
8
BLACK
6
CONTINUOUS
10
219.298
20
-143.092
11
219.584
21
-143.235
0
LINE
8
BLACK
6
CONTINUOUS
10
219.584
20
-143.235
11
220.155
21
-143.235
0
LINE
8
BLACK
6
CONTINUOUS
10
220.155
20
-143.235
11
220.441
21
-143.092
0
LINE
8
BLACK
6
CONTINUOUS
10
220.441
20
-143.092
11
220.584
21
-142.807
0
LINE
8
BLACK
6
CONTINUOUS
10
220.584
20
-142.807
11
220.584
21
-142.664
0
LINE
8
BLACK
6
CONTINUOUS
10
220.584
20
-142.664
11
220.441
21
-142.378
0
LINE
8
BLACK
6
CONTINUOUS
10
220.441
20
-142.378
11
220.155
21
-142.235
0
LINE
8
BLACK
6
CONTINUOUS
10
220.155
20
-142.235
11
219.727
21
-142.235
0
LINE
8
BLACK
6
CONTINUOUS
10
219.727
20
-142.235
11
219.441
21
-142.092
0
LINE
8
BLACK
6
CONTINUOUS
10
219.441
20
-142.092
11
219.298
21
-141.807
0
LINE
8
BLACK
6
CONTINUOUS
10
219.298
20
-141.807
11
219.298
21
-141.664
0
LINE
8
BLACK
6
CONTINUOUS
10
219.298
20
-141.664
11
219.441
21
-141.378
0
LINE
8
BLACK
6
CONTINUOUS
10
219.441
20
-141.378
11
219.727
21
-141.235
0
LINE
8
BLACK
6
CONTINUOUS
10
219.727
20
-141.235
11
220.155
21
-141.235
0
LINE
8
BLACK
6
CONTINUOUS
10
220.155
20
-141.235
11
220.441
21
-141.378
0
LINE
8
BLACK
6
CONTINUOUS
10
221.584
20
-144.378
11
221.727
21
-144.235
0
LINE
8
BLACK
6
CONTINUOUS
10
221.727
20
-144.235
11
222.013
21
-143.807
0
LINE
8
BLACK
6
CONTINUOUS
10
222.013
20
-143.807
11
222.155
21
-143.521
0
LINE
8
BLACK
6
CONTINUOUS
10
222.155
20
-143.521
11
222.298
21
-143.092
0
LINE
8
BLACK
6
CONTINUOUS
10
222.298
20
-143.092
11
222.441
21
-142.378
0
LINE
8
BLACK
6
CONTINUOUS
10
222.441
20
-142.378
11
222.441
21
-141.807
0
LINE
8
BLACK
6
CONTINUOUS
10
222.441
20
-141.807
11
222.298
21
-141.092
0
LINE
8
BLACK
6
CONTINUOUS
10
222.298
20
-141.092
11
222.155
21
-140.664
0
LINE
8
BLACK
6
CONTINUOUS
10
222.155
20
-140.664
11
222.013
21
-140.378
0
LINE
8
BLACK
6
CONTINUOUS
10
222.013
20
-140.378
11
221.727
21
-139.949
0
LINE
8
BLACK
6
CONTINUOUS
10
221.727
20
-139.949
11
221.584
21
-139.807
0
LINE
8
BLACK
6
CONTINUOUS
10
153.68
20
-146.28
11
153.68
21
-145.396
0
LINE
8
BLACK
6
CONTINUOUS
10
153.68
20
-145.396
11
152.796
21
-145.396
0
LINE
8
BLACK
6
CONTINUOUS
10
152.796
20
-145.396
11
152.796
21
-146.28
0
LINE
8
BLACK
6
CONTINUOUS
10
152.796
20
-146.28
11
153.68
21
-146.28
0
LINE
8
BLACK
6
CONTINUOUS
10
158.298
20
-147.195
11
156.584
21
-147.195
0
LINE
8
BLACK
6
CONTINUOUS
10
157.441
20
-147.195
11
157.441
21
-144.195
0
LINE
8
BLACK
6
CONTINUOUS
10
157.441
20
-144.195
11
157.155
21
-144.624
0
LINE
8
BLACK
6
CONTINUOUS
10
157.155
20
-144.624
11
156.87
21
-144.909
0
LINE
8
BLACK
6
CONTINUOUS
10
156.87
20
-144.909
11
156.584
21
-145.052
0
LINE
8
BLACK
6
CONTINUOUS
10
159.584
20
-146.909
11
159.727
21
-147.052
0
LINE
8
BLACK
6
CONTINUOUS
10
159.727
20
-147.052
11
159.584
21
-147.195
0
LINE
8
BLACK
6
CONTINUOUS
10
159.584
20
-147.195
11
159.441
21
-147.052
0
LINE
8
BLACK
6
CONTINUOUS
10
159.441
20
-147.052
11
159.584
21
-146.909
0
LINE
8
BLACK
6
CONTINUOUS
10
159.584
20
-146.909
11
159.584
21
-147.195
0
LINE
8
BLACK
6
CONTINUOUS
10
160.87
20
-144.481
11
161.013
21
-144.338
0
LINE
8
BLACK
6
CONTINUOUS
10
161.013
20
-144.338
11
161.298
21
-144.195
0
LINE
8
BLACK
6
CONTINUOUS
10
161.298
20
-144.195
11
162.013
21
-144.195
0
LINE
8
BLACK
6
CONTINUOUS
10
162.013
20
-144.195
11
162.298
21
-144.338
0
LINE
8
BLACK
6
CONTINUOUS
10
162.298
20
-144.338
11
162.441
21
-144.481
0
LINE
8
BLACK
6
CONTINUOUS
10
162.441
20
-144.481
11
162.584
21
-144.767
0
LINE
8
BLACK
6
CONTINUOUS
10
162.584
20
-144.767
11
162.584
21
-145.052
0
LINE
8
BLACK
6
CONTINUOUS
10
162.584
20
-145.052
11
162.441
21
-145.481
0
LINE
8
BLACK
6
CONTINUOUS
10
162.441
20
-145.481
11
160.727
21
-147.195
0
LINE
8
BLACK
6
CONTINUOUS
10
160.727
20
-147.195
11
162.584
21
-147.195
0
LINE
8
BLACK
6
CONTINUOUS
10
165.298
20
-144.195
11
163.87
21
-144.195
0
LINE
8
BLACK
6
CONTINUOUS
10
163.87
20
-144.195
11
163.727
21
-145.624
0
LINE
8
BLACK
6
CONTINUOUS
10
163.727
20
-145.624
11
163.87
21
-145.481
0
LINE
8
BLACK
6
CONTINUOUS
10
163.87
20
-145.481
11
164.155
21
-145.338
0
LINE
8
BLACK
6
CONTINUOUS
10
164.155
20
-145.338
11
164.87
21
-145.338
0
LINE
8
BLACK
6
CONTINUOUS
10
164.87
20
-145.338
11
165.155
21
-145.481
0
LINE
8
BLACK
6
CONTINUOUS
10
165.155
20
-145.481
11
165.298
21
-145.624
0
LINE
8
BLACK
6
CONTINUOUS
10
165.298
20
-145.624
11
165.441
21
-145.909
0
LINE
8
BLACK
6
CONTINUOUS
10
165.441
20
-145.909
11
165.441
21
-146.624
0
LINE
8
BLACK
6
CONTINUOUS
10
165.441
20
-146.624
11
165.298
21
-146.909
0
LINE
8
BLACK
6
CONTINUOUS
10
165.298
20
-146.909
11
165.155
21
-147.052
0
LINE
8
BLACK
6
CONTINUOUS
10
165.155
20
-147.052
11
164.87
21
-147.195
0
LINE
8
BLACK
6
CONTINUOUS
10
164.87
20
-147.195
11
164.155
21
-147.195
0
LINE
8
BLACK
6
CONTINUOUS
10
164.155
20
-147.195
11
163.87
21
-147.052
0
LINE
8
BLACK
6
CONTINUOUS
10
163.87
20
-147.052
11
163.727
21
-146.909
0
LINE
8
BLACK
6
CONTINUOUS
10
166.727
20
-147.195
11
166.727
21
-145.195
0
LINE
8
BLACK
6
CONTINUOUS
10
166.727
20
-145.481
11
166.87
21
-145.338
0
LINE
8
BLACK
6
CONTINUOUS
10
166.87
20
-145.338
11
167.155
21
-145.195
0
LINE
8
BLACK
6
CONTINUOUS
10
167.155
20
-145.195
11
167.584
21
-145.195
0
LINE
8
BLACK
6
CONTINUOUS
10
167.584
20
-145.195
11
167.87
21
-145.338
0
LINE
8
BLACK
6
CONTINUOUS
10
167.87
20
-145.338
11
168.013
21
-145.624
0
LINE
8
BLACK
6
CONTINUOUS
10
168.013
20
-145.624
11
168.013
21
-147.195
0
LINE
8
BLACK
6
CONTINUOUS
10
168.013
20
-145.624
11
168.155
21
-145.338
0
LINE
8
BLACK
6
CONTINUOUS
10
168.155
20
-145.338
11
168.441
21
-145.195
0
LINE
8
BLACK
6
CONTINUOUS
10
168.441
20
-145.195
11
168.87
21
-145.195
0
LINE
8
BLACK
6
CONTINUOUS
10
168.87
20
-145.195
11
169.155
21
-145.338
0
LINE
8
BLACK
6
CONTINUOUS
10
169.155
20
-145.338
11
169.298
21
-145.624
0
LINE
8
BLACK
6
CONTINUOUS
10
169.298
20
-145.624
11
169.298
21
-147.195
0
LINE
8
BLACK
6
CONTINUOUS
10
170.727
20
-147.195
11
170.727
21
-145.195
0
LINE
8
BLACK
6
CONTINUOUS
10
170.727
20
-145.481
11
170.87
21
-145.338
0
LINE
8
BLACK
6
CONTINUOUS
10
170.87
20
-145.338
11
171.155
21
-145.195
0
LINE
8
BLACK
6
CONTINUOUS
10
171.155
20
-145.195
11
171.584
21
-145.195
0
LINE
8
BLACK
6
CONTINUOUS
10
171.584
20
-145.195
11
171.87
21
-145.338
0
LINE
8
BLACK
6
CONTINUOUS
10
171.87
20
-145.338
11
172.013
21
-145.624
0
LINE
8
BLACK
6
CONTINUOUS
10
172.013
20
-145.624
11
172.013
21
-147.195
0
LINE
8
BLACK
6
CONTINUOUS
10
172.013
20
-145.624
11
172.155
21
-145.338
0
LINE
8
BLACK
6
CONTINUOUS
10
172.155
20
-145.338
11
172.441
21
-145.195
0
LINE
8
BLACK
6
CONTINUOUS
10
172.441
20
-145.195
11
172.87
21
-145.195
0
LINE
8
BLACK
6
CONTINUOUS
10
172.87
20
-145.195
11
173.155
21
-145.338
0
LINE
8
BLACK
6
CONTINUOUS
10
173.155
20
-145.338
11
173.298
21
-145.624
0
LINE
8
BLACK
6
CONTINUOUS
10
173.298
20
-145.624
11
173.298
21
-147.195
0
LINE
8
BLACK
6
CONTINUOUS
10
179.155
20
-144.052
11
176.584
21
-147.909
0
LINE
8
BLACK
6
CONTINUOUS
10
183.013
20
-144.195
11
183.298
21
-144.195
0
LINE
8
BLACK
6
CONTINUOUS
10
183.298
20
-144.195
11
183.584
21
-144.338
0
LINE
8
BLACK
6
CONTINUOUS
10
183.584
20
-144.338
11
183.727
21
-144.481
0
LINE
8
BLACK
6
CONTINUOUS
10
183.727
20
-144.481
11
183.87
21
-144.767
0
LINE
8
BLACK
6
CONTINUOUS
10
183.87
20
-144.767
11
184.013
21
-145.338
0
LINE
8
BLACK
6
CONTINUOUS
10
184.013
20
-145.338
11
184.013
21
-146.052
0
LINE
8
BLACK
6
CONTINUOUS
10
184.013
20
-146.052
11
183.87
21
-146.624
0
LINE
8
BLACK
6
CONTINUOUS
10
183.87
20
-146.624
11
183.727
21
-146.909
0
LINE
8
BLACK
6
CONTINUOUS
10
183.727
20
-146.909
11
183.584
21
-147.052
0
LINE
8
BLACK
6
CONTINUOUS
10
183.584
20
-147.052
11
183.298
21
-147.195
0
LINE
8
BLACK
6
CONTINUOUS
10
183.298
20
-147.195
11
183.013
21
-147.195
0
LINE
8
BLACK
6
CONTINUOUS
10
183.013
20
-147.195
11
182.727
21
-147.052
0
LINE
8
BLACK
6
CONTINUOUS
10
182.727
20
-147.052
11
182.584
21
-146.909
0
LINE
8
BLACK
6
CONTINUOUS
10
182.584
20
-146.909
11
182.441
21
-146.624
0
LINE
8
BLACK
6
CONTINUOUS
10
182.441
20
-146.624
11
182.298
21
-146.052
0
LINE
8
BLACK
6
CONTINUOUS
10
182.298
20
-146.052
11
182.298
21
-145.338
0
LINE
8
BLACK
6
CONTINUOUS
10
182.298
20
-145.338
11
182.441
21
-144.767
0
LINE
8
BLACK
6
CONTINUOUS
10
182.441
20
-144.767
11
182.584
21
-144.481
0
LINE
8
BLACK
6
CONTINUOUS
10
182.584
20
-144.481
11
182.727
21
-144.338
0
LINE
8
BLACK
6
CONTINUOUS
10
182.727
20
-144.338
11
183.013
21
-144.195
0
LINE
8
BLACK
6
CONTINUOUS
10
185.298
20
-146.909
11
185.441
21
-147.052
0
LINE
8
BLACK
6
CONTINUOUS
10
185.441
20
-147.052
11
185.298
21
-147.195
0
LINE
8
BLACK
6
CONTINUOUS
10
185.298
20
-147.195
11
185.155
21
-147.052
0
LINE
8
BLACK
6
CONTINUOUS
10
185.155
20
-147.052
11
185.298
21
-146.909
0
LINE
8
BLACK
6
CONTINUOUS
10
185.298
20
-146.909
11
185.298
21
-147.195
0
LINE
8
BLACK
6
CONTINUOUS
10
187.298
20
-144.195
11
187.584
21
-144.195
0
LINE
8
BLACK
6
CONTINUOUS
10
187.584
20
-144.195
11
187.87
21
-144.338
0
LINE
8
BLACK
6
CONTINUOUS
10
187.87
20
-144.338
11
188.013
21
-144.481
0
LINE
8
BLACK
6
CONTINUOUS
10
188.013
20
-144.481
11
188.155
21
-144.767
0
LINE
8
BLACK
6
CONTINUOUS
10
188.155
20
-144.767
11
188.298
21
-145.338
0
LINE
8
BLACK
6
CONTINUOUS
10
188.298
20
-145.338
11
188.298
21
-146.052
0
LINE
8
BLACK
6
CONTINUOUS
10
188.298
20
-146.052
11
188.155
21
-146.624
0
LINE
8
BLACK
6
CONTINUOUS
10
188.155
20
-146.624
11
188.013
21
-146.909
0
LINE
8
BLACK
6
CONTINUOUS
10
188.013
20
-146.909
11
187.87
21
-147.052
0
LINE
8
BLACK
6
CONTINUOUS
10
187.87
20
-147.052
11
187.584
21
-147.195
0
LINE
8
BLACK
6
CONTINUOUS
10
187.584
20
-147.195
11
187.298
21
-147.195
0
LINE
8
BLACK
6
CONTINUOUS
10
187.298
20
-147.195
11
187.013
21
-147.052
0
LINE
8
BLACK
6
CONTINUOUS
10
187.013
20
-147.052
11
186.87
21
-146.909
0
LINE
8
BLACK
6
CONTINUOUS
10
186.87
20
-146.909
11
186.727
21
-146.624
0
LINE
8
BLACK
6
CONTINUOUS
10
186.727
20
-146.624
11
186.584
21
-146.052
0
LINE
8
BLACK
6
CONTINUOUS
10
186.584
20
-146.052
11
186.584
21
-145.338
0
LINE
8
BLACK
6
CONTINUOUS
10
186.584
20
-145.338
11
186.727
21
-144.767
0
LINE
8
BLACK
6
CONTINUOUS
10
186.727
20
-144.767
11
186.87
21
-144.481
0
LINE
8
BLACK
6
CONTINUOUS
10
186.87
20
-144.481
11
187.013
21
-144.338
0
LINE
8
BLACK
6
CONTINUOUS
10
187.013
20
-144.338
11
187.298
21
-144.195
0
LINE
8
BLACK
6
CONTINUOUS
10
190.87
20
-145.195
11
190.87
21
-147.195
0
LINE
8
BLACK
6
CONTINUOUS
10
190.155
20
-144.052
11
189.441
21
-146.195
0
LINE
8
BLACK
6
CONTINUOUS
10
189.441
20
-146.195
11
191.298
21
-146.195
0
LINE
8
BLACK
6
CONTINUOUS
10
192.584
20
-147.195
11
193.155
21
-147.195
0
LINE
8
BLACK
6
CONTINUOUS
10
193.155
20
-147.195
11
193.441
21
-147.052
0
LINE
8
BLACK
6
CONTINUOUS
10
193.441
20
-147.052
11
193.584
21
-146.909
0
LINE
8
BLACK
6
CONTINUOUS
10
193.584
20
-146.909
11
193.87
21
-146.481
0
LINE
8
BLACK
6
CONTINUOUS
10
193.87
20
-146.481
11
194.013
21
-145.909
0
LINE
8
BLACK
6
CONTINUOUS
10
194.013
20
-145.909
11
194.013
21
-144.767
0
LINE
8
BLACK
6
CONTINUOUS
10
194.013
20
-144.767
11
193.87
21
-144.481
0
LINE
8
BLACK
6
CONTINUOUS
10
193.87
20
-144.481
11
193.727
21
-144.338
0
LINE
8
BLACK
6
CONTINUOUS
10
193.727
20
-144.338
11
193.441
21
-144.195
0
LINE
8
BLACK
6
CONTINUOUS
10
193.441
20
-144.195
11
192.87
21
-144.195
0
LINE
8
BLACK
6
CONTINUOUS
10
192.87
20
-144.195
11
192.584
21
-144.338
0
LINE
8
BLACK
6
CONTINUOUS
10
192.584
20
-144.338
11
192.441
21
-144.481
0
LINE
8
BLACK
6
CONTINUOUS
10
192.441
20
-144.481
11
192.298
21
-144.767
0
LINE
8
BLACK
6
CONTINUOUS
10
192.298
20
-144.767
11
192.298
21
-145.481
0
LINE
8
BLACK
6
CONTINUOUS
10
192.298
20
-145.481
11
192.441
21
-145.767
0
LINE
8
BLACK
6
CONTINUOUS
10
192.441
20
-145.767
11
192.584
21
-145.909
0
LINE
8
BLACK
6
CONTINUOUS
10
192.584
20
-145.909
11
192.87
21
-146.052
0
LINE
8
BLACK
6
CONTINUOUS
10
192.87
20
-146.052
11
193.441
21
-146.052
0
LINE
8
BLACK
6
CONTINUOUS
10
193.441
20
-146.052
11
193.727
21
-145.909
0
LINE
8
BLACK
6
CONTINUOUS
10
193.727
20
-145.909
11
193.87
21
-145.767
0
LINE
8
BLACK
6
CONTINUOUS
10
193.87
20
-145.767
11
194.013
21
-145.481
0
LINE
8
BLACK
6
CONTINUOUS
10
195.155
20
-144.195
11
195.155
21
-144.767
0
LINE
8
BLACK
6
CONTINUOUS
10
196.298
20
-144.195
11
196.298
21
-144.767
0
LINE
8
BLACK
6
CONTINUOUS
10
200.727
20
-148.338
11
200.584
21
-148.195
0
LINE
8
BLACK
6
CONTINUOUS
10
200.584
20
-148.195
11
200.298
21
-147.767
0
LINE
8
BLACK
6
CONTINUOUS
10
200.298
20
-147.767
11
200.155
21
-147.481
0
LINE
8
BLACK
6
CONTINUOUS
10
200.155
20
-147.481
11
200.013
21
-147.052
0
LINE
8
BLACK
6
CONTINUOUS
10
200.013
20
-147.052
11
199.87
21
-146.338
0
LINE
8
BLACK
6
CONTINUOUS
10
199.87
20
-146.338
11
199.87
21
-145.767
0
LINE
8
BLACK
6
CONTINUOUS
10
199.87
20
-145.767
11
200.013
21
-145.052
0
LINE
8
BLACK
6
CONTINUOUS
10
200.013
20
-145.052
11
200.155
21
-144.624
0
LINE
8
BLACK
6
CONTINUOUS
10
200.155
20
-144.624
11
200.298
21
-144.338
0
LINE
8
BLACK
6
CONTINUOUS
10
200.298
20
-144.338
11
200.584
21
-143.909
0
LINE
8
BLACK
6
CONTINUOUS
10
200.584
20
-143.909
11
200.727
21
-143.767
0
LINE
8
BLACK
6
CONTINUOUS
10
201.727
20
-144.481
11
201.87
21
-144.338
0
LINE
8
BLACK
6
CONTINUOUS
10
201.87
20
-144.338
11
202.155
21
-144.195
0
LINE
8
BLACK
6
CONTINUOUS
10
202.155
20
-144.195
11
202.87
21
-144.195
0
LINE
8
BLACK
6
CONTINUOUS
10
202.87
20
-144.195
11
203.155
21
-144.338
0
LINE
8
BLACK
6
CONTINUOUS
10
203.155
20
-144.338
11
203.298
21
-144.481
0
LINE
8
BLACK
6
CONTINUOUS
10
203.298
20
-144.481
11
203.441
21
-144.767
0
LINE
8
BLACK
6
CONTINUOUS
10
203.441
20
-144.767
11
203.441
21
-145.052
0
LINE
8
BLACK
6
CONTINUOUS
10
203.441
20
-145.052
11
203.298
21
-145.481
0
LINE
8
BLACK
6
CONTINUOUS
10
203.298
20
-145.481
11
201.584
21
-147.195
0
LINE
8
BLACK
6
CONTINUOUS
10
201.584
20
-147.195
11
203.441
21
-147.195
0
LINE
8
BLACK
6
CONTINUOUS
10
207.013
20
-147.195
11
207.013
21
-144.195
0
LINE
8
BLACK
6
CONTINUOUS
10
208.298
20
-147.195
11
208.298
21
-145.624
0
LINE
8
BLACK
6
CONTINUOUS
10
208.298
20
-145.624
11
208.155
21
-145.338
0
LINE
8
BLACK
6
CONTINUOUS
10
208.155
20
-145.338
11
207.87
21
-145.195
0
LINE
8
BLACK
6
CONTINUOUS
10
207.87
20
-145.195
11
207.441
21
-145.195
0
LINE
8
BLACK
6
CONTINUOUS
10
207.441
20
-145.195
11
207.155
21
-145.338
0
LINE
8
BLACK
6
CONTINUOUS
10
207.155
20
-145.338
11
207.013
21
-145.481
0
LINE
8
BLACK
6
CONTINUOUS
10
210.155
20
-147.195
11
209.87
21
-147.052
0
LINE
8
BLACK
6
CONTINUOUS
10
209.87
20
-147.052
11
209.727
21
-146.909
0
LINE
8
BLACK
6
CONTINUOUS
10
209.727
20
-146.909
11
209.584
21
-146.624
0
LINE
8
BLACK
6
CONTINUOUS
10
209.584
20
-146.624
11
209.584
21
-145.767
0
LINE
8
BLACK
6
CONTINUOUS
10
209.584
20
-145.767
11
209.727
21
-145.481
0
LINE
8
BLACK
6
CONTINUOUS
10
209.727
20
-145.481
11
209.87
21
-145.338
0
LINE
8
BLACK
6
CONTINUOUS
10
209.87
20
-145.338
11
210.155
21
-145.195
0
LINE
8
BLACK
6
CONTINUOUS
10
210.155
20
-145.195
11
210.584
21
-145.195
0
LINE
8
BLACK
6
CONTINUOUS
10
210.584
20
-145.195
11
210.87
21
-145.338
0
LINE
8
BLACK
6
CONTINUOUS
10
210.87
20
-145.338
11
211.013
21
-145.481
0
LINE
8
BLACK
6
CONTINUOUS
10
211.013
20
-145.481
11
211.155
21
-145.767
0
LINE
8
BLACK
6
CONTINUOUS
10
211.155
20
-145.767
11
211.155
21
-146.624
0
LINE
8
BLACK
6
CONTINUOUS
10
211.155
20
-146.624
11
211.013
21
-146.909
0
LINE
8
BLACK
6
CONTINUOUS
10
211.013
20
-146.909
11
210.87
21
-147.052
0
LINE
8
BLACK
6
CONTINUOUS
10
210.87
20
-147.052
11
210.584
21
-147.195
0
LINE
8
BLACK
6
CONTINUOUS
10
210.584
20
-147.195
11
210.155
21
-147.195
0
LINE
8
BLACK
6
CONTINUOUS
10
212.87
20
-147.195
11
212.584
21
-147.052
0
LINE
8
BLACK
6
CONTINUOUS
10
212.584
20
-147.052
11
212.441
21
-146.767
0
LINE
8
BLACK
6
CONTINUOUS
10
212.441
20
-146.767
11
212.441
21
-144.195
0
LINE
8
BLACK
6
CONTINUOUS
10
215.155
20
-147.052
11
214.87
21
-147.195
0
LINE
8
BLACK
6
CONTINUOUS
10
214.87
20
-147.195
11
214.298
21
-147.195
0
LINE
8
BLACK
6
CONTINUOUS
10
214.298
20
-147.195
11
214.013
21
-147.052
0
LINE
8
BLACK
6
CONTINUOUS
10
214.013
20
-147.052
11
213.87
21
-146.767
0
LINE
8
BLACK
6
CONTINUOUS
10
213.87
20
-146.767
11
213.87
21
-145.624
0
LINE
8
BLACK
6
CONTINUOUS
10
213.87
20
-145.624
11
214.013
21
-145.338
0
LINE
8
BLACK
6
CONTINUOUS
10
214.013
20
-145.338
11
214.298
21
-145.195
0
LINE
8
BLACK
6
CONTINUOUS
10
214.298
20
-145.195
11
214.87
21
-145.195
0
LINE
8
BLACK
6
CONTINUOUS
10
214.87
20
-145.195
11
215.155
21
-145.338
0
LINE
8
BLACK
6
CONTINUOUS
10
215.155
20
-145.338
11
215.298
21
-145.624
0
LINE
8
BLACK
6
CONTINUOUS
10
215.298
20
-145.624
11
215.298
21
-145.909
0
LINE
8
BLACK
6
CONTINUOUS
10
215.298
20
-145.909
11
213.87
21
-146.195
0
LINE
8
BLACK
6
CONTINUOUS
10
216.441
20
-147.052
11
216.727
21
-147.195
0
LINE
8
BLACK
6
CONTINUOUS
10
216.727
20
-147.195
11
217.298
21
-147.195
0
LINE
8
BLACK
6
CONTINUOUS
10
217.298
20
-147.195
11
217.584
21
-147.052
0
LINE
8
BLACK
6
CONTINUOUS
10
217.584
20
-147.052
11
217.727
21
-146.767
0
LINE
8
BLACK
6
CONTINUOUS
10
217.727
20
-146.767
11
217.727
21
-146.624
0
LINE
8
BLACK
6
CONTINUOUS
10
217.727
20
-146.624
11
217.584
21
-146.338
0
LINE
8
BLACK
6
CONTINUOUS
10
217.584
20
-146.338
11
217.298
21
-146.195
0
LINE
8
BLACK
6
CONTINUOUS
10
217.298
20
-146.195
11
216.87
21
-146.195
0
LINE
8
BLACK
6
CONTINUOUS
10
216.87
20
-146.195
11
216.584
21
-146.052
0
LINE
8
BLACK
6
CONTINUOUS
10
216.584
20
-146.052
11
216.441
21
-145.767
0
LINE
8
BLACK
6
CONTINUOUS
10
216.441
20
-145.767
11
216.441
21
-145.624
0
LINE
8
BLACK
6
CONTINUOUS
10
216.441
20
-145.624
11
216.584
21
-145.338
0
LINE
8
BLACK
6
CONTINUOUS
10
216.584
20
-145.338
11
216.87
21
-145.195
0
LINE
8
BLACK
6
CONTINUOUS
10
216.87
20
-145.195
11
217.298
21
-145.195
0
LINE
8
BLACK
6
CONTINUOUS
10
217.298
20
-145.195
11
217.584
21
-145.338
0
LINE
8
BLACK
6
CONTINUOUS
10
218.727
20
-148.338
11
218.87
21
-148.195
0
LINE
8
BLACK
6
CONTINUOUS
10
218.87
20
-148.195
11
219.155
21
-147.767
0
LINE
8
BLACK
6
CONTINUOUS
10
219.155
20
-147.767
11
219.298
21
-147.481
0
LINE
8
BLACK
6
CONTINUOUS
10
219.298
20
-147.481
11
219.441
21
-147.052
0
LINE
8
BLACK
6
CONTINUOUS
10
219.441
20
-147.052
11
219.584
21
-146.338
0
LINE
8
BLACK
6
CONTINUOUS
10
219.584
20
-146.338
11
219.584
21
-145.767
0
LINE
8
BLACK
6
CONTINUOUS
10
219.584
20
-145.767
11
219.441
21
-145.052
0
LINE
8
BLACK
6
CONTINUOUS
10
219.441
20
-145.052
11
219.298
21
-144.624
0
LINE
8
BLACK
6
CONTINUOUS
10
219.298
20
-144.624
11
219.155
21
-144.338
0
LINE
8
BLACK
6
CONTINUOUS
10
219.155
20
-144.338
11
218.87
21
-143.909
0
LINE
8
BLACK
6
CONTINUOUS
10
218.87
20
-143.909
11
218.727
21
-143.767
0
LINE
8
BLACK
6
CONTINUOUS
10
152.113
20
-151.548
11
153.863
21
-149.798
0
LINE
8
BLACK
6
CONTINUOUS
10
153.863
20
-149.798
11
152.113
21
-148.048
0
LINE
8
BLACK
6
CONTINUOUS
10
152.113
20
-148.048
11
150.363
21
-149.798
0
LINE
8
BLACK
6
CONTINUOUS
10
150.363
20
-149.798
11
152.113
21
-151.548
0
LINE
8
BLACK
6
CONTINUOUS
10
156.441
20
-148.155
11
158.298
21
-148.155
0
LINE
8
BLACK
6
CONTINUOUS
10
158.298
20
-148.155
11
157.298
21
-149.298
0
LINE
8
BLACK
6
CONTINUOUS
10
157.298
20
-149.298
11
157.727
21
-149.298
0
LINE
8
BLACK
6
CONTINUOUS
10
157.727
20
-149.298
11
158.013
21
-149.441
0
LINE
8
BLACK
6
CONTINUOUS
10
158.013
20
-149.441
11
158.155
21
-149.584
0
LINE
8
BLACK
6
CONTINUOUS
10
158.155
20
-149.584
11
158.298
21
-149.869
0
LINE
8
BLACK
6
CONTINUOUS
10
158.298
20
-149.869
11
158.298
21
-150.584
0
LINE
8
BLACK
6
CONTINUOUS
10
158.298
20
-150.584
11
158.155
21
-150.869
0
LINE
8
BLACK
6
CONTINUOUS
10
158.155
20
-150.869
11
158.013
21
-151.012
0
LINE
8
BLACK
6
CONTINUOUS
10
158.013
20
-151.012
11
157.727
21
-151.155
0
LINE
8
BLACK
6
CONTINUOUS
10
157.727
20
-151.155
11
156.87
21
-151.155
0
LINE
8
BLACK
6
CONTINUOUS
10
156.87
20
-151.155
11
156.584
21
-151.012
0
LINE
8
BLACK
6
CONTINUOUS
10
156.584
20
-151.012
11
156.441
21
-150.869
0
LINE
8
BLACK
6
CONTINUOUS
10
159.584
20
-150.869
11
159.727
21
-151.012
0
LINE
8
BLACK
6
CONTINUOUS
10
159.727
20
-151.012
11
159.584
21
-151.155
0
LINE
8
BLACK
6
CONTINUOUS
10
159.584
20
-151.155
11
159.441
21
-151.012
0
LINE
8
BLACK
6
CONTINUOUS
10
159.441
20
-151.012
11
159.584
21
-150.869
0
LINE
8
BLACK
6
CONTINUOUS
10
159.584
20
-150.869
11
159.584
21
-151.155
0
LINE
8
BLACK
6
CONTINUOUS
10
162.441
20
-148.155
11
161.013
21
-148.155
0
LINE
8
BLACK
6
CONTINUOUS
10
161.013
20
-148.155
11
160.87
21
-149.584
0
LINE
8
BLACK
6
CONTINUOUS
10
160.87
20
-149.584
11
161.013
21
-149.441
0
LINE
8
BLACK
6
CONTINUOUS
10
161.013
20
-149.441
11
161.298
21
-149.298
0
LINE
8
BLACK
6
CONTINUOUS
10
161.298
20
-149.298
11
162.013
21
-149.298
0
LINE
8
BLACK
6
CONTINUOUS
10
162.013
20
-149.298
11
162.298
21
-149.441
0
LINE
8
BLACK
6
CONTINUOUS
10
162.298
20
-149.441
11
162.441
21
-149.584
0
LINE
8
BLACK
6
CONTINUOUS
10
162.441
20
-149.584
11
162.584
21
-149.869
0
LINE
8
BLACK
6
CONTINUOUS
10
162.584
20
-149.869
11
162.584
21
-150.584
0
LINE
8
BLACK
6
CONTINUOUS
10
162.584
20
-150.584
11
162.441
21
-150.869
0
LINE
8
BLACK
6
CONTINUOUS
10
162.441
20
-150.869
11
162.298
21
-151.012
0
LINE
8
BLACK
6
CONTINUOUS
10
162.298
20
-151.012
11
162.013
21
-151.155
0
LINE
8
BLACK
6
CONTINUOUS
10
162.013
20
-151.155
11
161.298
21
-151.155
0
LINE
8
BLACK
6
CONTINUOUS
10
161.298
20
-151.155
11
161.013
21
-151.012
0
LINE
8
BLACK
6
CONTINUOUS
10
161.013
20
-151.012
11
160.87
21
-150.869
0
LINE
8
BLACK
6
CONTINUOUS
10
164.441
20
-148.155
11
164.727
21
-148.155
0
LINE
8
BLACK
6
CONTINUOUS
10
164.727
20
-148.155
11
165.013
21
-148.298
0
LINE
8
BLACK
6
CONTINUOUS
10
165.013
20
-148.298
11
165.155
21
-148.441
0
LINE
8
BLACK
6
CONTINUOUS
10
165.155
20
-148.441
11
165.298
21
-148.727
0
LINE
8
BLACK
6
CONTINUOUS
10
165.298
20
-148.727
11
165.441
21
-149.298
0
LINE
8
BLACK
6
CONTINUOUS
10
165.441
20
-149.298
11
165.441
21
-150.012
0
LINE
8
BLACK
6
CONTINUOUS
10
165.441
20
-150.012
11
165.298
21
-150.584
0
LINE
8
BLACK
6
CONTINUOUS
10
165.298
20
-150.584
11
165.155
21
-150.869
0
LINE
8
BLACK
6
CONTINUOUS
10
165.155
20
-150.869
11
165.013
21
-151.012
0
LINE
8
BLACK
6
CONTINUOUS
10
165.013
20
-151.012
11
164.727
21
-151.155
0
LINE
8
BLACK
6
CONTINUOUS
10
164.727
20
-151.155
11
164.441
21
-151.155
0
LINE
8
BLACK
6
CONTINUOUS
10
164.441
20
-151.155
11
164.155
21
-151.012
0
LINE
8
BLACK
6
CONTINUOUS
10
164.155
20
-151.012
11
164.013
21
-150.869
0
LINE
8
BLACK
6
CONTINUOUS
10
164.013
20
-150.869
11
163.87
21
-150.584
0
LINE
8
BLACK
6
CONTINUOUS
10
163.87
20
-150.584
11
163.727
21
-150.012
0
LINE
8
BLACK
6
CONTINUOUS
10
163.727
20
-150.012
11
163.727
21
-149.298
0
LINE
8
BLACK
6
CONTINUOUS
10
163.727
20
-149.298
11
163.87
21
-148.727
0
LINE
8
BLACK
6
CONTINUOUS
10
163.87
20
-148.727
11
164.013
21
-148.441
0
LINE
8
BLACK
6
CONTINUOUS
10
164.013
20
-148.441
11
164.155
21
-148.298
0
LINE
8
BLACK
6
CONTINUOUS
10
164.155
20
-148.298
11
164.441
21
-148.155
0
LINE
8
BLACK
6
CONTINUOUS
10
166.727
20
-151.155
11
166.727
21
-149.155
0
LINE
8
BLACK
6
CONTINUOUS
10
166.727
20
-149.441
11
166.87
21
-149.298
0
LINE
8
BLACK
6
CONTINUOUS
10
166.87
20
-149.298
11
167.155
21
-149.155
0
LINE
8
BLACK
6
CONTINUOUS
10
167.155
20
-149.155
11
167.584
21
-149.155
0
LINE
8
BLACK
6
CONTINUOUS
10
167.584
20
-149.155
11
167.87
21
-149.298
0
LINE
8
BLACK
6
CONTINUOUS
10
167.87
20
-149.298
11
168.013
21
-149.584
0
LINE
8
BLACK
6
CONTINUOUS
10
168.013
20
-149.584
11
168.013
21
-151.155
0
LINE
8
BLACK
6
CONTINUOUS
10
168.013
20
-149.584
11
168.155
21
-149.298
0
LINE
8
BLACK
6
CONTINUOUS
10
168.155
20
-149.298
11
168.441
21
-149.155
0
LINE
8
BLACK
6
CONTINUOUS
10
168.441
20
-149.155
11
168.87
21
-149.155
0
LINE
8
BLACK
6
CONTINUOUS
10
168.87
20
-149.155
11
169.155
21
-149.298
0
LINE
8
BLACK
6
CONTINUOUS
10
169.155
20
-149.298
11
169.298
21
-149.584
0
LINE
8
BLACK
6
CONTINUOUS
10
169.298
20
-149.584
11
169.298
21
-151.155
0
LINE
8
BLACK
6
CONTINUOUS
10
170.727
20
-151.155
11
170.727
21
-149.155
0
LINE
8
BLACK
6
CONTINUOUS
10
170.727
20
-149.441
11
170.87
21
-149.298
0
LINE
8
BLACK
6
CONTINUOUS
10
170.87
20
-149.298
11
171.155
21
-149.155
0
LINE
8
BLACK
6
CONTINUOUS
10
171.155
20
-149.155
11
171.584
21
-149.155
0
LINE
8
BLACK
6
CONTINUOUS
10
171.584
20
-149.155
11
171.87
21
-149.298
0
LINE
8
BLACK
6
CONTINUOUS
10
171.87
20
-149.298
11
172.013
21
-149.584
0
LINE
8
BLACK
6
CONTINUOUS
10
172.013
20
-149.584
11
172.013
21
-151.155
0
LINE
8
BLACK
6
CONTINUOUS
10
172.013
20
-149.584
11
172.155
21
-149.298
0
LINE
8
BLACK
6
CONTINUOUS
10
172.155
20
-149.298
11
172.441
21
-149.155
0
LINE
8
BLACK
6
CONTINUOUS
10
172.441
20
-149.155
11
172.87
21
-149.155
0
LINE
8
BLACK
6
CONTINUOUS
10
172.87
20
-149.155
11
173.155
21
-149.298
0
LINE
8
BLACK
6
CONTINUOUS
10
173.155
20
-149.298
11
173.298
21
-149.584
0
LINE
8
BLACK
6
CONTINUOUS
10
173.298
20
-149.584
11
173.298
21
-151.155
0
LINE
8
BLACK
6
CONTINUOUS
10
179.155
20
-148.012
11
176.584
21
-151.869
0
LINE
8
BLACK
6
CONTINUOUS
10
183.013
20
-148.155
11
183.298
21
-148.155
0
LINE
8
BLACK
6
CONTINUOUS
10
183.298
20
-148.155
11
183.584
21
-148.298
0
LINE
8
BLACK
6
CONTINUOUS
10
183.584
20
-148.298
11
183.727
21
-148.441
0
LINE
8
BLACK
6
CONTINUOUS
10
183.727
20
-148.441
11
183.87
21
-148.727
0
LINE
8
BLACK
6
CONTINUOUS
10
183.87
20
-148.727
11
184.013
21
-149.298
0
LINE
8
BLACK
6
CONTINUOUS
10
184.013
20
-149.298
11
184.013
21
-150.012
0
LINE
8
BLACK
6
CONTINUOUS
10
184.013
20
-150.012
11
183.87
21
-150.584
0
LINE
8
BLACK
6
CONTINUOUS
10
183.87
20
-150.584
11
183.727
21
-150.869
0
LINE
8
BLACK
6
CONTINUOUS
10
183.727
20
-150.869
11
183.584
21
-151.012
0
LINE
8
BLACK
6
CONTINUOUS
10
183.584
20
-151.012
11
183.298
21
-151.155
0
LINE
8
BLACK
6
CONTINUOUS
10
183.298
20
-151.155
11
183.013
21
-151.155
0
LINE
8
BLACK
6
CONTINUOUS
10
183.013
20
-151.155
11
182.727
21
-151.012
0
LINE
8
BLACK
6
CONTINUOUS
10
182.727
20
-151.012
11
182.584
21
-150.869
0
LINE
8
BLACK
6
CONTINUOUS
10
182.584
20
-150.869
11
182.441
21
-150.584
0
LINE
8
BLACK
6
CONTINUOUS
10
182.441
20
-150.584
11
182.298
21
-150.012
0
LINE
8
BLACK
6
CONTINUOUS
10
182.298
20
-150.012
11
182.298
21
-149.298
0
LINE
8
BLACK
6
CONTINUOUS
10
182.298
20
-149.298
11
182.441
21
-148.727
0
LINE
8
BLACK
6
CONTINUOUS
10
182.441
20
-148.727
11
182.584
21
-148.441
0
LINE
8
BLACK
6
CONTINUOUS
10
182.584
20
-148.441
11
182.727
21
-148.298
0
LINE
8
BLACK
6
CONTINUOUS
10
182.727
20
-148.298
11
183.013
21
-148.155
0
LINE
8
BLACK
6
CONTINUOUS
10
185.298
20
-150.869
11
185.441
21
-151.012
0
LINE
8
BLACK
6
CONTINUOUS
10
185.441
20
-151.012
11
185.298
21
-151.155
0
LINE
8
BLACK
6
CONTINUOUS
10
185.298
20
-151.155
11
185.155
21
-151.012
0
LINE
8
BLACK
6
CONTINUOUS
10
185.155
20
-151.012
11
185.298
21
-150.869
0
LINE
8
BLACK
6
CONTINUOUS
10
185.298
20
-150.869
11
185.298
21
-151.155
0
LINE
8
BLACK
6
CONTINUOUS
10
188.298
20
-151.155
11
186.584
21
-151.155
0
LINE
8
BLACK
6
CONTINUOUS
10
187.441
20
-151.155
11
187.441
21
-148.155
0
LINE
8
BLACK
6
CONTINUOUS
10
187.441
20
-148.155
11
187.155
21
-148.584
0
LINE
8
BLACK
6
CONTINUOUS
10
187.155
20
-148.584
11
186.87
21
-148.869
0
LINE
8
BLACK
6
CONTINUOUS
10
186.87
20
-148.869
11
186.584
21
-149.012
0
LINE
8
BLACK
6
CONTINUOUS
10
189.298
20
-148.155
11
191.155
21
-148.155
0
LINE
8
BLACK
6
CONTINUOUS
10
191.155
20
-148.155
11
190.155
21
-149.298
0
LINE
8
BLACK
6
CONTINUOUS
10
190.155
20
-149.298
11
190.584
21
-149.298
0
LINE
8
BLACK
6
CONTINUOUS
10
190.584
20
-149.298
11
190.87
21
-149.441
0
LINE
8
BLACK
6
CONTINUOUS
10
190.87
20
-149.441
11
191.013
21
-149.584
0
LINE
8
BLACK
6
CONTINUOUS
10
191.013
20
-149.584
11
191.155
21
-149.869
0
LINE
8
BLACK
6
CONTINUOUS
10
191.155
20
-149.869
11
191.155
21
-150.584
0
LINE
8
BLACK
6
CONTINUOUS
10
191.155
20
-150.584
11
191.013
21
-150.869
0
LINE
8
BLACK
6
CONTINUOUS
10
191.013
20
-150.869
11
190.87
21
-151.012
0
LINE
8
BLACK
6
CONTINUOUS
10
190.87
20
-151.012
11
190.584
21
-151.155
0
LINE
8
BLACK
6
CONTINUOUS
10
190.584
20
-151.155
11
189.727
21
-151.155
0
LINE
8
BLACK
6
CONTINUOUS
10
189.727
20
-151.155
11
189.441
21
-151.012
0
LINE
8
BLACK
6
CONTINUOUS
10
189.441
20
-151.012
11
189.298
21
-150.869
0
LINE
8
BLACK
6
CONTINUOUS
10
192.87
20
-149.441
11
192.584
21
-149.298
0
LINE
8
BLACK
6
CONTINUOUS
10
192.584
20
-149.298
11
192.441
21
-149.155
0
LINE
8
BLACK
6
CONTINUOUS
10
192.441
20
-149.155
11
192.298
21
-148.869
0
LINE
8
BLACK
6
CONTINUOUS
10
192.298
20
-148.869
11
192.298
21
-148.727
0
LINE
8
BLACK
6
CONTINUOUS
10
192.298
20
-148.727
11
192.441
21
-148.441
0
LINE
8
BLACK
6
CONTINUOUS
10
192.441
20
-148.441
11
192.584
21
-148.298
0
LINE
8
BLACK
6
CONTINUOUS
10
192.584
20
-148.298
11
192.87
21
-148.155
0
LINE
8
BLACK
6
CONTINUOUS
10
192.87
20
-148.155
11
193.441
21
-148.155
0
LINE
8
BLACK
6
CONTINUOUS
10
193.441
20
-148.155
11
193.727
21
-148.298
0
LINE
8
BLACK
6
CONTINUOUS
10
193.727
20
-148.298
11
193.87
21
-148.441
0
LINE
8
BLACK
6
CONTINUOUS
10
193.87
20
-148.441
11
194.013
21
-148.727
0
LINE
8
BLACK
6
CONTINUOUS
10
194.013
20
-148.727
11
194.013
21
-148.869
0
LINE
8
BLACK
6
CONTINUOUS
10
194.013
20
-148.869
11
193.87
21
-149.155
0
LINE
8
BLACK
6
CONTINUOUS
10
193.87
20
-149.155
11
193.727
21
-149.298
0
LINE
8
BLACK
6
CONTINUOUS
10
193.727
20
-149.298
11
193.441
21
-149.441
0
LINE
8
BLACK
6
CONTINUOUS
10
193.441
20
-149.441
11
192.87
21
-149.441
0
LINE
8
BLACK
6
CONTINUOUS
10
192.87
20
-149.441
11
192.584
21
-149.584
0
LINE
8
BLACK
6
CONTINUOUS
10
192.584
20
-149.584
11
192.441
21
-149.727
0
LINE
8
BLACK
6
CONTINUOUS
10
192.441
20
-149.727
11
192.298
21
-150.012
0
LINE
8
BLACK
6
CONTINUOUS
10
192.298
20
-150.012
11
192.298
21
-150.584
0
LINE
8
BLACK
6
CONTINUOUS
10
192.298
20
-150.584
11
192.441
21
-150.869
0
LINE
8
BLACK
6
CONTINUOUS
10
192.441
20
-150.869
11
192.584
21
-151.012
0
LINE
8
BLACK
6
CONTINUOUS
10
192.584
20
-151.012
11
192.87
21
-151.155
0
LINE
8
BLACK
6
CONTINUOUS
10
192.87
20
-151.155
11
193.441
21
-151.155
0
LINE
8
BLACK
6
CONTINUOUS
10
193.441
20
-151.155
11
193.727
21
-151.012
0
LINE
8
BLACK
6
CONTINUOUS
10
193.727
20
-151.012
11
193.87
21
-150.869
0
LINE
8
BLACK
6
CONTINUOUS
10
193.87
20
-150.869
11
194.013
21
-150.584
0
LINE
8
BLACK
6
CONTINUOUS
10
194.013
20
-150.584
11
194.013
21
-150.012
0
LINE
8
BLACK
6
CONTINUOUS
10
194.013
20
-150.012
11
193.87
21
-149.727
0
LINE
8
BLACK
6
CONTINUOUS
10
193.87
20
-149.727
11
193.727
21
-149.584
0
LINE
8
BLACK
6
CONTINUOUS
10
193.727
20
-149.584
11
193.441
21
-149.441
0
LINE
8
BLACK
6
CONTINUOUS
10
195.155
20
-148.155
11
195.155
21
-148.727
0
LINE
8
BLACK
6
CONTINUOUS
10
196.298
20
-148.155
11
196.298
21
-148.727
0
LINE
8
BLACK
6
CONTINUOUS
10
200.727
20
-152.298
11
200.584
21
-152.155
0
LINE
8
BLACK
6
CONTINUOUS
10
200.584
20
-152.155
11
200.298
21
-151.727
0
LINE
8
BLACK
6
CONTINUOUS
10
200.298
20
-151.727
11
200.155
21
-151.441
0
LINE
8
BLACK
6
CONTINUOUS
10
200.155
20
-151.441
11
200.013
21
-151.012
0
LINE
8
BLACK
6
CONTINUOUS
10
200.013
20
-151.012
11
199.87
21
-150.298
0
LINE
8
BLACK
6
CONTINUOUS
10
199.87
20
-150.298
11
199.87
21
-149.727
0
LINE
8
BLACK
6
CONTINUOUS
10
199.87
20
-149.727
11
200.013
21
-149.012
0
LINE
8
BLACK
6
CONTINUOUS
10
200.013
20
-149.012
11
200.155
21
-148.584
0
LINE
8
BLACK
6
CONTINUOUS
10
200.155
20
-148.584
11
200.298
21
-148.298
0
LINE
8
BLACK
6
CONTINUOUS
10
200.298
20
-148.298
11
200.584
21
-147.869
0
LINE
8
BLACK
6
CONTINUOUS
10
200.584
20
-147.869
11
200.727
21
-147.727
0
LINE
8
BLACK
6
CONTINUOUS
10
203.155
20
-149.155
11
203.155
21
-151.155
0
LINE
8
BLACK
6
CONTINUOUS
10
202.441
20
-148.012
11
201.727
21
-150.155
0
LINE
8
BLACK
6
CONTINUOUS
10
201.727
20
-150.155
11
203.584
21
-150.155
0
LINE
8
BLACK
6
CONTINUOUS
10
207.013
20
-151.155
11
207.013
21
-148.155
0
LINE
8
BLACK
6
CONTINUOUS
10
208.298
20
-151.155
11
208.298
21
-149.584
0
LINE
8
BLACK
6
CONTINUOUS
10
208.298
20
-149.584
11
208.155
21
-149.298
0
LINE
8
BLACK
6
CONTINUOUS
10
208.155
20
-149.298
11
207.87
21
-149.155
0
LINE
8
BLACK
6
CONTINUOUS
10
207.87
20
-149.155
11
207.441
21
-149.155
0
LINE
8
BLACK
6
CONTINUOUS
10
207.441
20
-149.155
11
207.155
21
-149.298
0
LINE
8
BLACK
6
CONTINUOUS
10
207.155
20
-149.298
11
207.013
21
-149.441
0
LINE
8
BLACK
6
CONTINUOUS
10
210.155
20
-151.155
11
209.87
21
-151.012
0
LINE
8
BLACK
6
CONTINUOUS
10
209.87
20
-151.012
11
209.727
21
-150.869
0
LINE
8
BLACK
6
CONTINUOUS
10
209.727
20
-150.869
11
209.584
21
-150.584
0
LINE
8
BLACK
6
CONTINUOUS
10
209.584
20
-150.584
11
209.584
21
-149.727
0
LINE
8
BLACK
6
CONTINUOUS
10
209.584
20
-149.727
11
209.727
21
-149.441
0
LINE
8
BLACK
6
CONTINUOUS
10
209.727
20
-149.441
11
209.87
21
-149.298
0
LINE
8
BLACK
6
CONTINUOUS
10
209.87
20
-149.298
11
210.155
21
-149.155
0
LINE
8
BLACK
6
CONTINUOUS
10
210.155
20
-149.155
11
210.584
21
-149.155
0
LINE
8
BLACK
6
CONTINUOUS
10
210.584
20
-149.155
11
210.87
21
-149.298
0
LINE
8
BLACK
6
CONTINUOUS
10
210.87
20
-149.298
11
211.013
21
-149.441
0
LINE
8
BLACK
6
CONTINUOUS
10
211.013
20
-149.441
11
211.155
21
-149.727
0
LINE
8
BLACK
6
CONTINUOUS
10
211.155
20
-149.727
11
211.155
21
-150.584
0
LINE
8
BLACK
6
CONTINUOUS
10
211.155
20
-150.584
11
211.013
21
-150.869
0
LINE
8
BLACK
6
CONTINUOUS
10
211.013
20
-150.869
11
210.87
21
-151.012
0
LINE
8
BLACK
6
CONTINUOUS
10
210.87
20
-151.012
11
210.584
21
-151.155
0
LINE
8
BLACK
6
CONTINUOUS
10
210.584
20
-151.155
11
210.155
21
-151.155
0
LINE
8
BLACK
6
CONTINUOUS
10
212.87
20
-151.155
11
212.584
21
-151.012
0
LINE
8
BLACK
6
CONTINUOUS
10
212.584
20
-151.012
11
212.441
21
-150.727
0
LINE
8
BLACK
6
CONTINUOUS
10
212.441
20
-150.727
11
212.441
21
-148.155
0
LINE
8
BLACK
6
CONTINUOUS
10
215.155
20
-151.012
11
214.87
21
-151.155
0
LINE
8
BLACK
6
CONTINUOUS
10
214.87
20
-151.155
11
214.298
21
-151.155
0
LINE
8
BLACK
6
CONTINUOUS
10
214.298
20
-151.155
11
214.013
21
-151.012
0
LINE
8
BLACK
6
CONTINUOUS
10
214.013
20
-151.012
11
213.87
21
-150.727
0
LINE
8
BLACK
6
CONTINUOUS
10
213.87
20
-150.727
11
213.87
21
-149.584
0
LINE
8
BLACK
6
CONTINUOUS
10
213.87
20
-149.584
11
214.013
21
-149.298
0
LINE
8
BLACK
6
CONTINUOUS
10
214.013
20
-149.298
11
214.298
21
-149.155
0
LINE
8
BLACK
6
CONTINUOUS
10
214.298
20
-149.155
11
214.87
21
-149.155
0
LINE
8
BLACK
6
CONTINUOUS
10
214.87
20
-149.155
11
215.155
21
-149.298
0
LINE
8
BLACK
6
CONTINUOUS
10
215.155
20
-149.298
11
215.298
21
-149.584
0
LINE
8
BLACK
6
CONTINUOUS
10
215.298
20
-149.584
11
215.298
21
-149.869
0
LINE
8
BLACK
6
CONTINUOUS
10
215.298
20
-149.869
11
213.87
21
-150.155
0
LINE
8
BLACK
6
CONTINUOUS
10
216.441
20
-151.012
11
216.727
21
-151.155
0
LINE
8
BLACK
6
CONTINUOUS
10
216.727
20
-151.155
11
217.298
21
-151.155
0
LINE
8
BLACK
6
CONTINUOUS
10
217.298
20
-151.155
11
217.584
21
-151.012
0
LINE
8
BLACK
6
CONTINUOUS
10
217.584
20
-151.012
11
217.727
21
-150.727
0
LINE
8
BLACK
6
CONTINUOUS
10
217.727
20
-150.727
11
217.727
21
-150.584
0
LINE
8
BLACK
6
CONTINUOUS
10
217.727
20
-150.584
11
217.584
21
-150.298
0
LINE
8
BLACK
6
CONTINUOUS
10
217.584
20
-150.298
11
217.298
21
-150.155
0
LINE
8
BLACK
6
CONTINUOUS
10
217.298
20
-150.155
11
216.87
21
-150.155
0
LINE
8
BLACK
6
CONTINUOUS
10
216.87
20
-150.155
11
216.584
21
-150.012
0
LINE
8
BLACK
6
CONTINUOUS
10
216.584
20
-150.012
11
216.441
21
-149.727
0
LINE
8
BLACK
6
CONTINUOUS
10
216.441
20
-149.727
11
216.441
21
-149.584
0
LINE
8
BLACK
6
CONTINUOUS
10
216.441
20
-149.584
11
216.584
21
-149.298
0
LINE
8
BLACK
6
CONTINUOUS
10
216.584
20
-149.298
11
216.87
21
-149.155
0
LINE
8
BLACK
6
CONTINUOUS
10
216.87
20
-149.155
11
217.298
21
-149.155
0
LINE
8
BLACK
6
CONTINUOUS
10
217.298
20
-149.155
11
217.584
21
-149.298
0
LINE
8
BLACK
6
CONTINUOUS
10
218.727
20
-152.298
11
218.87
21
-152.155
0
LINE
8
BLACK
6
CONTINUOUS
10
218.87
20
-152.155
11
219.155
21
-151.727
0
LINE
8
BLACK
6
CONTINUOUS
10
219.155
20
-151.727
11
219.298
21
-151.441
0
LINE
8
BLACK
6
CONTINUOUS
10
219.298
20
-151.441
11
219.441
21
-151.012
0
LINE
8
BLACK
6
CONTINUOUS
10
219.441
20
-151.012
11
219.584
21
-150.298
0
LINE
8
BLACK
6
CONTINUOUS
10
219.584
20
-150.298
11
219.584
21
-149.727
0
LINE
8
BLACK
6
CONTINUOUS
10
219.584
20
-149.727
11
219.441
21
-149.012
0
LINE
8
BLACK
6
CONTINUOUS
10
219.441
20
-149.012
11
219.298
21
-148.584
0
LINE
8
BLACK
6
CONTINUOUS
10
219.298
20
-148.584
11
219.155
21
-148.298
0
LINE
8
BLACK
6
CONTINUOUS
10
219.155
20
-148.298
11
218.87
21
-147.869
0
LINE
8
BLACK
6
CONTINUOUS
10
218.87
20
-147.869
11
218.727
21
-147.727
  0
ENDSEC
  0
EOF
