G04 #@! TF.GenerationSoftware,KiCad,Pcbnew,(5.1.2)-2*
G04 #@! TF.CreationDate,2020-04-17T11:06:59-04:00*
G04 #@! TF.ProjectId,DRV-Based Balun,4452562d-4261-4736-9564-2042616c756e,rev?*
G04 #@! TF.SameCoordinates,PX92ac188PY7692bc8*
G04 #@! TF.FileFunction,Copper,L2,Bot*
G04 #@! TF.FilePolarity,Positive*
%FSLAX46Y46*%
G04 Gerber Fmt 4.6, Leading zero omitted, Abs format (unit mm)*
G04 Created by KiCad (PCBNEW (5.1.2)-2) date 2020-04-17 11:06:59*
%MOMM*%
%LPD*%
G04 APERTURE LIST*
G04 #@! TA.AperFunction,ComponentPad*
%ADD10C,1.440000*%
G04 #@! TD*
G04 #@! TA.AperFunction,ComponentPad*
%ADD11C,1.600000*%
G04 #@! TD*
G04 #@! TA.AperFunction,ComponentPad*
%ADD12R,1.600000X1.600000*%
G04 #@! TD*
G04 #@! TA.AperFunction,ViaPad*
%ADD13C,3.500000*%
G04 #@! TD*
G04 #@! TA.AperFunction,ComponentPad*
%ADD14O,1.700000X1.700000*%
G04 #@! TD*
G04 #@! TA.AperFunction,ComponentPad*
%ADD15R,1.700000X1.700000*%
G04 #@! TD*
G04 #@! TA.AperFunction,ComponentPad*
%ADD16C,1.676400*%
G04 #@! TD*
G04 #@! TA.AperFunction,ComponentPad*
%ADD17R,1.676400X1.676400*%
G04 #@! TD*
G04 #@! TA.AperFunction,ComponentPad*
%ADD18O,1.600000X1.600000*%
G04 #@! TD*
G04 #@! TA.AperFunction,ViaPad*
%ADD19C,2.500000*%
G04 #@! TD*
G04 #@! TA.AperFunction,Conductor*
%ADD20C,0.600000*%
G04 #@! TD*
G04 APERTURE END LIST*
D10*
G04 #@! TO.P,RV1,3*
G04 #@! TO.N,Net-(R1-Pad2)*
X15113000Y29972000D03*
G04 #@! TO.P,RV1,2*
G04 #@! TO.N,Net-(R2-Pad1)*
X12573000Y29972000D03*
G04 #@! TO.P,RV1,1*
G04 #@! TO.N,Net-(RV1-Pad1)*
X10033000Y29972000D03*
G04 #@! TD*
D11*
G04 #@! TO.P,C5,2*
G04 #@! TO.N,GNDREF*
X32639000Y6684000D03*
G04 #@! TO.P,C5,1*
G04 #@! TO.N,-10V*
X32639000Y11684000D03*
G04 #@! TD*
G04 #@! TO.P,C4,2*
G04 #@! TO.N,GNDREF*
X28829000Y13796000D03*
G04 #@! TO.P,C4,1*
G04 #@! TO.N,+10V*
X28829000Y18796000D03*
G04 #@! TD*
G04 #@! TO.P,C3,2*
G04 #@! TO.N,GNDREF*
X29464000Y38942000D03*
G04 #@! TO.P,C3,1*
G04 #@! TO.N,-10V*
X29464000Y43942000D03*
G04 #@! TD*
G04 #@! TO.P,C2,2*
G04 #@! TO.N,GNDREF*
X35687000Y32846000D03*
G04 #@! TO.P,C2,1*
G04 #@! TO.N,+10V*
X35687000Y37846000D03*
G04 #@! TD*
G04 #@! TO.P,C1,2*
G04 #@! TO.N,-10V*
X14549000Y48260000D03*
D12*
G04 #@! TO.P,C1,1*
G04 #@! TO.N,+10V*
X11049000Y48260000D03*
G04 #@! TD*
D13*
G04 #@! TO.N,GNDREF*
G04 #@! TO.C,REF\002A\002A*
X26416000Y58420000D03*
G04 #@! TD*
G04 #@! TO.N,GNDREF*
G04 #@! TO.C,REF\002A\002A*
X26503000Y2483000D03*
G04 #@! TD*
G04 #@! TO.N,GNDREF*
G04 #@! TO.C,REF\002A\002A*
X41453000Y2483000D03*
G04 #@! TD*
G04 #@! TO.N,GNDREF*
G04 #@! TO.C,REF\002A\002A*
X50419000Y58420000D03*
G04 #@! TD*
D11*
G04 #@! TO.P,C6,2*
G04 #@! TO.N,-10V*
X18034000Y17192000D03*
G04 #@! TO.P,C6,1*
G04 #@! TO.N,+10V*
X18034000Y12192000D03*
G04 #@! TD*
D14*
G04 #@! TO.P,J5,S*
G04 #@! TO.N,GNDREF*
X47498000Y22225000D03*
G04 #@! TO.P,J5,R*
G04 #@! TO.N,Net-(J5-PadR)*
X47498000Y19685000D03*
D15*
G04 #@! TO.P,J5,T*
G04 #@! TO.N,Net-(J5-PadT)*
X47498000Y17145000D03*
G04 #@! TD*
D14*
G04 #@! TO.P,J4,S*
G04 #@! TO.N,GNDREF*
X47752000Y46736000D03*
G04 #@! TO.P,J4,R*
G04 #@! TO.N,Net-(J4-PadR)*
X47752000Y44196000D03*
D15*
G04 #@! TO.P,J4,T*
G04 #@! TO.N,Net-(J4-PadT)*
X47752000Y41656000D03*
G04 #@! TD*
D14*
G04 #@! TO.P,J3,2*
G04 #@! TO.N,GNDREF*
X35052000Y27305000D03*
D15*
G04 #@! TO.P,J3,1*
G04 #@! TO.N,Net-(J3-Pad1)*
X32512000Y27305000D03*
G04 #@! TD*
D14*
G04 #@! TO.P,J2,2*
G04 #@! TO.N,GNDREF*
X35687000Y52197000D03*
D15*
G04 #@! TO.P,J2,1*
G04 #@! TO.N,Net-(J2-Pad1)*
X33147000Y52197000D03*
G04 #@! TD*
D14*
G04 #@! TO.P,J1,2*
G04 #@! TO.N,-10V*
X6096000Y45593000D03*
D15*
G04 #@! TO.P,J1,1*
G04 #@! TO.N,+10V*
X6096000Y48133000D03*
G04 #@! TD*
D16*
G04 #@! TO.P,U3,8*
G04 #@! TO.N,Net-(J5-PadT)*
X40259000Y15494000D03*
G04 #@! TO.P,U3,7*
X37719000Y15494000D03*
G04 #@! TO.P,U3,6*
G04 #@! TO.N,+10V*
X35179000Y15494000D03*
G04 #@! TO.P,U3,5*
G04 #@! TO.N,-10V*
X32639000Y15494000D03*
G04 #@! TO.P,U3,4*
G04 #@! TO.N,Net-(J3-Pad1)*
X32639000Y23114000D03*
G04 #@! TO.P,U3,3*
G04 #@! TO.N,GNDREF*
X35179000Y23114000D03*
G04 #@! TO.P,U3,2*
G04 #@! TO.N,Net-(J5-PadR)*
X37719000Y23114000D03*
D17*
G04 #@! TO.P,U3,1*
X40259000Y23114000D03*
G04 #@! TD*
D16*
G04 #@! TO.P,U2,8*
G04 #@! TO.N,Net-(J4-PadT)*
X40767000Y40513000D03*
G04 #@! TO.P,U2,7*
X38227000Y40513000D03*
G04 #@! TO.P,U2,6*
G04 #@! TO.N,+10V*
X35687000Y40513000D03*
G04 #@! TO.P,U2,5*
G04 #@! TO.N,-10V*
X33147000Y40513000D03*
G04 #@! TO.P,U2,4*
G04 #@! TO.N,Net-(J2-Pad1)*
X33147000Y48133000D03*
G04 #@! TO.P,U2,3*
G04 #@! TO.N,GNDREF*
X35687000Y48133000D03*
G04 #@! TO.P,U2,2*
G04 #@! TO.N,Net-(J4-PadR)*
X38227000Y48133000D03*
D17*
G04 #@! TO.P,U2,1*
X40767000Y48133000D03*
G04 #@! TD*
D18*
G04 #@! TO.P,U1,8*
G04 #@! TO.N,+10V*
X14351000Y12319000D03*
G04 #@! TO.P,U1,4*
G04 #@! TO.N,-10V*
X6731000Y19939000D03*
G04 #@! TO.P,U1,7*
G04 #@! TO.N,Net-(U1-Pad6)*
X11811000Y12319000D03*
G04 #@! TO.P,U1,3*
G04 #@! TO.N,Net-(R2-Pad1)*
X9271000Y19939000D03*
G04 #@! TO.P,U1,6*
G04 #@! TO.N,Net-(U1-Pad6)*
X9271000Y12319000D03*
G04 #@! TO.P,U1,2*
G04 #@! TO.N,Net-(R3-Pad1)*
X11811000Y19939000D03*
G04 #@! TO.P,U1,5*
G04 #@! TO.N,GNDREF*
X6731000Y12319000D03*
D12*
G04 #@! TO.P,U1,1*
X14351000Y19939000D03*
G04 #@! TD*
D18*
G04 #@! TO.P,R3,2*
G04 #@! TO.N,GNDREF*
X25654000Y23876000D03*
D11*
G04 #@! TO.P,R3,1*
G04 #@! TO.N,Net-(R3-Pad1)*
X15494000Y23876000D03*
G04 #@! TD*
D18*
G04 #@! TO.P,R2,2*
G04 #@! TO.N,-10V*
X3810000Y35560000D03*
D11*
G04 #@! TO.P,R2,1*
G04 #@! TO.N,Net-(R2-Pad1)*
X13970000Y35560000D03*
G04 #@! TD*
D18*
G04 #@! TO.P,R1,2*
G04 #@! TO.N,Net-(R1-Pad2)*
X16256000Y40132000D03*
D11*
G04 #@! TO.P,R1,1*
G04 #@! TO.N,+10V*
X6096000Y40132000D03*
G04 #@! TD*
D19*
G04 #@! TO.N,-10V*
X17907000Y52578000D03*
X17780000Y7874000D03*
G04 #@! TD*
D20*
G04 #@! TO.N,-10V*
G36*
X19923701Y52985873D02*
G01*
X19900822Y17569132D01*
X19816383Y17876202D01*
X19648654Y18210781D01*
X19593132Y18293874D01*
X19207092Y18329736D01*
X18069355Y17192000D01*
X19207092Y16054264D01*
X19593132Y16090126D01*
X19778138Y16415469D01*
X19896119Y16770655D01*
X19900327Y16804324D01*
X19897587Y12562194D01*
X19860984Y12746209D01*
X19717758Y13091987D01*
X19509826Y13403179D01*
X19245179Y13667826D01*
X18933987Y13875758D01*
X18588209Y14018984D01*
X18221134Y14092000D01*
X17846866Y14092000D01*
X17479791Y14018984D01*
X17134013Y13875758D01*
X16822821Y13667826D01*
X16558174Y13403179D01*
X16350242Y13091987D01*
X16207016Y12746209D01*
X16206971Y12745981D01*
X16114864Y13049617D01*
X15938436Y13379691D01*
X15701003Y13669003D01*
X15411691Y13906436D01*
X15081617Y14082864D01*
X14723465Y14191508D01*
X14444337Y14219000D01*
X14257663Y14219000D01*
X13978535Y14191508D01*
X13620383Y14082864D01*
X13290309Y13906436D01*
X13081000Y13734660D01*
X12871691Y13906436D01*
X12541617Y14082864D01*
X12183465Y14191508D01*
X11904337Y14219000D01*
X11717663Y14219000D01*
X11438535Y14191508D01*
X11080383Y14082864D01*
X10750309Y13906436D01*
X10541000Y13734660D01*
X10331691Y13906436D01*
X10001617Y14082864D01*
X9643465Y14191508D01*
X9364337Y14219000D01*
X9177663Y14219000D01*
X8898535Y14191508D01*
X8540383Y14082864D01*
X8210309Y13906436D01*
X8001000Y13734660D01*
X7791691Y13906436D01*
X7461617Y14082864D01*
X7103465Y14191508D01*
X6824337Y14219000D01*
X6637663Y14219000D01*
X6358535Y14191508D01*
X6000383Y14082864D01*
X5670309Y13906436D01*
X5380997Y13669003D01*
X5143564Y13379691D01*
X4967136Y13049617D01*
X4858492Y12691465D01*
X4821807Y12319000D01*
X4858492Y11946535D01*
X4967136Y11588383D01*
X5143564Y11258309D01*
X5380997Y10968997D01*
X5670309Y10731564D01*
X6000383Y10555136D01*
X6358535Y10446492D01*
X6637663Y10419000D01*
X6824337Y10419000D01*
X7103465Y10446492D01*
X7461617Y10555136D01*
X7791691Y10731564D01*
X8001000Y10903340D01*
X8210309Y10731564D01*
X8540383Y10555136D01*
X8898535Y10446492D01*
X9177663Y10419000D01*
X9364337Y10419000D01*
X9643465Y10446492D01*
X10001617Y10555136D01*
X10331691Y10731564D01*
X10541000Y10903340D01*
X10750309Y10731564D01*
X11080383Y10555136D01*
X11438535Y10446492D01*
X11717663Y10419000D01*
X11904337Y10419000D01*
X12183465Y10446492D01*
X12541617Y10555136D01*
X12871691Y10731564D01*
X13081000Y10903340D01*
X13290309Y10731564D01*
X13620383Y10555136D01*
X13978535Y10446492D01*
X14257663Y10419000D01*
X14444337Y10419000D01*
X14723465Y10446492D01*
X15081617Y10555136D01*
X15411691Y10731564D01*
X15701003Y10968997D01*
X15938436Y11258309D01*
X16114864Y11588383D01*
X16176456Y11791425D01*
X16207016Y11637791D01*
X16350242Y11292013D01*
X16558174Y10980821D01*
X16822821Y10716174D01*
X17134013Y10508242D01*
X17479791Y10365016D01*
X17846866Y10292000D01*
X18221134Y10292000D01*
X18588209Y10365016D01*
X18933987Y10508242D01*
X19245179Y10716174D01*
X19509826Y10980821D01*
X19717758Y11292013D01*
X19860984Y11637791D01*
X19897107Y11819394D01*
X19894049Y7085402D01*
X18568792Y5761000D01*
X3211821Y5761000D01*
X1888549Y7085127D01*
X1894319Y16018908D01*
X16896264Y16018908D01*
X16932126Y15632868D01*
X17257469Y15447862D01*
X17612655Y15329881D01*
X17984032Y15283460D01*
X18357330Y15310384D01*
X18718202Y15409617D01*
X19052781Y15577346D01*
X19135874Y15632868D01*
X19171736Y16018908D01*
X18034000Y17156645D01*
X16896264Y16018908D01*
X1894319Y16018908D01*
X1895109Y17241968D01*
X16125460Y17241968D01*
X16152384Y16868670D01*
X16251617Y16507798D01*
X16419346Y16173219D01*
X16474868Y16090126D01*
X16860908Y16054264D01*
X17998645Y17192000D01*
X16860908Y18329736D01*
X16474868Y18293874D01*
X16289862Y17968531D01*
X16171881Y17613345D01*
X16125460Y17241968D01*
X1895109Y17241968D01*
X1896644Y19617108D01*
X4858465Y19617108D01*
X4957243Y19257980D01*
X5124186Y18925023D01*
X5352878Y18631032D01*
X5634530Y18387306D01*
X5958319Y18203211D01*
X6311801Y18085821D01*
X6409108Y18066465D01*
X6706000Y18314192D01*
X6706000Y19914000D01*
X5106164Y19914000D01*
X4858465Y19617108D01*
X1896644Y19617108D01*
X1897059Y20260892D01*
X4858465Y20260892D01*
X5106164Y19964000D01*
X6706000Y19964000D01*
X6706000Y21563808D01*
X6756000Y21563808D01*
X6756000Y19964000D01*
X6776000Y19964000D01*
X6776000Y19914000D01*
X6756000Y19914000D01*
X6756000Y18314192D01*
X7052892Y18066465D01*
X7150199Y18085821D01*
X7503681Y18203211D01*
X7827470Y18387306D01*
X7992620Y18530217D01*
X8210309Y18351564D01*
X8540383Y18175136D01*
X8898535Y18066492D01*
X9177663Y18039000D01*
X9364337Y18039000D01*
X9643465Y18066492D01*
X10001617Y18175136D01*
X10331691Y18351564D01*
X10541000Y18523340D01*
X10750309Y18351564D01*
X11080383Y18175136D01*
X11438535Y18066492D01*
X11717663Y18039000D01*
X11904337Y18039000D01*
X12183465Y18066492D01*
X12541617Y18175136D01*
X12814077Y18320769D01*
X12936916Y18219958D01*
X13128012Y18117816D01*
X13335362Y18054916D01*
X13551000Y18033678D01*
X15151000Y18033678D01*
X15366638Y18054916D01*
X15573988Y18117816D01*
X15765084Y18219958D01*
X15932581Y18357419D01*
X15938878Y18365092D01*
X16896264Y18365092D01*
X18034000Y17227355D01*
X19171736Y18365092D01*
X19135874Y18751132D01*
X18810531Y18936138D01*
X18455345Y19054119D01*
X18083968Y19100540D01*
X17710670Y19073616D01*
X17349798Y18974383D01*
X17015219Y18806654D01*
X16932126Y18751132D01*
X16896264Y18365092D01*
X15938878Y18365092D01*
X16070042Y18524916D01*
X16172184Y18716012D01*
X16235084Y18923362D01*
X16256322Y19139000D01*
X16256322Y20739000D01*
X16235084Y20954638D01*
X16172184Y21161988D01*
X16070042Y21353084D01*
X15932581Y21520581D01*
X15765084Y21658042D01*
X15573988Y21760184D01*
X15366638Y21823084D01*
X15151000Y21844322D01*
X13551000Y21844322D01*
X13335362Y21823084D01*
X13128012Y21760184D01*
X12936916Y21658042D01*
X12814077Y21557231D01*
X12541617Y21702864D01*
X12183465Y21811508D01*
X11904337Y21839000D01*
X11717663Y21839000D01*
X11438535Y21811508D01*
X11080383Y21702864D01*
X10750309Y21526436D01*
X10541000Y21354660D01*
X10331691Y21526436D01*
X10001617Y21702864D01*
X9643465Y21811508D01*
X9364337Y21839000D01*
X9177663Y21839000D01*
X8898535Y21811508D01*
X8540383Y21702864D01*
X8210309Y21526436D01*
X7992620Y21347783D01*
X7827470Y21490694D01*
X7503681Y21674789D01*
X7150199Y21792179D01*
X7052892Y21811535D01*
X6756000Y21563808D01*
X6706000Y21563808D01*
X6409108Y21811535D01*
X6311801Y21792179D01*
X5958319Y21674789D01*
X5634530Y21490694D01*
X5352878Y21246968D01*
X5124186Y20952977D01*
X4957243Y20620020D01*
X4858465Y20260892D01*
X1897059Y20260892D01*
X1899515Y24063134D01*
X13594000Y24063134D01*
X13594000Y23688866D01*
X13667016Y23321791D01*
X13810242Y22976013D01*
X14018174Y22664821D01*
X14282821Y22400174D01*
X14594013Y22192242D01*
X14939791Y22049016D01*
X15306866Y21976000D01*
X15681134Y21976000D01*
X16048209Y22049016D01*
X16393987Y22192242D01*
X16705179Y22400174D01*
X16969826Y22664821D01*
X17177758Y22976013D01*
X17320984Y23321791D01*
X17394000Y23688866D01*
X17394000Y24063134D01*
X17320984Y24430209D01*
X17177758Y24775987D01*
X16969826Y25087179D01*
X16705179Y25351826D01*
X16393987Y25559758D01*
X16048209Y25702984D01*
X15681134Y25776000D01*
X15306866Y25776000D01*
X14939791Y25702984D01*
X14594013Y25559758D01*
X14282821Y25351826D01*
X14018174Y25087179D01*
X13810242Y24775987D01*
X13667016Y24430209D01*
X13594000Y24063134D01*
X1899515Y24063134D01*
X1903448Y30151254D01*
X8213000Y30151254D01*
X8213000Y29792746D01*
X8282942Y29441126D01*
X8420137Y29109907D01*
X8619314Y28811818D01*
X8872818Y28558314D01*
X9170907Y28359137D01*
X9502126Y28221942D01*
X9853746Y28152000D01*
X10212254Y28152000D01*
X10563874Y28221942D01*
X10895093Y28359137D01*
X11193182Y28558314D01*
X11303000Y28668132D01*
X11412818Y28558314D01*
X11710907Y28359137D01*
X12042126Y28221942D01*
X12393746Y28152000D01*
X12752254Y28152000D01*
X13103874Y28221942D01*
X13435093Y28359137D01*
X13733182Y28558314D01*
X13843000Y28668132D01*
X13952818Y28558314D01*
X14250907Y28359137D01*
X14582126Y28221942D01*
X14933746Y28152000D01*
X15292254Y28152000D01*
X15643874Y28221942D01*
X15975093Y28359137D01*
X16273182Y28558314D01*
X16526686Y28811818D01*
X16725863Y29109907D01*
X16863058Y29441126D01*
X16933000Y29792746D01*
X16933000Y30151254D01*
X16863058Y30502874D01*
X16725863Y30834093D01*
X16526686Y31132182D01*
X16273182Y31385686D01*
X15975093Y31584863D01*
X15643874Y31722058D01*
X15292254Y31792000D01*
X14933746Y31792000D01*
X14582126Y31722058D01*
X14250907Y31584863D01*
X13952818Y31385686D01*
X13843000Y31275868D01*
X13733182Y31385686D01*
X13435093Y31584863D01*
X13103874Y31722058D01*
X12752254Y31792000D01*
X12393746Y31792000D01*
X12042126Y31722058D01*
X11710907Y31584863D01*
X11412818Y31385686D01*
X11303000Y31275868D01*
X11193182Y31385686D01*
X10895093Y31584863D01*
X10563874Y31722058D01*
X10212254Y31792000D01*
X9853746Y31792000D01*
X9502126Y31722058D01*
X9170907Y31584863D01*
X8872818Y31385686D01*
X8619314Y31132182D01*
X8420137Y30834093D01*
X8282942Y30502874D01*
X8213000Y30151254D01*
X1903448Y30151254D01*
X1906735Y35238108D01*
X1937465Y35238108D01*
X1956821Y35140801D01*
X2074211Y34787319D01*
X2258306Y34463530D01*
X2502032Y34181878D01*
X2796023Y33953186D01*
X3128980Y33786243D01*
X3488108Y33687465D01*
X3785000Y33935164D01*
X3785000Y35535000D01*
X3835000Y35535000D01*
X3835000Y33935164D01*
X4131892Y33687465D01*
X4491020Y33786243D01*
X4823977Y33953186D01*
X5117968Y34181878D01*
X5361694Y34463530D01*
X5545789Y34787319D01*
X5663179Y35140801D01*
X5682535Y35238108D01*
X5434808Y35535000D01*
X3835000Y35535000D01*
X3785000Y35535000D01*
X2185192Y35535000D01*
X1937465Y35238108D01*
X1906735Y35238108D01*
X1907150Y35881892D01*
X1937465Y35881892D01*
X2185192Y35585000D01*
X3785000Y35585000D01*
X3785000Y37184836D01*
X3835000Y37184836D01*
X3835000Y35585000D01*
X5434808Y35585000D01*
X5570092Y35747134D01*
X12070000Y35747134D01*
X12070000Y35372866D01*
X12143016Y35005791D01*
X12286242Y34660013D01*
X12494174Y34348821D01*
X12758821Y34084174D01*
X13070013Y33876242D01*
X13415791Y33733016D01*
X13782866Y33660000D01*
X14157134Y33660000D01*
X14524209Y33733016D01*
X14869987Y33876242D01*
X15181179Y34084174D01*
X15445826Y34348821D01*
X15653758Y34660013D01*
X15796984Y35005791D01*
X15870000Y35372866D01*
X15870000Y35747134D01*
X15796984Y36114209D01*
X15653758Y36459987D01*
X15445826Y36771179D01*
X15181179Y37035826D01*
X14869987Y37243758D01*
X14524209Y37386984D01*
X14157134Y37460000D01*
X13782866Y37460000D01*
X13415791Y37386984D01*
X13070013Y37243758D01*
X12758821Y37035826D01*
X12494174Y36771179D01*
X12286242Y36459987D01*
X12143016Y36114209D01*
X12070000Y35747134D01*
X5570092Y35747134D01*
X5682535Y35881892D01*
X5663179Y35979199D01*
X5545789Y36332681D01*
X5361694Y36656470D01*
X5117968Y36938122D01*
X4823977Y37166814D01*
X4491020Y37333757D01*
X4131892Y37432535D01*
X3835000Y37184836D01*
X3785000Y37184836D01*
X3488108Y37432535D01*
X3128980Y37333757D01*
X2796023Y37166814D01*
X2502032Y36938122D01*
X2258306Y36656470D01*
X2074211Y36332681D01*
X1956821Y35979199D01*
X1937465Y35881892D01*
X1907150Y35881892D01*
X1910016Y40319134D01*
X4196000Y40319134D01*
X4196000Y39944866D01*
X4269016Y39577791D01*
X4412242Y39232013D01*
X4620174Y38920821D01*
X4884821Y38656174D01*
X5196013Y38448242D01*
X5541791Y38305016D01*
X5908866Y38232000D01*
X6283134Y38232000D01*
X6650209Y38305016D01*
X6995987Y38448242D01*
X7307179Y38656174D01*
X7571826Y38920821D01*
X7779758Y39232013D01*
X7922984Y39577791D01*
X7996000Y39944866D01*
X7996000Y40132000D01*
X14346807Y40132000D01*
X14383492Y39759535D01*
X14492136Y39401383D01*
X14668564Y39071309D01*
X14905997Y38781997D01*
X15195309Y38544564D01*
X15525383Y38368136D01*
X15883535Y38259492D01*
X16162663Y38232000D01*
X16349337Y38232000D01*
X16628465Y38259492D01*
X16986617Y38368136D01*
X17316691Y38544564D01*
X17606003Y38781997D01*
X17843436Y39071309D01*
X18019864Y39401383D01*
X18128508Y39759535D01*
X18165193Y40132000D01*
X18128508Y40504465D01*
X18019864Y40862617D01*
X17843436Y41192691D01*
X17606003Y41482003D01*
X17316691Y41719436D01*
X16986617Y41895864D01*
X16628465Y42004508D01*
X16349337Y42032000D01*
X16162663Y42032000D01*
X15883535Y42004508D01*
X15525383Y41895864D01*
X15195309Y41719436D01*
X14905997Y41482003D01*
X14668564Y41192691D01*
X14492136Y40862617D01*
X14383492Y40504465D01*
X14346807Y40132000D01*
X7996000Y40132000D01*
X7996000Y40319134D01*
X7922984Y40686209D01*
X7779758Y41031987D01*
X7571826Y41343179D01*
X7307179Y41607826D01*
X6995987Y41815758D01*
X6650209Y41958984D01*
X6283134Y42032000D01*
X5908866Y42032000D01*
X5541791Y41958984D01*
X5196013Y41815758D01*
X4884821Y41607826D01*
X4620174Y41343179D01*
X4412242Y41031987D01*
X4269016Y40686209D01*
X4196000Y40319134D01*
X1910016Y40319134D01*
X1913210Y45263286D01*
X4174077Y45263286D01*
X4194199Y45162128D01*
X4314801Y44799384D01*
X4503853Y44467138D01*
X4754090Y44178159D01*
X5055896Y43943551D01*
X5397673Y43772330D01*
X5766286Y43671077D01*
X6071000Y43918160D01*
X6071000Y45568000D01*
X6121000Y45568000D01*
X6121000Y43918160D01*
X6425714Y43671077D01*
X6794327Y43772330D01*
X7136104Y43943551D01*
X7437910Y44178159D01*
X7688147Y44467138D01*
X7877199Y44799384D01*
X7997801Y45162128D01*
X8017923Y45263286D01*
X7770813Y45568000D01*
X6121000Y45568000D01*
X6071000Y45568000D01*
X4421187Y45568000D01*
X4174077Y45263286D01*
X1913210Y45263286D01*
X1915614Y48983000D01*
X4140678Y48983000D01*
X4140678Y47283000D01*
X4161916Y47067362D01*
X4224816Y46860012D01*
X4326958Y46668916D01*
X4414640Y46562076D01*
X4314801Y46386616D01*
X4194199Y46023872D01*
X4174077Y45922714D01*
X4421187Y45618000D01*
X6071000Y45618000D01*
X6071000Y45638000D01*
X6121000Y45638000D01*
X6121000Y45618000D01*
X7770813Y45618000D01*
X8017923Y45922714D01*
X7997801Y46023872D01*
X7877199Y46386616D01*
X7777360Y46562076D01*
X7865042Y46668916D01*
X7967184Y46860012D01*
X8030084Y47067362D01*
X8051322Y47283000D01*
X8051322Y48983000D01*
X8043739Y49060000D01*
X9143678Y49060000D01*
X9143678Y47460000D01*
X9164916Y47244362D01*
X9227816Y47037012D01*
X9329958Y46845916D01*
X9467419Y46678419D01*
X9634916Y46540958D01*
X9826012Y46438816D01*
X10033362Y46375916D01*
X10249000Y46354678D01*
X11849000Y46354678D01*
X12064638Y46375916D01*
X12271988Y46438816D01*
X12463084Y46540958D01*
X12630581Y46678419D01*
X12768042Y46845916D01*
X12870184Y47037012D01*
X12885320Y47086908D01*
X13411264Y47086908D01*
X13447126Y46700868D01*
X13772469Y46515862D01*
X14127655Y46397881D01*
X14499032Y46351460D01*
X14872330Y46378384D01*
X15233202Y46477617D01*
X15567781Y46645346D01*
X15650874Y46700868D01*
X15686736Y47086908D01*
X14549000Y48224645D01*
X13411264Y47086908D01*
X12885320Y47086908D01*
X12932966Y47243972D01*
X12934346Y47241219D01*
X12989868Y47158126D01*
X13375908Y47122264D01*
X14513645Y48260000D01*
X14584355Y48260000D01*
X15722092Y47122264D01*
X16108132Y47158126D01*
X16293138Y47483469D01*
X16411119Y47838655D01*
X16457540Y48210032D01*
X16430616Y48583330D01*
X16331383Y48944202D01*
X16163654Y49278781D01*
X16108132Y49361874D01*
X15722092Y49397736D01*
X14584355Y48260000D01*
X14513645Y48260000D01*
X13375908Y49397736D01*
X12989868Y49361874D01*
X12934228Y49264027D01*
X12933084Y49275638D01*
X12885321Y49433092D01*
X13411264Y49433092D01*
X14549000Y48295355D01*
X15686736Y49433092D01*
X15650874Y49819132D01*
X15325531Y50004138D01*
X14970345Y50122119D01*
X14598968Y50168540D01*
X14225670Y50141616D01*
X13864798Y50042383D01*
X13530219Y49874654D01*
X13447126Y49819132D01*
X13411264Y49433092D01*
X12885321Y49433092D01*
X12870184Y49482988D01*
X12768042Y49674084D01*
X12630581Y49841581D01*
X12463084Y49979042D01*
X12271988Y50081184D01*
X12064638Y50144084D01*
X11849000Y50165322D01*
X10249000Y50165322D01*
X10033362Y50144084D01*
X9826012Y50081184D01*
X9634916Y49979042D01*
X9467419Y49841581D01*
X9329958Y49674084D01*
X9227816Y49482988D01*
X9164916Y49275638D01*
X9143678Y49060000D01*
X8043739Y49060000D01*
X8030084Y49198638D01*
X7967184Y49405988D01*
X7865042Y49597084D01*
X7727581Y49764581D01*
X7560084Y49902042D01*
X7368988Y50004184D01*
X7161638Y50067084D01*
X6946000Y50088322D01*
X5246000Y50088322D01*
X5030362Y50067084D01*
X4823012Y50004184D01*
X4631916Y49902042D01*
X4464419Y49764581D01*
X4326958Y49597084D01*
X4224816Y49405988D01*
X4161916Y49198638D01*
X4140678Y48983000D01*
X1915614Y48983000D01*
X1917824Y52402665D01*
X2242301Y52453318D01*
X2265307Y52458491D01*
X2288695Y52461559D01*
X2387785Y52486032D01*
X3533912Y52824936D01*
X3556029Y52833105D01*
X3578808Y52839240D01*
X3673791Y52876602D01*
X4765027Y53364111D01*
X4785872Y53375135D01*
X4807638Y53384228D01*
X4896845Y53433825D01*
X5914020Y54061375D01*
X5933225Y54075060D01*
X5953595Y54086950D01*
X6035459Y54147909D01*
X6233688Y54310000D01*
X18600429Y54310000D01*
X19923701Y52985873D01*
X19923701Y52985873D01*
G37*
X19923701Y52985873D02*
X19900822Y17569132D01*
X19816383Y17876202D01*
X19648654Y18210781D01*
X19593132Y18293874D01*
X19207092Y18329736D01*
X18069355Y17192000D01*
X19207092Y16054264D01*
X19593132Y16090126D01*
X19778138Y16415469D01*
X19896119Y16770655D01*
X19900327Y16804324D01*
X19897587Y12562194D01*
X19860984Y12746209D01*
X19717758Y13091987D01*
X19509826Y13403179D01*
X19245179Y13667826D01*
X18933987Y13875758D01*
X18588209Y14018984D01*
X18221134Y14092000D01*
X17846866Y14092000D01*
X17479791Y14018984D01*
X17134013Y13875758D01*
X16822821Y13667826D01*
X16558174Y13403179D01*
X16350242Y13091987D01*
X16207016Y12746209D01*
X16206971Y12745981D01*
X16114864Y13049617D01*
X15938436Y13379691D01*
X15701003Y13669003D01*
X15411691Y13906436D01*
X15081617Y14082864D01*
X14723465Y14191508D01*
X14444337Y14219000D01*
X14257663Y14219000D01*
X13978535Y14191508D01*
X13620383Y14082864D01*
X13290309Y13906436D01*
X13081000Y13734660D01*
X12871691Y13906436D01*
X12541617Y14082864D01*
X12183465Y14191508D01*
X11904337Y14219000D01*
X11717663Y14219000D01*
X11438535Y14191508D01*
X11080383Y14082864D01*
X10750309Y13906436D01*
X10541000Y13734660D01*
X10331691Y13906436D01*
X10001617Y14082864D01*
X9643465Y14191508D01*
X9364337Y14219000D01*
X9177663Y14219000D01*
X8898535Y14191508D01*
X8540383Y14082864D01*
X8210309Y13906436D01*
X8001000Y13734660D01*
X7791691Y13906436D01*
X7461617Y14082864D01*
X7103465Y14191508D01*
X6824337Y14219000D01*
X6637663Y14219000D01*
X6358535Y14191508D01*
X6000383Y14082864D01*
X5670309Y13906436D01*
X5380997Y13669003D01*
X5143564Y13379691D01*
X4967136Y13049617D01*
X4858492Y12691465D01*
X4821807Y12319000D01*
X4858492Y11946535D01*
X4967136Y11588383D01*
X5143564Y11258309D01*
X5380997Y10968997D01*
X5670309Y10731564D01*
X6000383Y10555136D01*
X6358535Y10446492D01*
X6637663Y10419000D01*
X6824337Y10419000D01*
X7103465Y10446492D01*
X7461617Y10555136D01*
X7791691Y10731564D01*
X8001000Y10903340D01*
X8210309Y10731564D01*
X8540383Y10555136D01*
X8898535Y10446492D01*
X9177663Y10419000D01*
X9364337Y10419000D01*
X9643465Y10446492D01*
X10001617Y10555136D01*
X10331691Y10731564D01*
X10541000Y10903340D01*
X10750309Y10731564D01*
X11080383Y10555136D01*
X11438535Y10446492D01*
X11717663Y10419000D01*
X11904337Y10419000D01*
X12183465Y10446492D01*
X12541617Y10555136D01*
X12871691Y10731564D01*
X13081000Y10903340D01*
X13290309Y10731564D01*
X13620383Y10555136D01*
X13978535Y10446492D01*
X14257663Y10419000D01*
X14444337Y10419000D01*
X14723465Y10446492D01*
X15081617Y10555136D01*
X15411691Y10731564D01*
X15701003Y10968997D01*
X15938436Y11258309D01*
X16114864Y11588383D01*
X16176456Y11791425D01*
X16207016Y11637791D01*
X16350242Y11292013D01*
X16558174Y10980821D01*
X16822821Y10716174D01*
X17134013Y10508242D01*
X17479791Y10365016D01*
X17846866Y10292000D01*
X18221134Y10292000D01*
X18588209Y10365016D01*
X18933987Y10508242D01*
X19245179Y10716174D01*
X19509826Y10980821D01*
X19717758Y11292013D01*
X19860984Y11637791D01*
X19897107Y11819394D01*
X19894049Y7085402D01*
X18568792Y5761000D01*
X3211821Y5761000D01*
X1888549Y7085127D01*
X1894319Y16018908D01*
X16896264Y16018908D01*
X16932126Y15632868D01*
X17257469Y15447862D01*
X17612655Y15329881D01*
X17984032Y15283460D01*
X18357330Y15310384D01*
X18718202Y15409617D01*
X19052781Y15577346D01*
X19135874Y15632868D01*
X19171736Y16018908D01*
X18034000Y17156645D01*
X16896264Y16018908D01*
X1894319Y16018908D01*
X1895109Y17241968D01*
X16125460Y17241968D01*
X16152384Y16868670D01*
X16251617Y16507798D01*
X16419346Y16173219D01*
X16474868Y16090126D01*
X16860908Y16054264D01*
X17998645Y17192000D01*
X16860908Y18329736D01*
X16474868Y18293874D01*
X16289862Y17968531D01*
X16171881Y17613345D01*
X16125460Y17241968D01*
X1895109Y17241968D01*
X1896644Y19617108D01*
X4858465Y19617108D01*
X4957243Y19257980D01*
X5124186Y18925023D01*
X5352878Y18631032D01*
X5634530Y18387306D01*
X5958319Y18203211D01*
X6311801Y18085821D01*
X6409108Y18066465D01*
X6706000Y18314192D01*
X6706000Y19914000D01*
X5106164Y19914000D01*
X4858465Y19617108D01*
X1896644Y19617108D01*
X1897059Y20260892D01*
X4858465Y20260892D01*
X5106164Y19964000D01*
X6706000Y19964000D01*
X6706000Y21563808D01*
X6756000Y21563808D01*
X6756000Y19964000D01*
X6776000Y19964000D01*
X6776000Y19914000D01*
X6756000Y19914000D01*
X6756000Y18314192D01*
X7052892Y18066465D01*
X7150199Y18085821D01*
X7503681Y18203211D01*
X7827470Y18387306D01*
X7992620Y18530217D01*
X8210309Y18351564D01*
X8540383Y18175136D01*
X8898535Y18066492D01*
X9177663Y18039000D01*
X9364337Y18039000D01*
X9643465Y18066492D01*
X10001617Y18175136D01*
X10331691Y18351564D01*
X10541000Y18523340D01*
X10750309Y18351564D01*
X11080383Y18175136D01*
X11438535Y18066492D01*
X11717663Y18039000D01*
X11904337Y18039000D01*
X12183465Y18066492D01*
X12541617Y18175136D01*
X12814077Y18320769D01*
X12936916Y18219958D01*
X13128012Y18117816D01*
X13335362Y18054916D01*
X13551000Y18033678D01*
X15151000Y18033678D01*
X15366638Y18054916D01*
X15573988Y18117816D01*
X15765084Y18219958D01*
X15932581Y18357419D01*
X15938878Y18365092D01*
X16896264Y18365092D01*
X18034000Y17227355D01*
X19171736Y18365092D01*
X19135874Y18751132D01*
X18810531Y18936138D01*
X18455345Y19054119D01*
X18083968Y19100540D01*
X17710670Y19073616D01*
X17349798Y18974383D01*
X17015219Y18806654D01*
X16932126Y18751132D01*
X16896264Y18365092D01*
X15938878Y18365092D01*
X16070042Y18524916D01*
X16172184Y18716012D01*
X16235084Y18923362D01*
X16256322Y19139000D01*
X16256322Y20739000D01*
X16235084Y20954638D01*
X16172184Y21161988D01*
X16070042Y21353084D01*
X15932581Y21520581D01*
X15765084Y21658042D01*
X15573988Y21760184D01*
X15366638Y21823084D01*
X15151000Y21844322D01*
X13551000Y21844322D01*
X13335362Y21823084D01*
X13128012Y21760184D01*
X12936916Y21658042D01*
X12814077Y21557231D01*
X12541617Y21702864D01*
X12183465Y21811508D01*
X11904337Y21839000D01*
X11717663Y21839000D01*
X11438535Y21811508D01*
X11080383Y21702864D01*
X10750309Y21526436D01*
X10541000Y21354660D01*
X10331691Y21526436D01*
X10001617Y21702864D01*
X9643465Y21811508D01*
X9364337Y21839000D01*
X9177663Y21839000D01*
X8898535Y21811508D01*
X8540383Y21702864D01*
X8210309Y21526436D01*
X7992620Y21347783D01*
X7827470Y21490694D01*
X7503681Y21674789D01*
X7150199Y21792179D01*
X7052892Y21811535D01*
X6756000Y21563808D01*
X6706000Y21563808D01*
X6409108Y21811535D01*
X6311801Y21792179D01*
X5958319Y21674789D01*
X5634530Y21490694D01*
X5352878Y21246968D01*
X5124186Y20952977D01*
X4957243Y20620020D01*
X4858465Y20260892D01*
X1897059Y20260892D01*
X1899515Y24063134D01*
X13594000Y24063134D01*
X13594000Y23688866D01*
X13667016Y23321791D01*
X13810242Y22976013D01*
X14018174Y22664821D01*
X14282821Y22400174D01*
X14594013Y22192242D01*
X14939791Y22049016D01*
X15306866Y21976000D01*
X15681134Y21976000D01*
X16048209Y22049016D01*
X16393987Y22192242D01*
X16705179Y22400174D01*
X16969826Y22664821D01*
X17177758Y22976013D01*
X17320984Y23321791D01*
X17394000Y23688866D01*
X17394000Y24063134D01*
X17320984Y24430209D01*
X17177758Y24775987D01*
X16969826Y25087179D01*
X16705179Y25351826D01*
X16393987Y25559758D01*
X16048209Y25702984D01*
X15681134Y25776000D01*
X15306866Y25776000D01*
X14939791Y25702984D01*
X14594013Y25559758D01*
X14282821Y25351826D01*
X14018174Y25087179D01*
X13810242Y24775987D01*
X13667016Y24430209D01*
X13594000Y24063134D01*
X1899515Y24063134D01*
X1903448Y30151254D01*
X8213000Y30151254D01*
X8213000Y29792746D01*
X8282942Y29441126D01*
X8420137Y29109907D01*
X8619314Y28811818D01*
X8872818Y28558314D01*
X9170907Y28359137D01*
X9502126Y28221942D01*
X9853746Y28152000D01*
X10212254Y28152000D01*
X10563874Y28221942D01*
X10895093Y28359137D01*
X11193182Y28558314D01*
X11303000Y28668132D01*
X11412818Y28558314D01*
X11710907Y28359137D01*
X12042126Y28221942D01*
X12393746Y28152000D01*
X12752254Y28152000D01*
X13103874Y28221942D01*
X13435093Y28359137D01*
X13733182Y28558314D01*
X13843000Y28668132D01*
X13952818Y28558314D01*
X14250907Y28359137D01*
X14582126Y28221942D01*
X14933746Y28152000D01*
X15292254Y28152000D01*
X15643874Y28221942D01*
X15975093Y28359137D01*
X16273182Y28558314D01*
X16526686Y28811818D01*
X16725863Y29109907D01*
X16863058Y29441126D01*
X16933000Y29792746D01*
X16933000Y30151254D01*
X16863058Y30502874D01*
X16725863Y30834093D01*
X16526686Y31132182D01*
X16273182Y31385686D01*
X15975093Y31584863D01*
X15643874Y31722058D01*
X15292254Y31792000D01*
X14933746Y31792000D01*
X14582126Y31722058D01*
X14250907Y31584863D01*
X13952818Y31385686D01*
X13843000Y31275868D01*
X13733182Y31385686D01*
X13435093Y31584863D01*
X13103874Y31722058D01*
X12752254Y31792000D01*
X12393746Y31792000D01*
X12042126Y31722058D01*
X11710907Y31584863D01*
X11412818Y31385686D01*
X11303000Y31275868D01*
X11193182Y31385686D01*
X10895093Y31584863D01*
X10563874Y31722058D01*
X10212254Y31792000D01*
X9853746Y31792000D01*
X9502126Y31722058D01*
X9170907Y31584863D01*
X8872818Y31385686D01*
X8619314Y31132182D01*
X8420137Y30834093D01*
X8282942Y30502874D01*
X8213000Y30151254D01*
X1903448Y30151254D01*
X1906735Y35238108D01*
X1937465Y35238108D01*
X1956821Y35140801D01*
X2074211Y34787319D01*
X2258306Y34463530D01*
X2502032Y34181878D01*
X2796023Y33953186D01*
X3128980Y33786243D01*
X3488108Y33687465D01*
X3785000Y33935164D01*
X3785000Y35535000D01*
X3835000Y35535000D01*
X3835000Y33935164D01*
X4131892Y33687465D01*
X4491020Y33786243D01*
X4823977Y33953186D01*
X5117968Y34181878D01*
X5361694Y34463530D01*
X5545789Y34787319D01*
X5663179Y35140801D01*
X5682535Y35238108D01*
X5434808Y35535000D01*
X3835000Y35535000D01*
X3785000Y35535000D01*
X2185192Y35535000D01*
X1937465Y35238108D01*
X1906735Y35238108D01*
X1907150Y35881892D01*
X1937465Y35881892D01*
X2185192Y35585000D01*
X3785000Y35585000D01*
X3785000Y37184836D01*
X3835000Y37184836D01*
X3835000Y35585000D01*
X5434808Y35585000D01*
X5570092Y35747134D01*
X12070000Y35747134D01*
X12070000Y35372866D01*
X12143016Y35005791D01*
X12286242Y34660013D01*
X12494174Y34348821D01*
X12758821Y34084174D01*
X13070013Y33876242D01*
X13415791Y33733016D01*
X13782866Y33660000D01*
X14157134Y33660000D01*
X14524209Y33733016D01*
X14869987Y33876242D01*
X15181179Y34084174D01*
X15445826Y34348821D01*
X15653758Y34660013D01*
X15796984Y35005791D01*
X15870000Y35372866D01*
X15870000Y35747134D01*
X15796984Y36114209D01*
X15653758Y36459987D01*
X15445826Y36771179D01*
X15181179Y37035826D01*
X14869987Y37243758D01*
X14524209Y37386984D01*
X14157134Y37460000D01*
X13782866Y37460000D01*
X13415791Y37386984D01*
X13070013Y37243758D01*
X12758821Y37035826D01*
X12494174Y36771179D01*
X12286242Y36459987D01*
X12143016Y36114209D01*
X12070000Y35747134D01*
X5570092Y35747134D01*
X5682535Y35881892D01*
X5663179Y35979199D01*
X5545789Y36332681D01*
X5361694Y36656470D01*
X5117968Y36938122D01*
X4823977Y37166814D01*
X4491020Y37333757D01*
X4131892Y37432535D01*
X3835000Y37184836D01*
X3785000Y37184836D01*
X3488108Y37432535D01*
X3128980Y37333757D01*
X2796023Y37166814D01*
X2502032Y36938122D01*
X2258306Y36656470D01*
X2074211Y36332681D01*
X1956821Y35979199D01*
X1937465Y35881892D01*
X1907150Y35881892D01*
X1910016Y40319134D01*
X4196000Y40319134D01*
X4196000Y39944866D01*
X4269016Y39577791D01*
X4412242Y39232013D01*
X4620174Y38920821D01*
X4884821Y38656174D01*
X5196013Y38448242D01*
X5541791Y38305016D01*
X5908866Y38232000D01*
X6283134Y38232000D01*
X6650209Y38305016D01*
X6995987Y38448242D01*
X7307179Y38656174D01*
X7571826Y38920821D01*
X7779758Y39232013D01*
X7922984Y39577791D01*
X7996000Y39944866D01*
X7996000Y40132000D01*
X14346807Y40132000D01*
X14383492Y39759535D01*
X14492136Y39401383D01*
X14668564Y39071309D01*
X14905997Y38781997D01*
X15195309Y38544564D01*
X15525383Y38368136D01*
X15883535Y38259492D01*
X16162663Y38232000D01*
X16349337Y38232000D01*
X16628465Y38259492D01*
X16986617Y38368136D01*
X17316691Y38544564D01*
X17606003Y38781997D01*
X17843436Y39071309D01*
X18019864Y39401383D01*
X18128508Y39759535D01*
X18165193Y40132000D01*
X18128508Y40504465D01*
X18019864Y40862617D01*
X17843436Y41192691D01*
X17606003Y41482003D01*
X17316691Y41719436D01*
X16986617Y41895864D01*
X16628465Y42004508D01*
X16349337Y42032000D01*
X16162663Y42032000D01*
X15883535Y42004508D01*
X15525383Y41895864D01*
X15195309Y41719436D01*
X14905997Y41482003D01*
X14668564Y41192691D01*
X14492136Y40862617D01*
X14383492Y40504465D01*
X14346807Y40132000D01*
X7996000Y40132000D01*
X7996000Y40319134D01*
X7922984Y40686209D01*
X7779758Y41031987D01*
X7571826Y41343179D01*
X7307179Y41607826D01*
X6995987Y41815758D01*
X6650209Y41958984D01*
X6283134Y42032000D01*
X5908866Y42032000D01*
X5541791Y41958984D01*
X5196013Y41815758D01*
X4884821Y41607826D01*
X4620174Y41343179D01*
X4412242Y41031987D01*
X4269016Y40686209D01*
X4196000Y40319134D01*
X1910016Y40319134D01*
X1913210Y45263286D01*
X4174077Y45263286D01*
X4194199Y45162128D01*
X4314801Y44799384D01*
X4503853Y44467138D01*
X4754090Y44178159D01*
X5055896Y43943551D01*
X5397673Y43772330D01*
X5766286Y43671077D01*
X6071000Y43918160D01*
X6071000Y45568000D01*
X6121000Y45568000D01*
X6121000Y43918160D01*
X6425714Y43671077D01*
X6794327Y43772330D01*
X7136104Y43943551D01*
X7437910Y44178159D01*
X7688147Y44467138D01*
X7877199Y44799384D01*
X7997801Y45162128D01*
X8017923Y45263286D01*
X7770813Y45568000D01*
X6121000Y45568000D01*
X6071000Y45568000D01*
X4421187Y45568000D01*
X4174077Y45263286D01*
X1913210Y45263286D01*
X1915614Y48983000D01*
X4140678Y48983000D01*
X4140678Y47283000D01*
X4161916Y47067362D01*
X4224816Y46860012D01*
X4326958Y46668916D01*
X4414640Y46562076D01*
X4314801Y46386616D01*
X4194199Y46023872D01*
X4174077Y45922714D01*
X4421187Y45618000D01*
X6071000Y45618000D01*
X6071000Y45638000D01*
X6121000Y45638000D01*
X6121000Y45618000D01*
X7770813Y45618000D01*
X8017923Y45922714D01*
X7997801Y46023872D01*
X7877199Y46386616D01*
X7777360Y46562076D01*
X7865042Y46668916D01*
X7967184Y46860012D01*
X8030084Y47067362D01*
X8051322Y47283000D01*
X8051322Y48983000D01*
X8043739Y49060000D01*
X9143678Y49060000D01*
X9143678Y47460000D01*
X9164916Y47244362D01*
X9227816Y47037012D01*
X9329958Y46845916D01*
X9467419Y46678419D01*
X9634916Y46540958D01*
X9826012Y46438816D01*
X10033362Y46375916D01*
X10249000Y46354678D01*
X11849000Y46354678D01*
X12064638Y46375916D01*
X12271988Y46438816D01*
X12463084Y46540958D01*
X12630581Y46678419D01*
X12768042Y46845916D01*
X12870184Y47037012D01*
X12885320Y47086908D01*
X13411264Y47086908D01*
X13447126Y46700868D01*
X13772469Y46515862D01*
X14127655Y46397881D01*
X14499032Y46351460D01*
X14872330Y46378384D01*
X15233202Y46477617D01*
X15567781Y46645346D01*
X15650874Y46700868D01*
X15686736Y47086908D01*
X14549000Y48224645D01*
X13411264Y47086908D01*
X12885320Y47086908D01*
X12932966Y47243972D01*
X12934346Y47241219D01*
X12989868Y47158126D01*
X13375908Y47122264D01*
X14513645Y48260000D01*
X14584355Y48260000D01*
X15722092Y47122264D01*
X16108132Y47158126D01*
X16293138Y47483469D01*
X16411119Y47838655D01*
X16457540Y48210032D01*
X16430616Y48583330D01*
X16331383Y48944202D01*
X16163654Y49278781D01*
X16108132Y49361874D01*
X15722092Y49397736D01*
X14584355Y48260000D01*
X14513645Y48260000D01*
X13375908Y49397736D01*
X12989868Y49361874D01*
X12934228Y49264027D01*
X12933084Y49275638D01*
X12885321Y49433092D01*
X13411264Y49433092D01*
X14549000Y48295355D01*
X15686736Y49433092D01*
X15650874Y49819132D01*
X15325531Y50004138D01*
X14970345Y50122119D01*
X14598968Y50168540D01*
X14225670Y50141616D01*
X13864798Y50042383D01*
X13530219Y49874654D01*
X13447126Y49819132D01*
X13411264Y49433092D01*
X12885321Y49433092D01*
X12870184Y49482988D01*
X12768042Y49674084D01*
X12630581Y49841581D01*
X12463084Y49979042D01*
X12271988Y50081184D01*
X12064638Y50144084D01*
X11849000Y50165322D01*
X10249000Y50165322D01*
X10033362Y50144084D01*
X9826012Y50081184D01*
X9634916Y49979042D01*
X9467419Y49841581D01*
X9329958Y49674084D01*
X9227816Y49482988D01*
X9164916Y49275638D01*
X9143678Y49060000D01*
X8043739Y49060000D01*
X8030084Y49198638D01*
X7967184Y49405988D01*
X7865042Y49597084D01*
X7727581Y49764581D01*
X7560084Y49902042D01*
X7368988Y50004184D01*
X7161638Y50067084D01*
X6946000Y50088322D01*
X5246000Y50088322D01*
X5030362Y50067084D01*
X4823012Y50004184D01*
X4631916Y49902042D01*
X4464419Y49764581D01*
X4326958Y49597084D01*
X4224816Y49405988D01*
X4161916Y49198638D01*
X4140678Y48983000D01*
X1915614Y48983000D01*
X1917824Y52402665D01*
X2242301Y52453318D01*
X2265307Y52458491D01*
X2288695Y52461559D01*
X2387785Y52486032D01*
X3533912Y52824936D01*
X3556029Y52833105D01*
X3578808Y52839240D01*
X3673791Y52876602D01*
X4765027Y53364111D01*
X4785872Y53375135D01*
X4807638Y53384228D01*
X4896845Y53433825D01*
X5914020Y54061375D01*
X5933225Y54075060D01*
X5953595Y54086950D01*
X6035459Y54147909D01*
X6233688Y54310000D01*
X18600429Y54310000D01*
X19923701Y52985873D01*
G04 #@! TO.N,GNDREF*
G36*
X52088001Y59391905D02*
G01*
X52088001Y57407322D01*
X51644267Y13968531D01*
X44872868Y7197132D01*
X44835559Y7151671D01*
X44807836Y7099805D01*
X44794601Y7060289D01*
X44020829Y4075740D01*
X44000435Y4047050D01*
X43988075Y4026965D01*
X43973945Y4008081D01*
X43922286Y3920053D01*
X43356890Y2847993D01*
X43347295Y2826448D01*
X43335787Y2805863D01*
X43296223Y2711775D01*
X42877581Y1574355D01*
X42870921Y1551735D01*
X42862235Y1529805D01*
X42835463Y1431312D01*
X42767607Y1127909D01*
X23798057Y1126567D01*
X23811455Y5510908D01*
X31501264Y5510908D01*
X31537126Y5124868D01*
X31862469Y4939862D01*
X32217655Y4821881D01*
X32589032Y4775460D01*
X32962330Y4802384D01*
X33323202Y4901617D01*
X33657781Y5069346D01*
X33740874Y5124868D01*
X33776736Y5510908D01*
X32639000Y6648645D01*
X31501264Y5510908D01*
X23811455Y5510908D01*
X23815193Y6733968D01*
X30730460Y6733968D01*
X30757384Y6360670D01*
X30856617Y5999798D01*
X31024346Y5665219D01*
X31079868Y5582126D01*
X31465908Y5546264D01*
X32603645Y6684000D01*
X32674355Y6684000D01*
X33812092Y5546264D01*
X34198132Y5582126D01*
X34383138Y5907469D01*
X34501119Y6262655D01*
X34547540Y6634032D01*
X34520616Y7007330D01*
X34421383Y7368202D01*
X34253654Y7702781D01*
X34198132Y7785874D01*
X33812092Y7821736D01*
X32674355Y6684000D01*
X32603645Y6684000D01*
X31465908Y7821736D01*
X31079868Y7785874D01*
X30894862Y7460531D01*
X30776881Y7105345D01*
X30730460Y6733968D01*
X23815193Y6733968D01*
X23818625Y7857092D01*
X31501264Y7857092D01*
X32639000Y6719355D01*
X33776736Y7857092D01*
X33740874Y8243132D01*
X33415531Y8428138D01*
X33060345Y8546119D01*
X32688968Y8592540D01*
X32315670Y8565616D01*
X31954798Y8466383D01*
X31620219Y8298654D01*
X31537126Y8243132D01*
X31501264Y7857092D01*
X23818625Y7857092D01*
X23833191Y12622908D01*
X27691264Y12622908D01*
X27727126Y12236868D01*
X28052469Y12051862D01*
X28407655Y11933881D01*
X28779032Y11887460D01*
X29152330Y11914384D01*
X29513202Y12013617D01*
X29847781Y12181346D01*
X29930874Y12236868D01*
X29966736Y12622908D01*
X28829000Y13760645D01*
X27691264Y12622908D01*
X23833191Y12622908D01*
X23836929Y13845968D01*
X26920460Y13845968D01*
X26947384Y13472670D01*
X27046617Y13111798D01*
X27214346Y12777219D01*
X27269868Y12694126D01*
X27655908Y12658264D01*
X28793645Y13796000D01*
X28864355Y13796000D01*
X30002092Y12658264D01*
X30388132Y12694126D01*
X30573138Y13019469D01*
X30691119Y13374655D01*
X30737540Y13746032D01*
X30710616Y14119330D01*
X30611383Y14480202D01*
X30443654Y14814781D01*
X30388132Y14897874D01*
X30002092Y14933736D01*
X28864355Y13796000D01*
X28793645Y13796000D01*
X27655908Y14933736D01*
X27269868Y14897874D01*
X27084862Y14572531D01*
X26966881Y14217345D01*
X26920460Y13845968D01*
X23836929Y13845968D01*
X23840361Y14969092D01*
X27691264Y14969092D01*
X28829000Y13831355D01*
X29966736Y14969092D01*
X29930874Y15355132D01*
X29605531Y15540138D01*
X29250345Y15658119D01*
X29036124Y15684896D01*
X30700800Y15684896D01*
X30700800Y15303104D01*
X30775284Y14928648D01*
X30921390Y14575918D01*
X31133502Y14258470D01*
X31403470Y13988502D01*
X31720918Y13776390D01*
X32073648Y13630284D01*
X32379100Y13569526D01*
X32084791Y13510984D01*
X31739013Y13367758D01*
X31427821Y13159826D01*
X31163174Y12895179D01*
X30955242Y12583987D01*
X30812016Y12238209D01*
X30739000Y11871134D01*
X30739000Y11496866D01*
X30812016Y11129791D01*
X30955242Y10784013D01*
X31163174Y10472821D01*
X31427821Y10208174D01*
X31739013Y10000242D01*
X32084791Y9857016D01*
X32451866Y9784000D01*
X32826134Y9784000D01*
X33193209Y9857016D01*
X33538987Y10000242D01*
X33850179Y10208174D01*
X34114826Y10472821D01*
X34322758Y10784013D01*
X34465984Y11129791D01*
X34539000Y11496866D01*
X34539000Y11871134D01*
X34465984Y12238209D01*
X34322758Y12583987D01*
X34114826Y12895179D01*
X33850179Y13159826D01*
X33538987Y13367758D01*
X33193209Y13510984D01*
X32898900Y13569526D01*
X33204352Y13630284D01*
X33557082Y13776390D01*
X33874530Y13988502D01*
X33909000Y14022972D01*
X33943470Y13988502D01*
X34260918Y13776390D01*
X34613648Y13630284D01*
X34988104Y13555800D01*
X35369896Y13555800D01*
X35744352Y13630284D01*
X36097082Y13776390D01*
X36414530Y13988502D01*
X36449000Y14022972D01*
X36483470Y13988502D01*
X36800918Y13776390D01*
X37153648Y13630284D01*
X37528104Y13555800D01*
X37909896Y13555800D01*
X38284352Y13630284D01*
X38637082Y13776390D01*
X38954530Y13988502D01*
X38989000Y14022972D01*
X39023470Y13988502D01*
X39340918Y13776390D01*
X39693648Y13630284D01*
X40068104Y13555800D01*
X40449896Y13555800D01*
X40824352Y13630284D01*
X41177082Y13776390D01*
X41494530Y13988502D01*
X41764498Y14258470D01*
X41976610Y14575918D01*
X42122716Y14928648D01*
X42197200Y15303104D01*
X42197200Y15684896D01*
X42122716Y16059352D01*
X41976610Y16412082D01*
X41764498Y16729530D01*
X41494530Y16999498D01*
X41177082Y17211610D01*
X40824352Y17357716D01*
X40449896Y17432200D01*
X40068104Y17432200D01*
X39693648Y17357716D01*
X39340918Y17211610D01*
X39023470Y16999498D01*
X38989000Y16965028D01*
X38954530Y16999498D01*
X38637082Y17211610D01*
X38284352Y17357716D01*
X37909896Y17432200D01*
X37528104Y17432200D01*
X37153648Y17357716D01*
X36800918Y17211610D01*
X36483470Y16999498D01*
X36449000Y16965028D01*
X36414530Y16999498D01*
X36097082Y17211610D01*
X35744352Y17357716D01*
X35369896Y17432200D01*
X34988104Y17432200D01*
X34613648Y17357716D01*
X34260918Y17211610D01*
X33943470Y16999498D01*
X33909000Y16965028D01*
X33874530Y16999498D01*
X33557082Y17211610D01*
X33204352Y17357716D01*
X32829896Y17432200D01*
X32448104Y17432200D01*
X32073648Y17357716D01*
X31720918Y17211610D01*
X31403470Y16999498D01*
X31133502Y16729530D01*
X30921390Y16412082D01*
X30775284Y16059352D01*
X30700800Y15684896D01*
X29036124Y15684896D01*
X28878968Y15704540D01*
X28505670Y15677616D01*
X28144798Y15578383D01*
X27810219Y15410654D01*
X27727126Y15355132D01*
X27691264Y14969092D01*
X23840361Y14969092D01*
X23852628Y18983134D01*
X26929000Y18983134D01*
X26929000Y18608866D01*
X27002016Y18241791D01*
X27145242Y17896013D01*
X27353174Y17584821D01*
X27617821Y17320174D01*
X27929013Y17112242D01*
X28274791Y16969016D01*
X28641866Y16896000D01*
X29016134Y16896000D01*
X29383209Y16969016D01*
X29728987Y17112242D01*
X30040179Y17320174D01*
X30304826Y17584821D01*
X30512758Y17896013D01*
X30655984Y18241791D01*
X30729000Y18608866D01*
X30729000Y18983134D01*
X30655984Y19350209D01*
X30517309Y19685000D01*
X45538565Y19685000D01*
X45576215Y19302733D01*
X45687718Y18935157D01*
X45809530Y18707262D01*
X45728958Y18609084D01*
X45626816Y18417988D01*
X45563916Y18210638D01*
X45542678Y17995000D01*
X45542678Y16295000D01*
X45563916Y16079362D01*
X45626816Y15872012D01*
X45728958Y15680916D01*
X45866419Y15513419D01*
X46033916Y15375958D01*
X46225012Y15273816D01*
X46432362Y15210916D01*
X46648000Y15189678D01*
X48348000Y15189678D01*
X48563638Y15210916D01*
X48770988Y15273816D01*
X48962084Y15375958D01*
X49129581Y15513419D01*
X49267042Y15680916D01*
X49369184Y15872012D01*
X49432084Y16079362D01*
X49453322Y16295000D01*
X49453322Y17995000D01*
X49432084Y18210638D01*
X49369184Y18417988D01*
X49267042Y18609084D01*
X49186470Y18707262D01*
X49308282Y18935157D01*
X49419785Y19302733D01*
X49457435Y19685000D01*
X49419785Y20067267D01*
X49308282Y20434843D01*
X49127211Y20773604D01*
X48972013Y20962714D01*
X49090147Y21099138D01*
X49279199Y21431384D01*
X49399801Y21794128D01*
X49419923Y21895286D01*
X49172813Y22200000D01*
X47523000Y22200000D01*
X47523000Y22180000D01*
X47473000Y22180000D01*
X47473000Y22200000D01*
X45823187Y22200000D01*
X45576077Y21895286D01*
X45596199Y21794128D01*
X45716801Y21431384D01*
X45905853Y21099138D01*
X46023987Y20962714D01*
X45868789Y20773604D01*
X45687718Y20434843D01*
X45576215Y20067267D01*
X45538565Y19685000D01*
X30517309Y19685000D01*
X30512758Y19695987D01*
X30304826Y20007179D01*
X30040179Y20271826D01*
X29728987Y20479758D01*
X29383209Y20622984D01*
X29016134Y20696000D01*
X28641866Y20696000D01*
X28274791Y20622984D01*
X27929013Y20479758D01*
X27617821Y20271826D01*
X27353174Y20007179D01*
X27145242Y19695987D01*
X27002016Y19350209D01*
X26929000Y18983134D01*
X23852628Y18983134D01*
X23865704Y23261426D01*
X23918211Y23103319D01*
X24102306Y22779530D01*
X24346032Y22497878D01*
X24640023Y22269186D01*
X24972980Y22102243D01*
X25332108Y22003465D01*
X25629000Y22251164D01*
X25629000Y23851000D01*
X25679000Y23851000D01*
X25679000Y22251164D01*
X25975892Y22003465D01*
X26335020Y22102243D01*
X26667977Y22269186D01*
X26961968Y22497878D01*
X27205694Y22779530D01*
X27389789Y23103319D01*
X27456731Y23304896D01*
X30700800Y23304896D01*
X30700800Y22923104D01*
X30775284Y22548648D01*
X30921390Y22195918D01*
X31133502Y21878470D01*
X31403470Y21608502D01*
X31720918Y21396390D01*
X32073648Y21250284D01*
X32448104Y21175800D01*
X32829896Y21175800D01*
X33204352Y21250284D01*
X33557082Y21396390D01*
X33874530Y21608502D01*
X34029687Y21763659D01*
X34054562Y21523811D01*
X34386399Y21334999D01*
X34748695Y21214554D01*
X35127527Y21167103D01*
X35508337Y21194470D01*
X35876491Y21295603D01*
X36217840Y21466617D01*
X36303438Y21523811D01*
X36328313Y21763659D01*
X36483470Y21608502D01*
X36800918Y21396390D01*
X37153648Y21250284D01*
X37528104Y21175800D01*
X37909896Y21175800D01*
X38284352Y21250284D01*
X38637082Y21396390D01*
X38703967Y21441081D01*
X38806716Y21356758D01*
X38997812Y21254616D01*
X39205162Y21191716D01*
X39420800Y21170478D01*
X41097200Y21170478D01*
X41312838Y21191716D01*
X41520188Y21254616D01*
X41711284Y21356758D01*
X41878781Y21494219D01*
X42016242Y21661716D01*
X42118384Y21852812D01*
X42181284Y22060162D01*
X42202522Y22275800D01*
X42202522Y22554714D01*
X45576077Y22554714D01*
X45823187Y22250000D01*
X47473000Y22250000D01*
X47473000Y23899840D01*
X47523000Y23899840D01*
X47523000Y22250000D01*
X49172813Y22250000D01*
X49419923Y22554714D01*
X49399801Y22655872D01*
X49279199Y23018616D01*
X49090147Y23350862D01*
X48839910Y23639841D01*
X48538104Y23874449D01*
X48196327Y24045670D01*
X47827714Y24146923D01*
X47523000Y23899840D01*
X47473000Y23899840D01*
X47168286Y24146923D01*
X46799673Y24045670D01*
X46457896Y23874449D01*
X46156090Y23639841D01*
X45905853Y23350862D01*
X45716801Y23018616D01*
X45596199Y22655872D01*
X45576077Y22554714D01*
X42202522Y22554714D01*
X42202522Y23952200D01*
X42181284Y24167838D01*
X42118384Y24375188D01*
X42016242Y24566284D01*
X41878781Y24733781D01*
X41711284Y24871242D01*
X41520188Y24973384D01*
X41312838Y25036284D01*
X41097200Y25057522D01*
X39420800Y25057522D01*
X39205162Y25036284D01*
X38997812Y24973384D01*
X38806716Y24871242D01*
X38703967Y24786919D01*
X38637082Y24831610D01*
X38284352Y24977716D01*
X37909896Y25052200D01*
X37528104Y25052200D01*
X37153648Y24977716D01*
X36800918Y24831610D01*
X36483470Y24619498D01*
X36328313Y24464341D01*
X36303438Y24704189D01*
X35971601Y24893001D01*
X35609305Y25013446D01*
X35230473Y25060897D01*
X34849663Y25033530D01*
X34481509Y24932397D01*
X34140160Y24761383D01*
X34054562Y24704189D01*
X34029687Y24464341D01*
X33874530Y24619498D01*
X33557082Y24831610D01*
X33204352Y24977716D01*
X32829896Y25052200D01*
X32448104Y25052200D01*
X32073648Y24977716D01*
X31720918Y24831610D01*
X31403470Y24619498D01*
X31133502Y24349530D01*
X30921390Y24032082D01*
X30775284Y23679352D01*
X30700800Y23304896D01*
X27456731Y23304896D01*
X27507179Y23456801D01*
X27526535Y23554108D01*
X27278808Y23851000D01*
X25679000Y23851000D01*
X25629000Y23851000D01*
X25609000Y23851000D01*
X25609000Y23901000D01*
X25629000Y23901000D01*
X25629000Y25500836D01*
X25679000Y25500836D01*
X25679000Y23901000D01*
X27278808Y23901000D01*
X27526535Y24197892D01*
X27507179Y24295199D01*
X27389789Y24648681D01*
X27205694Y24972470D01*
X26961968Y25254122D01*
X26667977Y25482814D01*
X26335020Y25649757D01*
X25975892Y25748535D01*
X25679000Y25500836D01*
X25629000Y25500836D01*
X25332108Y25748535D01*
X24972980Y25649757D01*
X24640023Y25482814D01*
X24346032Y25254122D01*
X24102306Y24972470D01*
X23918211Y24648681D01*
X23869495Y24501990D01*
X23880658Y28155000D01*
X30556678Y28155000D01*
X30556678Y26455000D01*
X30577916Y26239362D01*
X30640816Y26032012D01*
X30742958Y25840916D01*
X30880419Y25673419D01*
X31047916Y25535958D01*
X31239012Y25433816D01*
X31446362Y25370916D01*
X31662000Y25349678D01*
X33362000Y25349678D01*
X33577638Y25370916D01*
X33784988Y25433816D01*
X33976084Y25535958D01*
X34082924Y25623640D01*
X34258384Y25523801D01*
X34621128Y25403199D01*
X34722286Y25383077D01*
X35027000Y25630187D01*
X35027000Y27280000D01*
X35077000Y27280000D01*
X35077000Y25630187D01*
X35381714Y25383077D01*
X35482872Y25403199D01*
X35845616Y25523801D01*
X36177862Y25712853D01*
X36466841Y25963090D01*
X36701449Y26264896D01*
X36872670Y26606673D01*
X36973923Y26975286D01*
X36726840Y27280000D01*
X35077000Y27280000D01*
X35027000Y27280000D01*
X35007000Y27280000D01*
X35007000Y27330000D01*
X35027000Y27330000D01*
X35027000Y28979813D01*
X35077000Y28979813D01*
X35077000Y27330000D01*
X36726840Y27330000D01*
X36973923Y27634714D01*
X36872670Y28003327D01*
X36701449Y28345104D01*
X36466841Y28646910D01*
X36177862Y28897147D01*
X35845616Y29086199D01*
X35482872Y29206801D01*
X35381714Y29226923D01*
X35077000Y28979813D01*
X35027000Y28979813D01*
X34722286Y29226923D01*
X34621128Y29206801D01*
X34258384Y29086199D01*
X34082924Y28986360D01*
X33976084Y29074042D01*
X33784988Y29176184D01*
X33577638Y29239084D01*
X33362000Y29260322D01*
X31662000Y29260322D01*
X31446362Y29239084D01*
X31239012Y29176184D01*
X31047916Y29074042D01*
X30880419Y28936581D01*
X30742958Y28769084D01*
X30640816Y28577988D01*
X30577916Y28370638D01*
X30556678Y28155000D01*
X23880658Y28155000D01*
X23891409Y31672908D01*
X34549264Y31672908D01*
X34585126Y31286868D01*
X34910469Y31101862D01*
X35265655Y30983881D01*
X35637032Y30937460D01*
X36010330Y30964384D01*
X36371202Y31063617D01*
X36705781Y31231346D01*
X36788874Y31286868D01*
X36824736Y31672908D01*
X35687000Y32810645D01*
X34549264Y31672908D01*
X23891409Y31672908D01*
X23895147Y32895968D01*
X33778460Y32895968D01*
X33805384Y32522670D01*
X33904617Y32161798D01*
X34072346Y31827219D01*
X34127868Y31744126D01*
X34513908Y31708264D01*
X35651645Y32846000D01*
X35722355Y32846000D01*
X36860092Y31708264D01*
X37246132Y31744126D01*
X37431138Y32069469D01*
X37549119Y32424655D01*
X37595540Y32796032D01*
X37568616Y33169330D01*
X37469383Y33530202D01*
X37301654Y33864781D01*
X37246132Y33947874D01*
X36860092Y33983736D01*
X35722355Y32846000D01*
X35651645Y32846000D01*
X34513908Y33983736D01*
X34127868Y33947874D01*
X33942862Y33622531D01*
X33824881Y33267345D01*
X33778460Y32895968D01*
X23895147Y32895968D01*
X23898579Y34019092D01*
X34549264Y34019092D01*
X35687000Y32881355D01*
X36824736Y34019092D01*
X36788874Y34405132D01*
X36463531Y34590138D01*
X36108345Y34708119D01*
X35736968Y34754540D01*
X35363670Y34727616D01*
X35002798Y34628383D01*
X34668219Y34460654D01*
X34585126Y34405132D01*
X34549264Y34019092D01*
X23898579Y34019092D01*
X23910040Y37768908D01*
X28326264Y37768908D01*
X28362126Y37382868D01*
X28687469Y37197862D01*
X29042655Y37079881D01*
X29414032Y37033460D01*
X29787330Y37060384D01*
X30148202Y37159617D01*
X30482781Y37327346D01*
X30565874Y37382868D01*
X30601736Y37768908D01*
X29464000Y38906645D01*
X28326264Y37768908D01*
X23910040Y37768908D01*
X23913778Y38991968D01*
X27555460Y38991968D01*
X27582384Y38618670D01*
X27681617Y38257798D01*
X27849346Y37923219D01*
X27904868Y37840126D01*
X28290908Y37804264D01*
X29428645Y38942000D01*
X29499355Y38942000D01*
X30637092Y37804264D01*
X31023132Y37840126D01*
X31208138Y38165469D01*
X31326119Y38520655D01*
X31372540Y38892032D01*
X31345616Y39265330D01*
X31246383Y39626202D01*
X31078654Y39960781D01*
X31023132Y40043874D01*
X30637092Y40079736D01*
X29499355Y38942000D01*
X29428645Y38942000D01*
X28290908Y40079736D01*
X27904868Y40043874D01*
X27719862Y39718531D01*
X27601881Y39363345D01*
X27555460Y38991968D01*
X23913778Y38991968D01*
X23917210Y40115092D01*
X28326264Y40115092D01*
X29464000Y38977355D01*
X30601736Y40115092D01*
X30565874Y40501132D01*
X30240531Y40686138D01*
X30187070Y40703896D01*
X31208800Y40703896D01*
X31208800Y40322104D01*
X31283284Y39947648D01*
X31429390Y39594918D01*
X31641502Y39277470D01*
X31911470Y39007502D01*
X32228918Y38795390D01*
X32581648Y38649284D01*
X32956104Y38574800D01*
X33337896Y38574800D01*
X33712352Y38649284D01*
X34025219Y38778878D01*
X34003242Y38745987D01*
X33860016Y38400209D01*
X33787000Y38033134D01*
X33787000Y37658866D01*
X33860016Y37291791D01*
X34003242Y36946013D01*
X34211174Y36634821D01*
X34475821Y36370174D01*
X34787013Y36162242D01*
X35132791Y36019016D01*
X35499866Y35946000D01*
X35874134Y35946000D01*
X36241209Y36019016D01*
X36586987Y36162242D01*
X36898179Y36370174D01*
X37162826Y36634821D01*
X37370758Y36946013D01*
X37513984Y37291791D01*
X37587000Y37658866D01*
X37587000Y38033134D01*
X37513984Y38400209D01*
X37370758Y38745987D01*
X37348781Y38778878D01*
X37661648Y38649284D01*
X38036104Y38574800D01*
X38417896Y38574800D01*
X38792352Y38649284D01*
X39145082Y38795390D01*
X39462530Y39007502D01*
X39497000Y39041972D01*
X39531470Y39007502D01*
X39848918Y38795390D01*
X40201648Y38649284D01*
X40576104Y38574800D01*
X40957896Y38574800D01*
X41332352Y38649284D01*
X41685082Y38795390D01*
X42002530Y39007502D01*
X42272498Y39277470D01*
X42484610Y39594918D01*
X42630716Y39947648D01*
X42705200Y40322104D01*
X42705200Y40703896D01*
X42630716Y41078352D01*
X42484610Y41431082D01*
X42272498Y41748530D01*
X42002530Y42018498D01*
X41685082Y42230610D01*
X41332352Y42376716D01*
X40957896Y42451200D01*
X40576104Y42451200D01*
X40201648Y42376716D01*
X39848918Y42230610D01*
X39531470Y42018498D01*
X39497000Y41984028D01*
X39462530Y42018498D01*
X39145082Y42230610D01*
X38792352Y42376716D01*
X38417896Y42451200D01*
X38036104Y42451200D01*
X37661648Y42376716D01*
X37308918Y42230610D01*
X36991470Y42018498D01*
X36957000Y41984028D01*
X36922530Y42018498D01*
X36605082Y42230610D01*
X36252352Y42376716D01*
X35877896Y42451200D01*
X35496104Y42451200D01*
X35121648Y42376716D01*
X34768918Y42230610D01*
X34451470Y42018498D01*
X34417000Y41984028D01*
X34382530Y42018498D01*
X34065082Y42230610D01*
X33712352Y42376716D01*
X33337896Y42451200D01*
X32956104Y42451200D01*
X32581648Y42376716D01*
X32228918Y42230610D01*
X31911470Y42018498D01*
X31641502Y41748530D01*
X31429390Y41431082D01*
X31283284Y41078352D01*
X31208800Y40703896D01*
X30187070Y40703896D01*
X29885345Y40804119D01*
X29513968Y40850540D01*
X29140670Y40823616D01*
X28779798Y40724383D01*
X28445219Y40556654D01*
X28362126Y40501132D01*
X28326264Y40115092D01*
X23917210Y40115092D01*
X23929477Y44129134D01*
X27564000Y44129134D01*
X27564000Y43754866D01*
X27637016Y43387791D01*
X27780242Y43042013D01*
X27988174Y42730821D01*
X28252821Y42466174D01*
X28564013Y42258242D01*
X28909791Y42115016D01*
X29276866Y42042000D01*
X29651134Y42042000D01*
X30018209Y42115016D01*
X30363987Y42258242D01*
X30675179Y42466174D01*
X30939826Y42730821D01*
X31147758Y43042013D01*
X31290984Y43387791D01*
X31364000Y43754866D01*
X31364000Y44129134D01*
X31350700Y44196000D01*
X45792565Y44196000D01*
X45830215Y43813733D01*
X45941718Y43446157D01*
X46063530Y43218262D01*
X45982958Y43120084D01*
X45880816Y42928988D01*
X45817916Y42721638D01*
X45796678Y42506000D01*
X45796678Y40806000D01*
X45817916Y40590362D01*
X45880816Y40383012D01*
X45982958Y40191916D01*
X46120419Y40024419D01*
X46287916Y39886958D01*
X46479012Y39784816D01*
X46686362Y39721916D01*
X46902000Y39700678D01*
X48602000Y39700678D01*
X48817638Y39721916D01*
X49024988Y39784816D01*
X49216084Y39886958D01*
X49383581Y40024419D01*
X49521042Y40191916D01*
X49623184Y40383012D01*
X49686084Y40590362D01*
X49707322Y40806000D01*
X49707322Y42506000D01*
X49686084Y42721638D01*
X49623184Y42928988D01*
X49521042Y43120084D01*
X49440470Y43218262D01*
X49562282Y43446157D01*
X49673785Y43813733D01*
X49711435Y44196000D01*
X49673785Y44578267D01*
X49562282Y44945843D01*
X49381211Y45284604D01*
X49226013Y45473714D01*
X49344147Y45610138D01*
X49533199Y45942384D01*
X49653801Y46305128D01*
X49673923Y46406286D01*
X49426813Y46711000D01*
X47777000Y46711000D01*
X47777000Y46691000D01*
X47727000Y46691000D01*
X47727000Y46711000D01*
X46077187Y46711000D01*
X45830077Y46406286D01*
X45850199Y46305128D01*
X45970801Y45942384D01*
X46159853Y45610138D01*
X46277987Y45473714D01*
X46122789Y45284604D01*
X45941718Y44945843D01*
X45830215Y44578267D01*
X45792565Y44196000D01*
X31350700Y44196000D01*
X31290984Y44496209D01*
X31147758Y44841987D01*
X30939826Y45153179D01*
X30675179Y45417826D01*
X30363987Y45625758D01*
X30018209Y45768984D01*
X29651134Y45842000D01*
X29276866Y45842000D01*
X28909791Y45768984D01*
X28564013Y45625758D01*
X28252821Y45417826D01*
X27988174Y45153179D01*
X27780242Y44841987D01*
X27637016Y44496209D01*
X27564000Y44129134D01*
X23929477Y44129134D01*
X23942296Y48323896D01*
X31208800Y48323896D01*
X31208800Y47942104D01*
X31283284Y47567648D01*
X31429390Y47214918D01*
X31641502Y46897470D01*
X31911470Y46627502D01*
X32228918Y46415390D01*
X32581648Y46269284D01*
X32956104Y46194800D01*
X33337896Y46194800D01*
X33712352Y46269284D01*
X34065082Y46415390D01*
X34382530Y46627502D01*
X34537687Y46782659D01*
X34562562Y46542811D01*
X34894399Y46353999D01*
X35256695Y46233554D01*
X35635527Y46186103D01*
X36016337Y46213470D01*
X36384491Y46314603D01*
X36725840Y46485617D01*
X36811438Y46542811D01*
X36836313Y46782659D01*
X36991470Y46627502D01*
X37308918Y46415390D01*
X37661648Y46269284D01*
X38036104Y46194800D01*
X38417896Y46194800D01*
X38792352Y46269284D01*
X39145082Y46415390D01*
X39211967Y46460081D01*
X39314716Y46375758D01*
X39505812Y46273616D01*
X39713162Y46210716D01*
X39928800Y46189478D01*
X41605200Y46189478D01*
X41820838Y46210716D01*
X42028188Y46273616D01*
X42219284Y46375758D01*
X42386781Y46513219D01*
X42524242Y46680716D01*
X42626384Y46871812D01*
X42685204Y47065714D01*
X45830077Y47065714D01*
X46077187Y46761000D01*
X47727000Y46761000D01*
X47727000Y48410840D01*
X47777000Y48410840D01*
X47777000Y46761000D01*
X49426813Y46761000D01*
X49673923Y47065714D01*
X49653801Y47166872D01*
X49533199Y47529616D01*
X49344147Y47861862D01*
X49093910Y48150841D01*
X48792104Y48385449D01*
X48450327Y48556670D01*
X48081714Y48657923D01*
X47777000Y48410840D01*
X47727000Y48410840D01*
X47422286Y48657923D01*
X47053673Y48556670D01*
X46711896Y48385449D01*
X46410090Y48150841D01*
X46159853Y47861862D01*
X45970801Y47529616D01*
X45850199Y47166872D01*
X45830077Y47065714D01*
X42685204Y47065714D01*
X42689284Y47079162D01*
X42710522Y47294800D01*
X42710522Y48971200D01*
X42689284Y49186838D01*
X42626384Y49394188D01*
X42524242Y49585284D01*
X42386781Y49752781D01*
X42219284Y49890242D01*
X42028188Y49992384D01*
X41820838Y50055284D01*
X41605200Y50076522D01*
X39928800Y50076522D01*
X39713162Y50055284D01*
X39505812Y49992384D01*
X39314716Y49890242D01*
X39211967Y49805919D01*
X39145082Y49850610D01*
X38792352Y49996716D01*
X38417896Y50071200D01*
X38036104Y50071200D01*
X37661648Y49996716D01*
X37308918Y49850610D01*
X36991470Y49638498D01*
X36836313Y49483341D01*
X36811438Y49723189D01*
X36479601Y49912001D01*
X36117305Y50032446D01*
X35738473Y50079897D01*
X35357663Y50052530D01*
X34989509Y49951397D01*
X34648160Y49780383D01*
X34562562Y49723189D01*
X34537687Y49483341D01*
X34382530Y49638498D01*
X34065082Y49850610D01*
X33712352Y49996716D01*
X33337896Y50071200D01*
X32956104Y50071200D01*
X32581648Y49996716D01*
X32228918Y49850610D01*
X31911470Y49638498D01*
X31641502Y49368530D01*
X31429390Y49051082D01*
X31283284Y48698352D01*
X31208800Y48323896D01*
X23942296Y48323896D01*
X23956731Y53047000D01*
X31191678Y53047000D01*
X31191678Y51347000D01*
X31212916Y51131362D01*
X31275816Y50924012D01*
X31377958Y50732916D01*
X31515419Y50565419D01*
X31682916Y50427958D01*
X31874012Y50325816D01*
X32081362Y50262916D01*
X32297000Y50241678D01*
X33997000Y50241678D01*
X34212638Y50262916D01*
X34419988Y50325816D01*
X34611084Y50427958D01*
X34717924Y50515640D01*
X34893384Y50415801D01*
X35256128Y50295199D01*
X35357286Y50275077D01*
X35662000Y50522187D01*
X35662000Y52172000D01*
X35712000Y52172000D01*
X35712000Y50522187D01*
X36016714Y50275077D01*
X36117872Y50295199D01*
X36480616Y50415801D01*
X36812862Y50604853D01*
X37101841Y50855090D01*
X37336449Y51156896D01*
X37507670Y51498673D01*
X37608923Y51867286D01*
X37361840Y52172000D01*
X35712000Y52172000D01*
X35662000Y52172000D01*
X35642000Y52172000D01*
X35642000Y52222000D01*
X35662000Y52222000D01*
X35662000Y53871813D01*
X35712000Y53871813D01*
X35712000Y52222000D01*
X37361840Y52222000D01*
X37608923Y52526714D01*
X37507670Y52895327D01*
X37336449Y53237104D01*
X37101841Y53538910D01*
X36812862Y53789147D01*
X36480616Y53978199D01*
X36117872Y54098801D01*
X36016714Y54118923D01*
X35712000Y53871813D01*
X35662000Y53871813D01*
X35357286Y54118923D01*
X35256128Y54098801D01*
X34893384Y53978199D01*
X34717924Y53878360D01*
X34611084Y53966042D01*
X34419988Y54068184D01*
X34212638Y54131084D01*
X33997000Y54152322D01*
X32297000Y54152322D01*
X32081362Y54131084D01*
X31874012Y54068184D01*
X31682916Y53966042D01*
X31515419Y53828581D01*
X31377958Y53661084D01*
X31275816Y53469988D01*
X31212916Y53262638D01*
X31191678Y53047000D01*
X23956731Y53047000D01*
X23977615Y59879955D01*
X51565749Y59957373D01*
X52088001Y59391905D01*
X52088001Y59391905D01*
G37*
X52088001Y59391905D02*
X52088001Y57407322D01*
X51644267Y13968531D01*
X44872868Y7197132D01*
X44835559Y7151671D01*
X44807836Y7099805D01*
X44794601Y7060289D01*
X44020829Y4075740D01*
X44000435Y4047050D01*
X43988075Y4026965D01*
X43973945Y4008081D01*
X43922286Y3920053D01*
X43356890Y2847993D01*
X43347295Y2826448D01*
X43335787Y2805863D01*
X43296223Y2711775D01*
X42877581Y1574355D01*
X42870921Y1551735D01*
X42862235Y1529805D01*
X42835463Y1431312D01*
X42767607Y1127909D01*
X23798057Y1126567D01*
X23811455Y5510908D01*
X31501264Y5510908D01*
X31537126Y5124868D01*
X31862469Y4939862D01*
X32217655Y4821881D01*
X32589032Y4775460D01*
X32962330Y4802384D01*
X33323202Y4901617D01*
X33657781Y5069346D01*
X33740874Y5124868D01*
X33776736Y5510908D01*
X32639000Y6648645D01*
X31501264Y5510908D01*
X23811455Y5510908D01*
X23815193Y6733968D01*
X30730460Y6733968D01*
X30757384Y6360670D01*
X30856617Y5999798D01*
X31024346Y5665219D01*
X31079868Y5582126D01*
X31465908Y5546264D01*
X32603645Y6684000D01*
X32674355Y6684000D01*
X33812092Y5546264D01*
X34198132Y5582126D01*
X34383138Y5907469D01*
X34501119Y6262655D01*
X34547540Y6634032D01*
X34520616Y7007330D01*
X34421383Y7368202D01*
X34253654Y7702781D01*
X34198132Y7785874D01*
X33812092Y7821736D01*
X32674355Y6684000D01*
X32603645Y6684000D01*
X31465908Y7821736D01*
X31079868Y7785874D01*
X30894862Y7460531D01*
X30776881Y7105345D01*
X30730460Y6733968D01*
X23815193Y6733968D01*
X23818625Y7857092D01*
X31501264Y7857092D01*
X32639000Y6719355D01*
X33776736Y7857092D01*
X33740874Y8243132D01*
X33415531Y8428138D01*
X33060345Y8546119D01*
X32688968Y8592540D01*
X32315670Y8565616D01*
X31954798Y8466383D01*
X31620219Y8298654D01*
X31537126Y8243132D01*
X31501264Y7857092D01*
X23818625Y7857092D01*
X23833191Y12622908D01*
X27691264Y12622908D01*
X27727126Y12236868D01*
X28052469Y12051862D01*
X28407655Y11933881D01*
X28779032Y11887460D01*
X29152330Y11914384D01*
X29513202Y12013617D01*
X29847781Y12181346D01*
X29930874Y12236868D01*
X29966736Y12622908D01*
X28829000Y13760645D01*
X27691264Y12622908D01*
X23833191Y12622908D01*
X23836929Y13845968D01*
X26920460Y13845968D01*
X26947384Y13472670D01*
X27046617Y13111798D01*
X27214346Y12777219D01*
X27269868Y12694126D01*
X27655908Y12658264D01*
X28793645Y13796000D01*
X28864355Y13796000D01*
X30002092Y12658264D01*
X30388132Y12694126D01*
X30573138Y13019469D01*
X30691119Y13374655D01*
X30737540Y13746032D01*
X30710616Y14119330D01*
X30611383Y14480202D01*
X30443654Y14814781D01*
X30388132Y14897874D01*
X30002092Y14933736D01*
X28864355Y13796000D01*
X28793645Y13796000D01*
X27655908Y14933736D01*
X27269868Y14897874D01*
X27084862Y14572531D01*
X26966881Y14217345D01*
X26920460Y13845968D01*
X23836929Y13845968D01*
X23840361Y14969092D01*
X27691264Y14969092D01*
X28829000Y13831355D01*
X29966736Y14969092D01*
X29930874Y15355132D01*
X29605531Y15540138D01*
X29250345Y15658119D01*
X29036124Y15684896D01*
X30700800Y15684896D01*
X30700800Y15303104D01*
X30775284Y14928648D01*
X30921390Y14575918D01*
X31133502Y14258470D01*
X31403470Y13988502D01*
X31720918Y13776390D01*
X32073648Y13630284D01*
X32379100Y13569526D01*
X32084791Y13510984D01*
X31739013Y13367758D01*
X31427821Y13159826D01*
X31163174Y12895179D01*
X30955242Y12583987D01*
X30812016Y12238209D01*
X30739000Y11871134D01*
X30739000Y11496866D01*
X30812016Y11129791D01*
X30955242Y10784013D01*
X31163174Y10472821D01*
X31427821Y10208174D01*
X31739013Y10000242D01*
X32084791Y9857016D01*
X32451866Y9784000D01*
X32826134Y9784000D01*
X33193209Y9857016D01*
X33538987Y10000242D01*
X33850179Y10208174D01*
X34114826Y10472821D01*
X34322758Y10784013D01*
X34465984Y11129791D01*
X34539000Y11496866D01*
X34539000Y11871134D01*
X34465984Y12238209D01*
X34322758Y12583987D01*
X34114826Y12895179D01*
X33850179Y13159826D01*
X33538987Y13367758D01*
X33193209Y13510984D01*
X32898900Y13569526D01*
X33204352Y13630284D01*
X33557082Y13776390D01*
X33874530Y13988502D01*
X33909000Y14022972D01*
X33943470Y13988502D01*
X34260918Y13776390D01*
X34613648Y13630284D01*
X34988104Y13555800D01*
X35369896Y13555800D01*
X35744352Y13630284D01*
X36097082Y13776390D01*
X36414530Y13988502D01*
X36449000Y14022972D01*
X36483470Y13988502D01*
X36800918Y13776390D01*
X37153648Y13630284D01*
X37528104Y13555800D01*
X37909896Y13555800D01*
X38284352Y13630284D01*
X38637082Y13776390D01*
X38954530Y13988502D01*
X38989000Y14022972D01*
X39023470Y13988502D01*
X39340918Y13776390D01*
X39693648Y13630284D01*
X40068104Y13555800D01*
X40449896Y13555800D01*
X40824352Y13630284D01*
X41177082Y13776390D01*
X41494530Y13988502D01*
X41764498Y14258470D01*
X41976610Y14575918D01*
X42122716Y14928648D01*
X42197200Y15303104D01*
X42197200Y15684896D01*
X42122716Y16059352D01*
X41976610Y16412082D01*
X41764498Y16729530D01*
X41494530Y16999498D01*
X41177082Y17211610D01*
X40824352Y17357716D01*
X40449896Y17432200D01*
X40068104Y17432200D01*
X39693648Y17357716D01*
X39340918Y17211610D01*
X39023470Y16999498D01*
X38989000Y16965028D01*
X38954530Y16999498D01*
X38637082Y17211610D01*
X38284352Y17357716D01*
X37909896Y17432200D01*
X37528104Y17432200D01*
X37153648Y17357716D01*
X36800918Y17211610D01*
X36483470Y16999498D01*
X36449000Y16965028D01*
X36414530Y16999498D01*
X36097082Y17211610D01*
X35744352Y17357716D01*
X35369896Y17432200D01*
X34988104Y17432200D01*
X34613648Y17357716D01*
X34260918Y17211610D01*
X33943470Y16999498D01*
X33909000Y16965028D01*
X33874530Y16999498D01*
X33557082Y17211610D01*
X33204352Y17357716D01*
X32829896Y17432200D01*
X32448104Y17432200D01*
X32073648Y17357716D01*
X31720918Y17211610D01*
X31403470Y16999498D01*
X31133502Y16729530D01*
X30921390Y16412082D01*
X30775284Y16059352D01*
X30700800Y15684896D01*
X29036124Y15684896D01*
X28878968Y15704540D01*
X28505670Y15677616D01*
X28144798Y15578383D01*
X27810219Y15410654D01*
X27727126Y15355132D01*
X27691264Y14969092D01*
X23840361Y14969092D01*
X23852628Y18983134D01*
X26929000Y18983134D01*
X26929000Y18608866D01*
X27002016Y18241791D01*
X27145242Y17896013D01*
X27353174Y17584821D01*
X27617821Y17320174D01*
X27929013Y17112242D01*
X28274791Y16969016D01*
X28641866Y16896000D01*
X29016134Y16896000D01*
X29383209Y16969016D01*
X29728987Y17112242D01*
X30040179Y17320174D01*
X30304826Y17584821D01*
X30512758Y17896013D01*
X30655984Y18241791D01*
X30729000Y18608866D01*
X30729000Y18983134D01*
X30655984Y19350209D01*
X30517309Y19685000D01*
X45538565Y19685000D01*
X45576215Y19302733D01*
X45687718Y18935157D01*
X45809530Y18707262D01*
X45728958Y18609084D01*
X45626816Y18417988D01*
X45563916Y18210638D01*
X45542678Y17995000D01*
X45542678Y16295000D01*
X45563916Y16079362D01*
X45626816Y15872012D01*
X45728958Y15680916D01*
X45866419Y15513419D01*
X46033916Y15375958D01*
X46225012Y15273816D01*
X46432362Y15210916D01*
X46648000Y15189678D01*
X48348000Y15189678D01*
X48563638Y15210916D01*
X48770988Y15273816D01*
X48962084Y15375958D01*
X49129581Y15513419D01*
X49267042Y15680916D01*
X49369184Y15872012D01*
X49432084Y16079362D01*
X49453322Y16295000D01*
X49453322Y17995000D01*
X49432084Y18210638D01*
X49369184Y18417988D01*
X49267042Y18609084D01*
X49186470Y18707262D01*
X49308282Y18935157D01*
X49419785Y19302733D01*
X49457435Y19685000D01*
X49419785Y20067267D01*
X49308282Y20434843D01*
X49127211Y20773604D01*
X48972013Y20962714D01*
X49090147Y21099138D01*
X49279199Y21431384D01*
X49399801Y21794128D01*
X49419923Y21895286D01*
X49172813Y22200000D01*
X47523000Y22200000D01*
X47523000Y22180000D01*
X47473000Y22180000D01*
X47473000Y22200000D01*
X45823187Y22200000D01*
X45576077Y21895286D01*
X45596199Y21794128D01*
X45716801Y21431384D01*
X45905853Y21099138D01*
X46023987Y20962714D01*
X45868789Y20773604D01*
X45687718Y20434843D01*
X45576215Y20067267D01*
X45538565Y19685000D01*
X30517309Y19685000D01*
X30512758Y19695987D01*
X30304826Y20007179D01*
X30040179Y20271826D01*
X29728987Y20479758D01*
X29383209Y20622984D01*
X29016134Y20696000D01*
X28641866Y20696000D01*
X28274791Y20622984D01*
X27929013Y20479758D01*
X27617821Y20271826D01*
X27353174Y20007179D01*
X27145242Y19695987D01*
X27002016Y19350209D01*
X26929000Y18983134D01*
X23852628Y18983134D01*
X23865704Y23261426D01*
X23918211Y23103319D01*
X24102306Y22779530D01*
X24346032Y22497878D01*
X24640023Y22269186D01*
X24972980Y22102243D01*
X25332108Y22003465D01*
X25629000Y22251164D01*
X25629000Y23851000D01*
X25679000Y23851000D01*
X25679000Y22251164D01*
X25975892Y22003465D01*
X26335020Y22102243D01*
X26667977Y22269186D01*
X26961968Y22497878D01*
X27205694Y22779530D01*
X27389789Y23103319D01*
X27456731Y23304896D01*
X30700800Y23304896D01*
X30700800Y22923104D01*
X30775284Y22548648D01*
X30921390Y22195918D01*
X31133502Y21878470D01*
X31403470Y21608502D01*
X31720918Y21396390D01*
X32073648Y21250284D01*
X32448104Y21175800D01*
X32829896Y21175800D01*
X33204352Y21250284D01*
X33557082Y21396390D01*
X33874530Y21608502D01*
X34029687Y21763659D01*
X34054562Y21523811D01*
X34386399Y21334999D01*
X34748695Y21214554D01*
X35127527Y21167103D01*
X35508337Y21194470D01*
X35876491Y21295603D01*
X36217840Y21466617D01*
X36303438Y21523811D01*
X36328313Y21763659D01*
X36483470Y21608502D01*
X36800918Y21396390D01*
X37153648Y21250284D01*
X37528104Y21175800D01*
X37909896Y21175800D01*
X38284352Y21250284D01*
X38637082Y21396390D01*
X38703967Y21441081D01*
X38806716Y21356758D01*
X38997812Y21254616D01*
X39205162Y21191716D01*
X39420800Y21170478D01*
X41097200Y21170478D01*
X41312838Y21191716D01*
X41520188Y21254616D01*
X41711284Y21356758D01*
X41878781Y21494219D01*
X42016242Y21661716D01*
X42118384Y21852812D01*
X42181284Y22060162D01*
X42202522Y22275800D01*
X42202522Y22554714D01*
X45576077Y22554714D01*
X45823187Y22250000D01*
X47473000Y22250000D01*
X47473000Y23899840D01*
X47523000Y23899840D01*
X47523000Y22250000D01*
X49172813Y22250000D01*
X49419923Y22554714D01*
X49399801Y22655872D01*
X49279199Y23018616D01*
X49090147Y23350862D01*
X48839910Y23639841D01*
X48538104Y23874449D01*
X48196327Y24045670D01*
X47827714Y24146923D01*
X47523000Y23899840D01*
X47473000Y23899840D01*
X47168286Y24146923D01*
X46799673Y24045670D01*
X46457896Y23874449D01*
X46156090Y23639841D01*
X45905853Y23350862D01*
X45716801Y23018616D01*
X45596199Y22655872D01*
X45576077Y22554714D01*
X42202522Y22554714D01*
X42202522Y23952200D01*
X42181284Y24167838D01*
X42118384Y24375188D01*
X42016242Y24566284D01*
X41878781Y24733781D01*
X41711284Y24871242D01*
X41520188Y24973384D01*
X41312838Y25036284D01*
X41097200Y25057522D01*
X39420800Y25057522D01*
X39205162Y25036284D01*
X38997812Y24973384D01*
X38806716Y24871242D01*
X38703967Y24786919D01*
X38637082Y24831610D01*
X38284352Y24977716D01*
X37909896Y25052200D01*
X37528104Y25052200D01*
X37153648Y24977716D01*
X36800918Y24831610D01*
X36483470Y24619498D01*
X36328313Y24464341D01*
X36303438Y24704189D01*
X35971601Y24893001D01*
X35609305Y25013446D01*
X35230473Y25060897D01*
X34849663Y25033530D01*
X34481509Y24932397D01*
X34140160Y24761383D01*
X34054562Y24704189D01*
X34029687Y24464341D01*
X33874530Y24619498D01*
X33557082Y24831610D01*
X33204352Y24977716D01*
X32829896Y25052200D01*
X32448104Y25052200D01*
X32073648Y24977716D01*
X31720918Y24831610D01*
X31403470Y24619498D01*
X31133502Y24349530D01*
X30921390Y24032082D01*
X30775284Y23679352D01*
X30700800Y23304896D01*
X27456731Y23304896D01*
X27507179Y23456801D01*
X27526535Y23554108D01*
X27278808Y23851000D01*
X25679000Y23851000D01*
X25629000Y23851000D01*
X25609000Y23851000D01*
X25609000Y23901000D01*
X25629000Y23901000D01*
X25629000Y25500836D01*
X25679000Y25500836D01*
X25679000Y23901000D01*
X27278808Y23901000D01*
X27526535Y24197892D01*
X27507179Y24295199D01*
X27389789Y24648681D01*
X27205694Y24972470D01*
X26961968Y25254122D01*
X26667977Y25482814D01*
X26335020Y25649757D01*
X25975892Y25748535D01*
X25679000Y25500836D01*
X25629000Y25500836D01*
X25332108Y25748535D01*
X24972980Y25649757D01*
X24640023Y25482814D01*
X24346032Y25254122D01*
X24102306Y24972470D01*
X23918211Y24648681D01*
X23869495Y24501990D01*
X23880658Y28155000D01*
X30556678Y28155000D01*
X30556678Y26455000D01*
X30577916Y26239362D01*
X30640816Y26032012D01*
X30742958Y25840916D01*
X30880419Y25673419D01*
X31047916Y25535958D01*
X31239012Y25433816D01*
X31446362Y25370916D01*
X31662000Y25349678D01*
X33362000Y25349678D01*
X33577638Y25370916D01*
X33784988Y25433816D01*
X33976084Y25535958D01*
X34082924Y25623640D01*
X34258384Y25523801D01*
X34621128Y25403199D01*
X34722286Y25383077D01*
X35027000Y25630187D01*
X35027000Y27280000D01*
X35077000Y27280000D01*
X35077000Y25630187D01*
X35381714Y25383077D01*
X35482872Y25403199D01*
X35845616Y25523801D01*
X36177862Y25712853D01*
X36466841Y25963090D01*
X36701449Y26264896D01*
X36872670Y26606673D01*
X36973923Y26975286D01*
X36726840Y27280000D01*
X35077000Y27280000D01*
X35027000Y27280000D01*
X35007000Y27280000D01*
X35007000Y27330000D01*
X35027000Y27330000D01*
X35027000Y28979813D01*
X35077000Y28979813D01*
X35077000Y27330000D01*
X36726840Y27330000D01*
X36973923Y27634714D01*
X36872670Y28003327D01*
X36701449Y28345104D01*
X36466841Y28646910D01*
X36177862Y28897147D01*
X35845616Y29086199D01*
X35482872Y29206801D01*
X35381714Y29226923D01*
X35077000Y28979813D01*
X35027000Y28979813D01*
X34722286Y29226923D01*
X34621128Y29206801D01*
X34258384Y29086199D01*
X34082924Y28986360D01*
X33976084Y29074042D01*
X33784988Y29176184D01*
X33577638Y29239084D01*
X33362000Y29260322D01*
X31662000Y29260322D01*
X31446362Y29239084D01*
X31239012Y29176184D01*
X31047916Y29074042D01*
X30880419Y28936581D01*
X30742958Y28769084D01*
X30640816Y28577988D01*
X30577916Y28370638D01*
X30556678Y28155000D01*
X23880658Y28155000D01*
X23891409Y31672908D01*
X34549264Y31672908D01*
X34585126Y31286868D01*
X34910469Y31101862D01*
X35265655Y30983881D01*
X35637032Y30937460D01*
X36010330Y30964384D01*
X36371202Y31063617D01*
X36705781Y31231346D01*
X36788874Y31286868D01*
X36824736Y31672908D01*
X35687000Y32810645D01*
X34549264Y31672908D01*
X23891409Y31672908D01*
X23895147Y32895968D01*
X33778460Y32895968D01*
X33805384Y32522670D01*
X33904617Y32161798D01*
X34072346Y31827219D01*
X34127868Y31744126D01*
X34513908Y31708264D01*
X35651645Y32846000D01*
X35722355Y32846000D01*
X36860092Y31708264D01*
X37246132Y31744126D01*
X37431138Y32069469D01*
X37549119Y32424655D01*
X37595540Y32796032D01*
X37568616Y33169330D01*
X37469383Y33530202D01*
X37301654Y33864781D01*
X37246132Y33947874D01*
X36860092Y33983736D01*
X35722355Y32846000D01*
X35651645Y32846000D01*
X34513908Y33983736D01*
X34127868Y33947874D01*
X33942862Y33622531D01*
X33824881Y33267345D01*
X33778460Y32895968D01*
X23895147Y32895968D01*
X23898579Y34019092D01*
X34549264Y34019092D01*
X35687000Y32881355D01*
X36824736Y34019092D01*
X36788874Y34405132D01*
X36463531Y34590138D01*
X36108345Y34708119D01*
X35736968Y34754540D01*
X35363670Y34727616D01*
X35002798Y34628383D01*
X34668219Y34460654D01*
X34585126Y34405132D01*
X34549264Y34019092D01*
X23898579Y34019092D01*
X23910040Y37768908D01*
X28326264Y37768908D01*
X28362126Y37382868D01*
X28687469Y37197862D01*
X29042655Y37079881D01*
X29414032Y37033460D01*
X29787330Y37060384D01*
X30148202Y37159617D01*
X30482781Y37327346D01*
X30565874Y37382868D01*
X30601736Y37768908D01*
X29464000Y38906645D01*
X28326264Y37768908D01*
X23910040Y37768908D01*
X23913778Y38991968D01*
X27555460Y38991968D01*
X27582384Y38618670D01*
X27681617Y38257798D01*
X27849346Y37923219D01*
X27904868Y37840126D01*
X28290908Y37804264D01*
X29428645Y38942000D01*
X29499355Y38942000D01*
X30637092Y37804264D01*
X31023132Y37840126D01*
X31208138Y38165469D01*
X31326119Y38520655D01*
X31372540Y38892032D01*
X31345616Y39265330D01*
X31246383Y39626202D01*
X31078654Y39960781D01*
X31023132Y40043874D01*
X30637092Y40079736D01*
X29499355Y38942000D01*
X29428645Y38942000D01*
X28290908Y40079736D01*
X27904868Y40043874D01*
X27719862Y39718531D01*
X27601881Y39363345D01*
X27555460Y38991968D01*
X23913778Y38991968D01*
X23917210Y40115092D01*
X28326264Y40115092D01*
X29464000Y38977355D01*
X30601736Y40115092D01*
X30565874Y40501132D01*
X30240531Y40686138D01*
X30187070Y40703896D01*
X31208800Y40703896D01*
X31208800Y40322104D01*
X31283284Y39947648D01*
X31429390Y39594918D01*
X31641502Y39277470D01*
X31911470Y39007502D01*
X32228918Y38795390D01*
X32581648Y38649284D01*
X32956104Y38574800D01*
X33337896Y38574800D01*
X33712352Y38649284D01*
X34025219Y38778878D01*
X34003242Y38745987D01*
X33860016Y38400209D01*
X33787000Y38033134D01*
X33787000Y37658866D01*
X33860016Y37291791D01*
X34003242Y36946013D01*
X34211174Y36634821D01*
X34475821Y36370174D01*
X34787013Y36162242D01*
X35132791Y36019016D01*
X35499866Y35946000D01*
X35874134Y35946000D01*
X36241209Y36019016D01*
X36586987Y36162242D01*
X36898179Y36370174D01*
X37162826Y36634821D01*
X37370758Y36946013D01*
X37513984Y37291791D01*
X37587000Y37658866D01*
X37587000Y38033134D01*
X37513984Y38400209D01*
X37370758Y38745987D01*
X37348781Y38778878D01*
X37661648Y38649284D01*
X38036104Y38574800D01*
X38417896Y38574800D01*
X38792352Y38649284D01*
X39145082Y38795390D01*
X39462530Y39007502D01*
X39497000Y39041972D01*
X39531470Y39007502D01*
X39848918Y38795390D01*
X40201648Y38649284D01*
X40576104Y38574800D01*
X40957896Y38574800D01*
X41332352Y38649284D01*
X41685082Y38795390D01*
X42002530Y39007502D01*
X42272498Y39277470D01*
X42484610Y39594918D01*
X42630716Y39947648D01*
X42705200Y40322104D01*
X42705200Y40703896D01*
X42630716Y41078352D01*
X42484610Y41431082D01*
X42272498Y41748530D01*
X42002530Y42018498D01*
X41685082Y42230610D01*
X41332352Y42376716D01*
X40957896Y42451200D01*
X40576104Y42451200D01*
X40201648Y42376716D01*
X39848918Y42230610D01*
X39531470Y42018498D01*
X39497000Y41984028D01*
X39462530Y42018498D01*
X39145082Y42230610D01*
X38792352Y42376716D01*
X38417896Y42451200D01*
X38036104Y42451200D01*
X37661648Y42376716D01*
X37308918Y42230610D01*
X36991470Y42018498D01*
X36957000Y41984028D01*
X36922530Y42018498D01*
X36605082Y42230610D01*
X36252352Y42376716D01*
X35877896Y42451200D01*
X35496104Y42451200D01*
X35121648Y42376716D01*
X34768918Y42230610D01*
X34451470Y42018498D01*
X34417000Y41984028D01*
X34382530Y42018498D01*
X34065082Y42230610D01*
X33712352Y42376716D01*
X33337896Y42451200D01*
X32956104Y42451200D01*
X32581648Y42376716D01*
X32228918Y42230610D01*
X31911470Y42018498D01*
X31641502Y41748530D01*
X31429390Y41431082D01*
X31283284Y41078352D01*
X31208800Y40703896D01*
X30187070Y40703896D01*
X29885345Y40804119D01*
X29513968Y40850540D01*
X29140670Y40823616D01*
X28779798Y40724383D01*
X28445219Y40556654D01*
X28362126Y40501132D01*
X28326264Y40115092D01*
X23917210Y40115092D01*
X23929477Y44129134D01*
X27564000Y44129134D01*
X27564000Y43754866D01*
X27637016Y43387791D01*
X27780242Y43042013D01*
X27988174Y42730821D01*
X28252821Y42466174D01*
X28564013Y42258242D01*
X28909791Y42115016D01*
X29276866Y42042000D01*
X29651134Y42042000D01*
X30018209Y42115016D01*
X30363987Y42258242D01*
X30675179Y42466174D01*
X30939826Y42730821D01*
X31147758Y43042013D01*
X31290984Y43387791D01*
X31364000Y43754866D01*
X31364000Y44129134D01*
X31350700Y44196000D01*
X45792565Y44196000D01*
X45830215Y43813733D01*
X45941718Y43446157D01*
X46063530Y43218262D01*
X45982958Y43120084D01*
X45880816Y42928988D01*
X45817916Y42721638D01*
X45796678Y42506000D01*
X45796678Y40806000D01*
X45817916Y40590362D01*
X45880816Y40383012D01*
X45982958Y40191916D01*
X46120419Y40024419D01*
X46287916Y39886958D01*
X46479012Y39784816D01*
X46686362Y39721916D01*
X46902000Y39700678D01*
X48602000Y39700678D01*
X48817638Y39721916D01*
X49024988Y39784816D01*
X49216084Y39886958D01*
X49383581Y40024419D01*
X49521042Y40191916D01*
X49623184Y40383012D01*
X49686084Y40590362D01*
X49707322Y40806000D01*
X49707322Y42506000D01*
X49686084Y42721638D01*
X49623184Y42928988D01*
X49521042Y43120084D01*
X49440470Y43218262D01*
X49562282Y43446157D01*
X49673785Y43813733D01*
X49711435Y44196000D01*
X49673785Y44578267D01*
X49562282Y44945843D01*
X49381211Y45284604D01*
X49226013Y45473714D01*
X49344147Y45610138D01*
X49533199Y45942384D01*
X49653801Y46305128D01*
X49673923Y46406286D01*
X49426813Y46711000D01*
X47777000Y46711000D01*
X47777000Y46691000D01*
X47727000Y46691000D01*
X47727000Y46711000D01*
X46077187Y46711000D01*
X45830077Y46406286D01*
X45850199Y46305128D01*
X45970801Y45942384D01*
X46159853Y45610138D01*
X46277987Y45473714D01*
X46122789Y45284604D01*
X45941718Y44945843D01*
X45830215Y44578267D01*
X45792565Y44196000D01*
X31350700Y44196000D01*
X31290984Y44496209D01*
X31147758Y44841987D01*
X30939826Y45153179D01*
X30675179Y45417826D01*
X30363987Y45625758D01*
X30018209Y45768984D01*
X29651134Y45842000D01*
X29276866Y45842000D01*
X28909791Y45768984D01*
X28564013Y45625758D01*
X28252821Y45417826D01*
X27988174Y45153179D01*
X27780242Y44841987D01*
X27637016Y44496209D01*
X27564000Y44129134D01*
X23929477Y44129134D01*
X23942296Y48323896D01*
X31208800Y48323896D01*
X31208800Y47942104D01*
X31283284Y47567648D01*
X31429390Y47214918D01*
X31641502Y46897470D01*
X31911470Y46627502D01*
X32228918Y46415390D01*
X32581648Y46269284D01*
X32956104Y46194800D01*
X33337896Y46194800D01*
X33712352Y46269284D01*
X34065082Y46415390D01*
X34382530Y46627502D01*
X34537687Y46782659D01*
X34562562Y46542811D01*
X34894399Y46353999D01*
X35256695Y46233554D01*
X35635527Y46186103D01*
X36016337Y46213470D01*
X36384491Y46314603D01*
X36725840Y46485617D01*
X36811438Y46542811D01*
X36836313Y46782659D01*
X36991470Y46627502D01*
X37308918Y46415390D01*
X37661648Y46269284D01*
X38036104Y46194800D01*
X38417896Y46194800D01*
X38792352Y46269284D01*
X39145082Y46415390D01*
X39211967Y46460081D01*
X39314716Y46375758D01*
X39505812Y46273616D01*
X39713162Y46210716D01*
X39928800Y46189478D01*
X41605200Y46189478D01*
X41820838Y46210716D01*
X42028188Y46273616D01*
X42219284Y46375758D01*
X42386781Y46513219D01*
X42524242Y46680716D01*
X42626384Y46871812D01*
X42685204Y47065714D01*
X45830077Y47065714D01*
X46077187Y46761000D01*
X47727000Y46761000D01*
X47727000Y48410840D01*
X47777000Y48410840D01*
X47777000Y46761000D01*
X49426813Y46761000D01*
X49673923Y47065714D01*
X49653801Y47166872D01*
X49533199Y47529616D01*
X49344147Y47861862D01*
X49093910Y48150841D01*
X48792104Y48385449D01*
X48450327Y48556670D01*
X48081714Y48657923D01*
X47777000Y48410840D01*
X47727000Y48410840D01*
X47422286Y48657923D01*
X47053673Y48556670D01*
X46711896Y48385449D01*
X46410090Y48150841D01*
X46159853Y47861862D01*
X45970801Y47529616D01*
X45850199Y47166872D01*
X45830077Y47065714D01*
X42685204Y47065714D01*
X42689284Y47079162D01*
X42710522Y47294800D01*
X42710522Y48971200D01*
X42689284Y49186838D01*
X42626384Y49394188D01*
X42524242Y49585284D01*
X42386781Y49752781D01*
X42219284Y49890242D01*
X42028188Y49992384D01*
X41820838Y50055284D01*
X41605200Y50076522D01*
X39928800Y50076522D01*
X39713162Y50055284D01*
X39505812Y49992384D01*
X39314716Y49890242D01*
X39211967Y49805919D01*
X39145082Y49850610D01*
X38792352Y49996716D01*
X38417896Y50071200D01*
X38036104Y50071200D01*
X37661648Y49996716D01*
X37308918Y49850610D01*
X36991470Y49638498D01*
X36836313Y49483341D01*
X36811438Y49723189D01*
X36479601Y49912001D01*
X36117305Y50032446D01*
X35738473Y50079897D01*
X35357663Y50052530D01*
X34989509Y49951397D01*
X34648160Y49780383D01*
X34562562Y49723189D01*
X34537687Y49483341D01*
X34382530Y49638498D01*
X34065082Y49850610D01*
X33712352Y49996716D01*
X33337896Y50071200D01*
X32956104Y50071200D01*
X32581648Y49996716D01*
X32228918Y49850610D01*
X31911470Y49638498D01*
X31641502Y49368530D01*
X31429390Y49051082D01*
X31283284Y48698352D01*
X31208800Y48323896D01*
X23942296Y48323896D01*
X23956731Y53047000D01*
X31191678Y53047000D01*
X31191678Y51347000D01*
X31212916Y51131362D01*
X31275816Y50924012D01*
X31377958Y50732916D01*
X31515419Y50565419D01*
X31682916Y50427958D01*
X31874012Y50325816D01*
X32081362Y50262916D01*
X32297000Y50241678D01*
X33997000Y50241678D01*
X34212638Y50262916D01*
X34419988Y50325816D01*
X34611084Y50427958D01*
X34717924Y50515640D01*
X34893384Y50415801D01*
X35256128Y50295199D01*
X35357286Y50275077D01*
X35662000Y50522187D01*
X35662000Y52172000D01*
X35712000Y52172000D01*
X35712000Y50522187D01*
X36016714Y50275077D01*
X36117872Y50295199D01*
X36480616Y50415801D01*
X36812862Y50604853D01*
X37101841Y50855090D01*
X37336449Y51156896D01*
X37507670Y51498673D01*
X37608923Y51867286D01*
X37361840Y52172000D01*
X35712000Y52172000D01*
X35662000Y52172000D01*
X35642000Y52172000D01*
X35642000Y52222000D01*
X35662000Y52222000D01*
X35662000Y53871813D01*
X35712000Y53871813D01*
X35712000Y52222000D01*
X37361840Y52222000D01*
X37608923Y52526714D01*
X37507670Y52895327D01*
X37336449Y53237104D01*
X37101841Y53538910D01*
X36812862Y53789147D01*
X36480616Y53978199D01*
X36117872Y54098801D01*
X36016714Y54118923D01*
X35712000Y53871813D01*
X35662000Y53871813D01*
X35357286Y54118923D01*
X35256128Y54098801D01*
X34893384Y53978199D01*
X34717924Y53878360D01*
X34611084Y53966042D01*
X34419988Y54068184D01*
X34212638Y54131084D01*
X33997000Y54152322D01*
X32297000Y54152322D01*
X32081362Y54131084D01*
X31874012Y54068184D01*
X31682916Y53966042D01*
X31515419Y53828581D01*
X31377958Y53661084D01*
X31275816Y53469988D01*
X31212916Y53262638D01*
X31191678Y53047000D01*
X23956731Y53047000D01*
X23977615Y59879955D01*
X51565749Y59957373D01*
X52088001Y59391905D01*
G36*
X35228498Y23128142D02*
G01*
X35214355Y23114000D01*
X35228498Y23099858D01*
X35193143Y23064502D01*
X35179000Y23078645D01*
X35164858Y23064502D01*
X35129502Y23099858D01*
X35143645Y23114000D01*
X35129502Y23128142D01*
X35164858Y23163497D01*
X35179000Y23149355D01*
X35193143Y23163497D01*
X35228498Y23128142D01*
X35228498Y23128142D01*
G37*
X35228498Y23128142D02*
X35214355Y23114000D01*
X35228498Y23099858D01*
X35193143Y23064502D01*
X35179000Y23078645D01*
X35164858Y23064502D01*
X35129502Y23099858D01*
X35143645Y23114000D01*
X35129502Y23128142D01*
X35164858Y23163497D01*
X35179000Y23149355D01*
X35193143Y23163497D01*
X35228498Y23128142D01*
G36*
X35736498Y48147142D02*
G01*
X35722355Y48133000D01*
X35736498Y48118858D01*
X35701143Y48083502D01*
X35687000Y48097645D01*
X35672858Y48083502D01*
X35637502Y48118858D01*
X35651645Y48133000D01*
X35637502Y48147142D01*
X35672858Y48182497D01*
X35687000Y48168355D01*
X35701143Y48182497D01*
X35736498Y48147142D01*
X35736498Y48147142D01*
G37*
X35736498Y48147142D02*
X35722355Y48133000D01*
X35736498Y48118858D01*
X35701143Y48083502D01*
X35687000Y48097645D01*
X35672858Y48083502D01*
X35637502Y48118858D01*
X35651645Y48133000D01*
X35637502Y48147142D01*
X35672858Y48182497D01*
X35687000Y48168355D01*
X35701143Y48182497D01*
X35736498Y48147142D01*
G04 #@! TD*
M02*
