M48
; DRILL file {KiCad (5.1.2)-2} date 4/16/2020 5:57:19 PM
; FORMAT={-:-/ absolute / metric / decimal}
; #@! TF.CreationDate,2020-04-16T17:57:19-04:00
; #@! TF.GenerationSoftware,Kicad,Pcbnew,(5.1.2)-2
FMAT,2
METRIC
T1C0.800
T2C1.000
T3C1.118
T4C1.250
T5C3.500
%
G90
G05
T1
X14.351Y12.319
X29.464Y43.942
X29.464Y38.942
X32.639Y11.684
X32.639Y6.684
X18.034Y17.192
X18.034Y12.192
X6.096Y40.132
X16.256Y40.132
X28.829Y18.796
X28.829Y13.796
X11.049Y48.26
X14.549Y48.26
X35.687Y37.846
X35.687Y32.846
X3.81Y35.56
X13.97Y35.56
X6.731Y19.939
X6.731Y12.319
X9.271Y19.939
X9.271Y12.319
X11.811Y19.939
X11.811Y12.319
X14.351Y19.939
X15.494Y23.876
X25.654Y23.876
X10.033Y29.972
X12.573Y29.972
X15.113Y29.972
T2
X47.498Y22.225
X47.498Y19.685
X47.498Y17.145
X6.096Y48.133
X6.096Y45.593
X47.752Y46.736
X47.752Y44.196
X47.752Y41.656
X33.147Y52.197
X35.687Y52.197
X32.512Y27.305
X35.052Y27.305
T3
X32.639Y23.114
X32.639Y15.494
X35.179Y23.114
X35.179Y15.494
X37.719Y23.114
X37.719Y15.494
X40.259Y23.114
X40.259Y15.494
X33.147Y48.133
X33.147Y40.513
X35.687Y48.133
X35.687Y40.513
X38.227Y48.133
X38.227Y40.513
X40.767Y48.133
X40.767Y40.513
T4
X17.78Y7.874
X17.907Y52.578
T5
X41.453Y2.483
X26.503Y2.483
X50.419Y58.42
X26.416Y58.42
T0
M30
